<svg width="28" height="28" viewBox="0 0 28 28" fill="none" xmlns="http://www.w3.org/2000/svg">
<path d="M14.0061 20.9847C8.42582 21 2.6377 22.5881 2.6377 26.4666V27.1316H25.3746V26.4666C25.3746 22.5859 19.5864 20.9978 14.0061 20.9847Z" fill="url(#paint0_radial_153_482)"/>
<path d="M21.6345 17.4672C21.3611 16.9706 21.7089 16.4653 22.3039 15.8397C23.2467 14.8466 24.2727 12.5431 23.3189 10.2047C23.3255 10.1916 23.1308 9.79783 23.1373 9.78471L22.7458 9.76502C22.6211 9.74752 18.3139 9.73877 14.0023 9.73877C9.69078 9.73877 5.38359 9.74752 5.2589 9.76502C5.2589 9.76502 4.67922 10.1916 4.68359 10.2047C3.73203 12.5431 4.75578 14.8444 5.69859 15.8397C6.2914 16.4653 6.63922 16.9706 6.36797 17.4672C6.10328 17.9506 5.31578 18.0206 5.31578 18.0206C5.31578 18.0206 5.49734 18.515 5.93484 18.7819C6.33953 19.0291 6.83828 19.086 7.18172 19.0947C7.18172 19.0947 8.52703 20.9563 12.0445 20.9563H15.9602C19.4777 20.9563 20.823 19.0947 20.823 19.0947C21.1664 19.086 21.6652 19.0291 22.0698 18.7819C22.5073 18.515 22.6889 18.0206 22.6889 18.0206C22.6889 18.0206 21.8992 17.9506 21.6345 17.4672Z" fill="#543930"/>
<path d="M13.998 20.9541V18.8891L20.2477 18.3947L20.8165 19.0947C20.8165 19.0947 19.4712 20.9563 15.9537 20.9563L13.998 20.9541Z" fill="url(#paint1_radial_153_482)"/>
<path d="M20.8031 18.1912C19.8669 16.7694 21.9428 16.2378 21.9428 16.2378L21.945 16.24C21.584 16.6884 21.42 17.08 21.6322 17.4672C21.8969 17.9506 22.6844 18.0206 22.6844 18.0206C22.6844 18.0206 21.6103 18.9744 20.8031 18.1912Z" fill="url(#paint2_radial_153_482)"/>
<path d="M23.3229 10.2047C24.2526 12.4687 23.2748 14.8006 22.3582 15.785C22.2335 15.9206 21.6998 16.4434 21.5773 16.8612C21.5773 16.8612 19.4904 13.9497 18.867 12.239C18.7423 11.8934 18.6263 11.539 18.611 11.1715C18.6001 10.8959 18.6416 10.5678 18.8013 10.3337C18.996 10.0472 23.2113 9.96185 23.2113 9.96185C23.2113 9.96404 23.3229 10.2047 23.3229 10.2047Z" fill="url(#paint3_radial_153_482)"/>
<path d="M4.68095 10.2047C3.75345 12.4688 4.73126 14.8007 5.64564 15.7828C5.77251 15.9185 6.30408 16.4413 6.42658 16.8591C6.42658 16.8591 8.51345 13.9475 9.13689 12.2369C9.26377 11.8913 9.37751 11.5369 9.39283 11.1694C9.40377 10.8938 9.3622 10.5657 9.20252 10.3316C9.00783 10.045 8.78033 10.1216 8.45002 10.1216C7.82002 10.1216 5.06158 9.95972 4.8472 9.95972C4.84939 9.96409 4.68095 10.2047 4.68095 10.2047Z" fill="url(#paint4_radial_153_482)"/>
<path d="M14.0069 20.9541V18.8891L7.75723 18.3947L7.18848 19.0947C7.18848 19.0947 8.53379 20.9563 12.0513 20.9563L14.0069 20.9541Z" fill="url(#paint5_radial_153_482)"/>
<path d="M7.20156 18.1912C8.13781 16.7694 6.06187 16.2378 6.06187 16.2378L6.05969 16.24C6.42063 16.6884 6.58469 17.08 6.3725 17.4672C6.10781 17.9506 5.32031 18.0206 5.32031 18.0206C5.32031 18.0206 6.39437 18.9744 7.20156 18.1912Z" fill="url(#paint6_radial_153_482)"/>
<path d="M12.0137 19.705V24.29C12.0137 25.4406 12.823 26.3747 13.8205 26.3747H14.1815C15.179 26.3747 15.9884 25.4428 15.9884 24.29V19.705H12.0137Z" fill="#E59600"/>
<path d="M11.5195 22.3125L12.3617 27.125H15.7283L16.4808 22.3125H11.5195Z" fill="#81D4FA"/>
<path d="M15.9953 21.0372C17.2903 21.1312 17.8962 21.2428 17.8962 21.2428L18.5809 22.8397L17.4325 23.8L18.0516 25.1497L16.8309 27.1162H15.3281L15.9953 21.0372Z" fill="url(#paint7_linear_153_482)"/>
<path d="M12.0114 21.0372C10.7164 21.1312 10.1105 21.2428 10.1105 21.2428L9.42578 22.8397L10.5742 23.8L9.95516 25.1497L11.1758 27.1162H12.6786L12.0114 21.0372Z" fill="url(#paint8_linear_153_482)"/>
<path d="M7.20605 22.8222C7.54949 22.6428 7.9498 22.3803 8.13574 22.2184C8.55574 21.8531 9.55105 20.9125 10.2926 21.5753C11.0932 22.2775 10.2707 23.3844 9.95356 23.8437C9.79606 24.0734 9.67574 24.3272 9.5773 24.5853" stroke="#03A9F4" stroke-width="0.375" stroke-miterlimit="10"/>
<path d="M6.51686 24.3578C6.40967 24.3753 6.29373 24.4213 6.17998 24.3119C6.10561 24.2397 6.01154 24.0341 6.03779 23.8569C6.06404 23.6775 6.26311 23.6032 6.68748 23.4216C7.01779 23.2816 7.32186 23.1394 7.59748 22.9535L7.18623 22.4416C7.18623 22.4416 6.71154 22.7085 6.45342 22.8091C5.99623 22.9841 5.47561 23.1832 5.39029 23.7607C5.29842 24.3819 5.63967 24.8238 5.90217 25.0228C6.11654 25.1869 6.32217 25.2657 6.52123 25.2788C6.82967 25.2985 7.03529 25.0972 7.03529 24.7866C7.03529 24.476 6.73123 24.3228 6.51686 24.3578Z" fill="url(#paint9_linear_153_482)"/>
<path d="M8.10038 25.5478C8.09819 25.6572 8.06975 25.7775 8.19444 25.8737C8.27757 25.9372 8.49413 26.0006 8.66475 25.9503C8.83757 25.8978 8.8835 25.6922 9.00163 25.2459C9.0935 24.9003 9.18975 24.5765 9.33413 24.2769L9.8985 24.6094C9.8985 24.6094 9.70163 25.1169 9.64038 25.3881C9.53319 25.8672 9.41069 26.4097 8.85069 26.5759C8.24913 26.7575 7.76132 26.4797 7.52725 26.25C7.33475 26.0597 7.22757 25.8694 7.186 25.6725C7.12257 25.3706 7.29319 25.1365 7.59944 25.0928C7.90569 25.049 8.10475 25.329 8.10038 25.5478Z" fill="url(#paint10_linear_153_482)"/>
<path d="M12.0533 20.5078C11.0405 20.5275 10.3186 21.0437 10.043 21.3631L10.5395 21.7919C10.5461 21.7853 11.0755 21.1925 12.0533 21.1662V20.5078ZM18.8695 22.4175C18.338 21.2209 17.5155 20.7659 17.0736 20.6019C16.6689 20.4509 16.2752 20.3897 15.9864 20.3656V21.024C16.2227 21.0459 16.5311 21.0984 16.8461 21.2165C17.1917 21.3456 17.837 21.7065 18.2702 22.6844C18.8783 24.0537 19.0314 24.4103 19.0336 24.4103L19.6352 24.15C19.6352 24.15 19.482 23.7956 18.8695 22.4175Z" fill="#03A9F4"/>
<path d="M19.7314 26.4819C20.5771 26.4819 21.2627 25.7963 21.2627 24.9506C21.2627 24.1049 20.5771 23.4194 19.7314 23.4194C18.8858 23.4194 18.2002 24.1049 18.2002 24.9506C18.2002 25.7963 18.8858 26.4819 19.7314 26.4819Z" fill="url(#paint11_linear_153_482)"/>
<path d="M19.7314 25.8256C20.2147 25.8256 20.6064 25.4339 20.6064 24.9506C20.6064 24.4674 20.2147 24.0756 19.7314 24.0756C19.2482 24.0756 18.8564 24.4674 18.8564 24.9506C18.8564 25.4339 19.2482 25.8256 19.7314 25.8256Z" fill="#9E9E9E"/>
<path d="M19.9784 11.0316H8.02152C6.73309 11.0316 5.67871 12.1559 5.67871 13.5275C5.67871 14.8991 6.73309 16.0234 8.02152 16.0234H19.9762C21.2646 16.0234 22.319 14.8991 22.319 13.5275C22.319 12.1559 21.2668 11.0316 19.9784 11.0316Z" fill="#E59600"/>
<path d="M14.0005 2.42157C10.1942 2.42157 6.66797 6.49251 6.66797 12.3528C6.66797 18.1803 10.3014 21.0613 14.0005 21.0613C17.6995 21.0613 21.333 18.1781 21.333 12.3506C21.333 6.49251 17.8067 2.42157 14.0005 2.42157Z" fill="#FFCA28"/>
<path d="M11.9876 10.8981C11.7841 10.6291 11.316 10.2397 10.406 10.2397C9.49601 10.2397 9.02569 10.6312 8.82444 10.8981C8.73476 11.0162 8.75663 11.1541 8.82007 11.2372C8.87694 11.3137 9.04757 11.3859 9.23569 11.3225C9.42382 11.2591 9.79132 11.0687 10.406 11.0644C11.0207 11.0687 11.3882 11.2591 11.5763 11.3225C11.7644 11.3859 11.9351 11.3159 11.9919 11.2372C12.0532 11.1541 12.0773 11.0162 11.9876 10.8981ZM19.1779 10.8981C18.9744 10.6291 18.5063 10.2397 17.5963 10.2397C16.6863 10.2397 16.216 10.6312 16.0148 10.8981C15.9251 11.0162 15.9469 11.1541 16.0104 11.2372C16.0673 11.3137 16.2379 11.3859 16.426 11.3225C16.6141 11.2591 16.9816 11.0687 17.5963 11.0644C18.211 11.0687 18.5785 11.2591 18.7666 11.3225C18.9548 11.3859 19.1254 11.3159 19.1823 11.2372C19.2435 11.1541 19.2676 11.0162 19.1779 10.8981Z" fill="#6D4C41"/>
<path d="M10.4036 13.9803C10.9992 13.9803 11.4821 13.4809 11.4821 12.8647C11.4821 12.2486 10.9992 11.7491 10.4036 11.7491C9.80803 11.7491 9.3252 12.2486 9.3252 12.8647C9.3252 13.4809 9.80803 13.9803 10.4036 13.9803Z" fill="#404040"/>
<path d="M17.596 13.9803C18.1916 13.9803 18.6745 13.4809 18.6745 12.8647C18.6745 12.2486 18.1916 11.7491 17.596 11.7491C17.0004 11.7491 16.5176 12.2486 16.5176 12.8647C16.5176 13.4809 17.0004 13.9803 17.596 13.9803Z" fill="#404040"/>
<path d="M15.8417 16.6556C15.1461 17.0691 12.8602 17.0691 12.1645 16.6556C11.7642 16.4172 11.3552 16.7825 11.5214 17.1456C11.6855 17.5022 12.9302 18.3313 14.0086 18.3313C15.087 18.3313 16.3164 17.5022 16.4805 17.1456C16.6445 16.7825 16.242 16.4172 15.8417 16.6556Z" fill="#795548"/>
<path d="M14.8439 14.8881C14.8199 14.8794 14.798 14.8728 14.7739 14.8706H13.2252C13.2011 14.8728 13.1771 14.8794 13.1552 14.8881C13.0152 14.945 12.9386 15.0894 13.0043 15.2447C13.0699 15.4 13.3783 15.8331 13.9996 15.8331C14.6208 15.8331 14.9293 15.3978 14.9949 15.2447C15.0605 15.0894 14.9839 14.945 14.8439 14.8881Z" fill="#E59600"/>
<path d="M22.7651 5.49282C22.2313 4.68564 21.0348 3.60282 19.9607 3.53064C19.7879 2.49814 18.6832 1.62314 17.6135 1.28407C14.7195 0.36751 12.836 1.39564 11.8254 1.94689C11.6154 2.06064 10.257 2.81532 9.30759 2.27501C8.71259 1.93595 8.72352 1.01939 8.72352 1.01939C8.72352 1.01939 6.85977 1.73032 7.49634 3.71001C6.8554 3.73626 6.0154 4.00751 5.57134 4.90657C5.04196 5.97845 5.23009 6.87314 5.38321 7.30189C4.83196 7.77001 4.13852 8.76532 4.61321 10.0581C4.97196 11.0316 6.4004 11.48 6.4004 11.48C6.29977 13.2322 6.62571 14.3106 6.79852 14.7459C6.82915 14.8225 6.93634 14.8159 6.95602 14.7372C7.17259 13.8688 7.91196 10.8434 7.83759 10.3163C7.83759 10.3163 10.3204 9.82407 12.6873 8.08063C13.1685 7.72626 13.6913 7.42439 14.247 7.20345C17.2198 6.02001 17.841 8.03907 17.841 8.03907C17.841 8.03907 19.9016 7.64313 20.5229 10.5044C20.757 11.5763 20.9145 13.2934 21.0479 14.4944C21.0566 14.5797 21.1726 14.5972 21.2054 14.5184C21.4132 14.0416 21.8288 13.0966 21.9273 12.1319C21.9623 11.7928 22.8766 11.3444 23.2704 9.88751C23.7976 7.94501 23.1523 6.07689 22.7651 5.49282Z" fill="#543930"/>
<path d="M21.9227 12.1406C21.9577 11.8016 22.872 11.3531 23.2658 9.89624C23.3073 9.74093 23.3423 9.58343 23.3752 9.42593C23.6945 7.65624 23.1214 6.03093 22.7648 5.49281C22.2705 4.74687 21.2117 3.76687 20.2077 3.56562C20.1202 3.55468 20.0348 3.54374 19.9539 3.53937C19.9539 3.53937 20.0261 4.00968 19.8358 4.38374C19.5908 4.86937 19.0898 4.98531 19.0898 4.98531C21.7083 7.60593 21.5223 9.79781 21.9227 12.1406Z" fill="url(#paint12_radial_153_482)"/>
<path d="M12.4579 1.61656C12.2173 1.73249 12.0073 1.84843 11.8235 1.94687C11.6135 2.06062 10.2551 2.81531 9.3057 2.27499C8.72163 1.94249 8.72163 1.05437 8.72163 1.02374C8.45257 1.36718 7.63882 3.81937 10.0188 3.98343C11.0448 4.05343 11.6769 3.15874 12.0532 2.40187C12.1888 2.12624 12.401 1.72374 12.4579 1.61656Z" fill="url(#paint13_radial_153_482)"/>
<path d="M17.3162 1.19655C18.9175 1.62968 19.6984 2.44561 19.9587 3.5328C20.0353 3.85218 20.1272 6.83155 14.4397 3.4453C12.3244 2.1853 12.9019 1.3978 13.1491 1.30811C14.1159 0.958115 15.5225 0.710927 17.3162 1.19655Z" fill="url(#paint14_radial_153_482)"/>
<path d="M8.71473 1.02372C8.71254 1.02591 8.70817 1.02591 8.7016 1.03029H8.69942C8.49598 1.1156 6.89692 1.85716 7.4941 3.70997L9.19598 3.98341C7.68879 2.45654 8.72129 1.01935 8.72129 1.01935C8.72129 1.01935 8.71692 1.02154 8.71473 1.02372Z" fill="url(#paint15_radial_153_482)"/>
<path d="M8.54615 3.87846L7.49396 3.71002C7.4524 3.71002 7.3124 3.72315 7.23584 3.73408C6.64303 3.81721 5.94521 4.12346 5.56678 4.90658C5.1599 5.75096 5.17084 6.47502 5.2824 6.95846C5.31521 7.12033 5.38084 7.30408 5.38084 7.30408C5.38084 7.30408 5.90146 6.80971 7.14178 6.7769L8.54615 3.87846Z" fill="url(#paint16_radial_153_482)"/>
<path d="M5.33051 7.34561C4.81207 7.80498 4.11426 8.83092 4.62832 10.104C5.01551 11.0644 6.39801 11.48 6.39801 11.48C6.39801 11.4844 6.67363 11.5675 6.81582 11.5675L7.13957 6.77686C6.47676 6.77686 5.8402 6.97592 5.42895 7.26248C5.43551 7.26904 5.32832 7.33904 5.33051 7.34561Z" fill="url(#paint17_radial_153_482)"/>
<defs>
<radialGradient id="paint0_radial_153_482" cx="0" cy="0" r="1" gradientUnits="userSpaceOnUse" gradientTransform="translate(14.031 27.0237) rotate(179.761) scale(16.4096 8.87792)">
<stop offset="0.559" stop-color="#F5F5F5"/>
<stop offset="1" stop-color="#C6C6C6"/>
</radialGradient>
<radialGradient id="paint1_radial_153_482" cx="0" cy="0" r="1" gradientUnits="userSpaceOnUse" gradientTransform="translate(17.1903 17.9705) scale(5.12291 2.51637)">
<stop offset="0.728" stop-color="#6D4C41" stop-opacity="0"/>
<stop offset="1" stop-color="#6D4C41"/>
</radialGradient>
<radialGradient id="paint2_radial_153_482" cx="0" cy="0" r="1" gradientUnits="userSpaceOnUse" gradientTransform="translate(22.2361 17.2081) rotate(154.924) scale(1.51389 1.12309)">
<stop offset="0.663" stop-color="#6D4C41"/>
<stop offset="1" stop-color="#6D4C41" stop-opacity="0"/>
</radialGradient>
<radialGradient id="paint3_radial_153_482" cx="0" cy="0" r="1" gradientUnits="userSpaceOnUse" gradientTransform="translate(18.3124 12.9262) rotate(-94.2783) scale(6.64969 5.54209)">
<stop offset="0.725" stop-color="#6D4C41" stop-opacity="0"/>
<stop offset="1" stop-color="#6D4C41"/>
</radialGradient>
<radialGradient id="paint4_radial_153_482" cx="0" cy="0" r="1" gradientUnits="userSpaceOnUse" gradientTransform="translate(9.69217 12.9262) rotate(-85.7217) scale(6.64969 5.54209)">
<stop offset="0.725" stop-color="#6D4C41" stop-opacity="0"/>
<stop offset="1" stop-color="#6D4C41"/>
</radialGradient>
<radialGradient id="paint5_radial_153_482" cx="0" cy="0" r="1" gradientUnits="userSpaceOnUse" gradientTransform="translate(10.8151 17.9705) rotate(180) scale(5.12291 2.51637)">
<stop offset="0.728" stop-color="#6D4C41" stop-opacity="0"/>
<stop offset="1" stop-color="#6D4C41"/>
</radialGradient>
<radialGradient id="paint6_radial_153_482" cx="0" cy="0" r="1" gradientUnits="userSpaceOnUse" gradientTransform="translate(5.76939 17.2082) rotate(25.0761) scale(1.51389 1.12309)">
<stop offset="0.663" stop-color="#6D4C41"/>
<stop offset="1" stop-color="#6D4C41" stop-opacity="0"/>
</radialGradient>
<linearGradient id="paint7_linear_153_482" x1="16.9541" y1="25.538" x2="16.9541" y2="21.1185" gradientUnits="userSpaceOnUse">
<stop offset="0.335" stop-color="#E0E0E0"/>
<stop offset="0.668" stop-color="#D0D0D0"/>
<stop offset="0.987" stop-color="#BDBDBD"/>
</linearGradient>
<linearGradient id="paint8_linear_153_482" x1="11.0533" y1="25.538" x2="11.0533" y2="21.1185" gradientUnits="userSpaceOnUse">
<stop offset="0.335" stop-color="#E0E0E0"/>
<stop offset="0.668" stop-color="#D0D0D0"/>
<stop offset="0.987" stop-color="#BDBDBD"/>
</linearGradient>
<linearGradient id="paint9_linear_153_482" x1="7.43932" y1="22.857" x2="5.38154" y2="25.2265" gradientUnits="userSpaceOnUse">
<stop stop-color="#757575"/>
<stop offset="1"/>
</linearGradient>
<linearGradient id="paint10_linear_153_482" x1="9.36541" y1="24.5299" x2="7.30763" y2="26.8992" gradientUnits="userSpaceOnUse">
<stop stop-color="#757575"/>
<stop offset="1"/>
</linearGradient>
<linearGradient id="paint11_linear_153_482" x1="19.2187" y1="23.8674" x2="20.3945" y2="26.3557" gradientUnits="userSpaceOnUse">
<stop stop-color="#757575"/>
<stop offset="1"/>
</linearGradient>
<radialGradient id="paint12_radial_153_482" cx="0" cy="0" r="1" gradientUnits="userSpaceOnUse" gradientTransform="translate(17.9407 9.41749) rotate(72.0851) scale(7.7946 5.78341)">
<stop offset="0.699" stop-color="#6D4C41" stop-opacity="0"/>
<stop offset="1" stop-color="#6D4C41"/>
</radialGradient>
<radialGradient id="paint13_radial_153_482" cx="0" cy="0" r="1" gradientUnits="userSpaceOnUse" gradientTransform="translate(10.3428 0.919077) rotate(28.2026) scale(2.04382 2.42338)">
<stop offset="0.58" stop-color="#6D4C41"/>
<stop offset="1" stop-color="#6D4C41" stop-opacity="0"/>
</radialGradient>
<radialGradient id="paint14_radial_153_482" cx="0" cy="0" r="1" gradientUnits="userSpaceOnUse" gradientTransform="translate(14.9104 4.63077) rotate(-157.19) scale(6.39178 3.59221)">
<stop offset="0.699" stop-color="#6D4C41" stop-opacity="0"/>
<stop offset="1" stop-color="#6D4C41"/>
</radialGradient>
<radialGradient id="paint15_radial_153_482" cx="0" cy="0" r="1" gradientUnits="userSpaceOnUse" gradientTransform="translate(9.5217 2.78354) scale(1.87578 2.29464)">
<stop offset="0.702" stop-color="#6D4C41" stop-opacity="0"/>
<stop offset="1" stop-color="#6D4C41"/>
</radialGradient>
<radialGradient id="paint16_radial_153_482" cx="0" cy="0" r="1" gradientUnits="userSpaceOnUse" gradientTransform="translate(9.26316 6.09469) rotate(-164.942) scale(3.51828 3.29248)">
<stop offset="0.66" stop-color="#6D4C41" stop-opacity="0"/>
<stop offset="1" stop-color="#6D4C41"/>
</radialGradient>
<radialGradient id="paint17_radial_153_482" cx="0" cy="0" r="1" gradientUnits="userSpaceOnUse" gradientTransform="translate(8.42938 9.49173) rotate(7.83355) scale(3.69393 5.19058)">
<stop offset="0.598" stop-color="#6D4C41" stop-opacity="0"/>
<stop offset="1" stop-color="#6D4C41"/>
</radialGradient>
</defs>
</svg>
