<svg width="26" height="26" viewBox="0 0 26 26" fill="none" xmlns="http://www.w3.org/2000/svg">
<path d="M12.9189 24.1313C7.25176 24.1313 1.1377 20.5766 1.1377 12.7766C1.1377 4.97656 7.25176 1.42188 12.9189 1.42188C16.0674 1.42188 18.9721 2.45781 21.1252 4.34688C23.4611 6.41875 24.7002 9.34375 24.7002 12.7766C24.7002 16.2094 23.4611 19.1141 21.1252 21.1859C18.9721 23.075 16.0471 24.1313 12.9189 24.1313Z" fill="url(#paint0_radial_146_616)"/>
<path d="M12.9189 24.1313C7.25176 24.1313 1.1377 20.5766 1.1377 12.7766C1.1377 4.97656 7.25176 1.42188 12.9189 1.42188C16.0674 1.42188 18.9721 2.45781 21.1252 4.34688C23.4611 6.41875 24.7002 9.34375 24.7002 12.7766C24.7002 16.2094 23.4611 19.1141 21.1252 21.1859C18.9721 23.075 16.0471 24.1313 12.9189 24.1313Z" fill="url(#paint1_radial_146_616)"/>
<path d="M12.9189 24.1313C7.25176 24.1313 1.1377 20.5766 1.1377 12.7766C1.1377 4.97656 7.25176 1.42188 12.9189 1.42188C16.0674 1.42188 18.9721 2.45781 21.1252 4.34688C23.4611 6.41875 24.7002 9.34375 24.7002 12.7766C24.7002 16.2094 23.4611 19.1141 21.1252 21.1859C18.9721 23.075 16.0471 24.1313 12.9189 24.1313Z" fill="url(#paint2_linear_146_616)"/>
<path d="M22.6461 6.02673C23.7287 7.77361 24.2934 9.85361 24.2934 12.1672C24.2934 15.6 23.0543 18.5047 20.7184 20.5766C18.5653 22.4656 15.6403 23.5219 12.5121 23.5219C8.84371 23.5219 4.9884 22.0289 2.72559 18.8622C4.91121 22.4494 9.02043 24.1313 12.9184 24.1313C16.0465 24.1313 18.9715 23.075 21.1247 21.186C23.4606 19.1141 24.6996 16.2094 24.6996 12.7766C24.6996 10.1888 23.9948 7.88939 22.6461 6.02673Z" fill="#D84213"/>
<path d="M5.53516 16.7903C7.49836 16.7903 9.08984 15.1988 9.08984 13.2356C9.08984 11.2724 7.49836 9.68091 5.53516 9.68091C3.57196 9.68091 1.98047 11.2724 1.98047 13.2356C1.98047 15.1988 3.57196 16.7903 5.53516 16.7903Z" fill="url(#paint3_radial_146_616)"/>
<path d="M20.4648 16.7903C22.428 16.7903 24.0195 15.1988 24.0195 13.2356C24.0195 11.2724 22.428 9.68091 20.4648 9.68091C18.5016 9.68091 16.9102 11.2724 16.9102 13.2356C16.9102 15.1988 18.5016 16.7903 20.4648 16.7903Z" fill="url(#paint4_radial_146_616)"/>
<path d="M12.9998 20.9219C16.1936 20.9219 18.7827 19.8442 18.7827 18.5148C18.7827 17.1855 16.1936 16.1078 12.9998 16.1078C9.80592 16.1078 7.2168 17.1855 7.2168 18.5148C7.2168 19.8442 9.80592 20.9219 12.9998 20.9219Z" fill="#422B0D"/>
<path d="M13.2236 19.9713C13.4471 19.9713 13.6299 19.7885 13.6299 19.565V16.7781C13.3597 16.7721 13.0875 16.77 12.8174 16.7741V19.565C12.8174 19.7885 13.0002 19.9713 13.2236 19.9713Z" fill="#FF0044"/>
<path opacity="0.3" d="M13.2236 19.9713C13.4471 19.9713 13.6299 19.7885 13.6299 19.565V16.7781C13.3597 16.7721 13.0875 16.77 12.8174 16.7741V19.565C12.8174 19.7885 13.0002 19.9713 13.2236 19.9713Z" fill="#1F0B08"/>
<path d="M3.96461 21.7425C2.24617 21.7425 0.923828 20.0769 0.923828 18.6489C0.923828 17.6434 1.37273 16.4795 2.00852 14.8667C2.08773 14.629 2.19336 14.3914 2.29898 14.1253C2.60164 13.3697 2.86977 12.5511 3.27602 11.8422C3.55227 11.3587 4.25711 11.3587 4.5232 11.8483C4.90102 12.545 5.16102 13.2986 5.55305 14.1781C6.66414 16.6644 6.98102 17.6678 6.98102 18.6733C7.00539 20.0748 5.65664 21.7425 3.96461 21.7425Z" fill="url(#paint5_radial_146_616)"/>
<path d="M5.82324 19.8352C5.43527 20.4364 4.55371 20.3227 4.55371 19.3253C4.55371 18.6875 4.68371 15.4152 5.23012 15.8722C6.12184 16.6177 6.37574 18.9861 5.82324 19.8352Z" fill="#81D4FA"/>
<path d="M5.56391 8.07828C5.11703 8.15749 5.09469 8.8075 5.58219 8.82984C6.5775 8.85421 7.6561 8.49265 8.49094 7.72281C8.79563 7.46078 9.06172 7.13578 9.24656 6.81078C9.49235 6.3639 8.9236 6.05718 8.63922 6.38218L8.61891 6.40249C7.80031 7.31453 6.6811 7.89953 5.56391 8.07828ZM17.4934 6.40249L17.4731 6.38218C17.1867 6.05921 16.62 6.36593 16.8658 6.81078C17.0506 7.13578 17.3147 7.45874 17.6214 7.72281C18.4563 8.49062 19.5348 8.85421 20.5302 8.82984C21.0177 8.8075 20.9953 8.15749 20.5484 8.07828C19.4292 7.89953 18.31 7.31453 17.4934 6.40249Z" fill="#422B0D"/>
<path d="M13.6297 17.4403V19.565C13.6297 19.7884 13.4469 19.9712 13.2234 19.9712C13 19.9712 12.8172 19.7884 12.8172 19.565V17.4423C11.3039 17.487 10.0933 17.7511 9.39453 17.9461V20.5034C9.39453 22.4352 10.9606 23.9992 12.8903 23.9992H13.5566C15.4883 23.9992 17.0523 22.4331 17.0523 20.5034V17.9461C15.9365 17.6378 14.787 17.4679 13.6297 17.4403Z" fill="#FF4081"/>
<path d="M13.6299 16.7781V17.4403C14.678 17.4667 15.8379 17.6069 17.0525 17.9441V17.5906C16.3619 17.1641 14.8182 16.8086 13.6299 16.7781Z" fill="#FF4081"/>
<path opacity="0.3" d="M13.6299 16.7781V17.4403C14.678 17.4667 15.8379 17.6069 17.0525 17.9441V17.5906C16.3619 17.1641 14.8182 16.8086 13.6299 16.7781Z" fill="#AB3F2E"/>
<path d="M12.8172 16.774C11.6228 16.7944 10.3452 16.9751 9.39453 17.5805V17.9461C10.0953 17.7511 11.3059 17.487 12.8172 17.4423V16.774Z" fill="#FF4081"/>
<path opacity="0.3" d="M12.8172 16.774C11.6228 16.7944 10.3452 16.9751 9.39453 17.5805V17.9461C10.0953 17.7511 11.3059 17.487 12.8172 17.4423V16.774Z" fill="#AB3F2E"/>
<path d="M22.8759 12.0981C21.3565 12.0981 20.1865 10.6254 20.1865 9.362C20.1865 8.47435 20.5846 7.4445 21.1453 6.01857C21.2164 5.80732 21.3098 5.5981 21.4032 5.3645C21.6714 4.69622 21.907 3.97107 22.2665 3.34544C22.5123 2.91685 23.1339 2.91888 23.3695 3.35154C23.7046 3.967 23.9321 4.63325 24.2795 5.41122C25.2606 7.60904 25.5429 8.49669 25.5429 9.38638C25.5653 10.6254 24.3729 12.0981 22.8759 12.0981Z" fill="url(#paint6_radial_146_616)"/>
<path d="M24.5217 10.4122C24.1784 10.9424 23.3984 10.8428 23.3984 9.96128C23.3984 9.39862 23.5122 6.50409 23.9977 6.90831C24.7858 7.56643 25.0092 9.66268 24.5217 10.4122Z" fill="#81D4FA"/>
<path d="M8.94531 9.33154C8.09422 9.33154 7.32031 10.0506 7.32031 11.245C7.32031 12.4394 8.09422 13.1584 8.94531 13.1584C9.79641 13.1584 10.5703 12.4394 10.5703 11.245C10.5703 10.0506 9.79844 9.33154 8.94531 9.33154Z" fill="#422B0D"/>
<path d="M8.86625 10.1298C8.65703 9.98359 8.34218 10.0303 8.13906 10.3228C7.93593 10.6173 8.00296 10.9261 8.21218 11.0723C8.4214 11.2186 8.73625 11.1719 8.93937 10.8794C9.1425 10.5869 9.0775 10.2761 8.86625 10.1298Z" fill="#896024"/>
<path d="M16.7373 9.33154C15.8862 9.33154 15.1123 10.0506 15.1123 11.245C15.1123 12.4394 15.8862 13.1584 16.7373 13.1584C17.5884 13.1584 18.3623 12.4394 18.3623 11.245C18.3623 10.0506 17.5884 9.33154 16.7373 9.33154Z" fill="#422B0D"/>
<path d="M16.6582 10.1298C16.449 9.98359 16.1342 10.0303 15.9311 10.3228C15.7279 10.6173 15.795 10.9261 16.0042 11.0723C16.2134 11.2186 16.5282 11.1719 16.7314 10.8794C16.9365 10.5848 16.8675 10.2761 16.6582 10.1298Z" fill="#896024"/>
<defs>
<radialGradient id="paint0_radial_146_616" cx="0" cy="0" r="1" gradientUnits="userSpaceOnUse" gradientTransform="translate(12.9189 12.7766) scale(11.57 11.57)">
<stop offset="0.5" stop-color="#FDE030"/>
<stop offset="0.919" stop-color="#F7C02B"/>
<stop offset="1" stop-color="#F4A223"/>
</radialGradient>
<radialGradient id="paint1_radial_146_616" cx="0" cy="0" r="1" gradientUnits="userSpaceOnUse" gradientTransform="translate(12.9189 12.7766) scale(11.57 11.57)">
<stop offset="0.123" stop-color="#F4A223"/>
<stop offset="0.356" stop-color="#F49F22"/>
<stop offset="0.539" stop-color="#F6951D"/>
<stop offset="0.705" stop-color="#F88416"/>
<stop offset="0.861" stop-color="#FB6D0C"/>
<stop offset="1" stop-color="#FF5100"/>
</radialGradient>
<linearGradient id="paint2_linear_146_616" x1="12.9189" y1="24.1313" x2="12.9189" y2="1.42188" gradientUnits="userSpaceOnUse">
<stop stop-color="#F4A223"/>
<stop offset="0.083" stop-color="#F4A223" stop-opacity="0.905"/>
<stop offset="0.877" stop-color="#F4A223" stop-opacity="0"/>
</linearGradient>
<radialGradient id="paint3_radial_146_616" cx="0" cy="0" r="1" gradientUnits="userSpaceOnUse" gradientTransform="translate(5.53533 13.2361) scale(3.86702 3.67349)">
<stop offset="0.005" stop-color="#ED0E00"/>
<stop offset="0.145" stop-color="#ED1709" stop-opacity="0.843"/>
<stop offset="0.379" stop-color="#ED2F23" stop-opacity="0.582"/>
<stop offset="0.675" stop-color="#ED554C" stop-opacity="0.251"/>
<stop offset="0.9" stop-color="#ED7770" stop-opacity="0"/>
</radialGradient>
<radialGradient id="paint4_radial_146_616" cx="0" cy="0" r="1" gradientUnits="userSpaceOnUse" gradientTransform="translate(20.4652 13.2361) scale(3.86702 3.67349)">
<stop offset="0.005" stop-color="#ED0E00"/>
<stop offset="0.145" stop-color="#ED1709" stop-opacity="0.843"/>
<stop offset="0.379" stop-color="#ED2F23" stop-opacity="0.582"/>
<stop offset="0.675" stop-color="#ED554C" stop-opacity="0.251"/>
<stop offset="0.9" stop-color="#ED7770" stop-opacity="0"/>
</radialGradient>
<radialGradient id="paint5_radial_146_616" cx="0" cy="0" r="1" gradientUnits="userSpaceOnUse" gradientTransform="translate(4.18195 12.7848) scale(6.78458 10.4482)">
<stop offset="0.46" stop-color="#4FC3F7"/>
<stop offset="1" stop-color="#1E88E5"/>
</radialGradient>
<radialGradient id="paint6_radial_146_616" cx="0" cy="0" r="1" gradientUnits="userSpaceOnUse" gradientTransform="translate(23.0687 4.17843) scale(5.99869 9.23798)">
<stop offset="0.46" stop-color="#4FC3F7"/>
<stop offset="1" stop-color="#1E88E5"/>
</radialGradient>
</defs>
</svg>
