<svg width="24" height="24" viewBox="0 0 24 24" fill="none" xmlns="http://www.w3.org/2000/svg">
<path d="M20.5126 19.2413C20.2089 18.6863 20.597 18.1238 21.2589 17.4263C22.3089 16.3181 23.4526 13.7513 22.3914 11.1431C22.397 11.1281 22.1814 10.6894 22.1889 10.6744L21.7501 10.6519C21.6095 10.6313 16.8076 10.6219 12.0001 10.6219C7.19261 10.6219 2.39074 10.6313 2.25011 10.6519C2.25011 10.6519 1.60324 11.1281 1.60886 11.1413C0.547614 13.7494 1.69136 16.3163 2.74136 17.4244C3.40324 18.1219 3.79136 18.6863 3.48761 19.2394C3.19324 19.7775 2.31386 19.8563 2.31386 19.8563C2.31386 19.8563 2.51636 20.4075 3.00574 20.7038C3.45761 20.9775 4.01261 21.0431 4.39699 21.0525C4.39699 21.0525 5.89699 23.1281 9.81949 23.1281H14.1845C18.107 23.1281 19.607 21.0525 19.607 21.0525C19.9914 21.0431 20.5464 20.9794 20.9982 20.7038C21.4876 20.4075 21.6901 19.8563 21.6901 19.8563C21.6901 19.8563 20.8089 19.7794 20.5126 19.2413Z" fill="#9E9E9E"/>
<path d="M11.998 23.13V20.8256L18.9693 20.2744L19.603 21.0544C19.603 21.0544 18.103 23.13 14.1805 23.13H11.998Z" fill="url(#paint0_radial_153_527)"/>
<path d="M19.586 20.0494C18.5416 18.4631 20.8573 17.8725 20.8573 17.8725L20.8591 17.8744C20.456 18.375 20.2741 18.8119 20.5104 19.2412C20.8048 19.7794 21.6841 19.8581 21.6841 19.8581C21.6841 19.8581 20.4879 20.9231 19.586 20.0494Z" fill="url(#paint1_radial_153_527)"/>
<path d="M22.3964 11.1413C23.4333 13.6669 22.342 16.2675 21.3201 17.3644C21.1795 17.5144 20.5851 18.0994 20.4501 18.5644C20.4501 18.5644 18.1214 15.3188 17.4276 13.41C17.287 13.0257 17.1595 12.6282 17.1426 12.2194C17.1295 11.9119 17.1783 11.5463 17.3545 11.2857C17.572 10.965 22.2726 10.8713 22.2726 10.8713C22.2726 10.875 22.3964 11.1413 22.3964 11.1413Z" fill="url(#paint2_radial_153_527)"/>
<path d="M1.60844 11.1413C0.57344 13.6669 1.66281 16.2675 2.68469 17.3644C2.82531 17.5144 3.41969 18.0994 3.55469 18.5644C3.55469 18.5644 5.88344 15.3188 6.57719 13.41C6.71782 13.0257 6.84531 12.6282 6.86219 12.2194C6.87531 11.9119 6.82657 11.5463 6.65032 11.2857C6.43282 10.965 6.17969 11.0513 5.81219 11.0513C5.10906 11.0513 2.03406 10.8713 1.79594 10.8713C1.79594 10.875 1.60844 11.1413 1.60844 11.1413Z" fill="url(#paint3_radial_153_527)"/>
<path d="M12.0073 23.13V20.8256L5.03609 20.2744L4.40234 21.0544C4.40234 21.0544 5.90234 23.13 9.82484 23.13H12.0073Z" fill="url(#paint4_radial_153_527)"/>
<path d="M4.41941 20.0494C5.46379 18.4631 3.14816 17.8725 3.14816 17.8725L3.14629 17.8744C3.54941 18.375 3.73129 18.8119 3.49504 19.2412C3.20066 19.7794 2.32129 19.8581 2.32129 19.8581C2.32129 19.8581 3.51754 20.9231 4.41941 20.0494Z" fill="url(#paint5_radial_153_527)"/>
<path d="M18.6657 12.0694H5.33445C3.89633 12.0694 2.7207 13.3219 2.7207 14.8538C2.7207 16.3856 3.89633 17.6381 5.33445 17.6381H18.6676C20.1057 17.6381 21.2813 16.3856 21.2813 14.8538C21.2813 13.3219 20.1038 12.0694 18.6657 12.0694Z" fill="#E59600"/>
<path d="M12.0001 2.46564C7.75512 2.46564 3.82324 7.00501 3.82324 13.5394C3.82324 20.0381 7.87512 23.25 12.0001 23.25C16.1251 23.25 20.177 20.0381 20.177 13.5394C20.177 7.00689 16.2451 2.46564 12.0001 2.46564Z" fill="#FFCA28"/>
<path d="M8.05872 10.7569C7.94622 10.7569 7.84122 10.6894 7.79622 10.5787C7.78252 10.5444 7.77572 10.5077 7.77623 10.4707C7.77673 10.4337 7.78452 10.3972 7.79915 10.3633C7.81378 10.3293 7.83496 10.2986 7.86148 10.2728C7.888 10.247 7.91935 10.2268 7.95372 10.2131C8.02309 10.185 9.65997 9.54938 11.9362 9.54938C14.2106 9.54938 15.9637 10.185 16.0368 10.2112C16.1831 10.2656 16.2581 10.4269 16.2037 10.5713C16.1493 10.7156 15.9881 10.7925 15.8418 10.7381C15.825 10.7325 14.1037 10.11 11.9343 10.11C9.76309 10.11 8.17309 10.7287 8.15809 10.7344C8.12809 10.7513 8.09247 10.7569 8.05872 10.7569ZM9.19309 9.18C9.12566 9.18047 9.0603 9.15665 9.00897 9.11291C8.95764 9.06917 8.92377 9.00843 8.91353 8.94177C8.90329 8.87511 8.91738 8.807 8.95322 8.74987C8.98905 8.69274 9.04425 8.65042 9.10872 8.63062C9.16309 8.61375 10.4756 8.20312 12 8.20312C13.5243 8.20312 14.8368 8.61187 14.8931 8.63062C14.9283 8.64171 14.961 8.65961 14.9893 8.68332C15.0176 8.70703 15.0409 8.73609 15.058 8.76882C15.075 8.80155 15.0855 8.83733 15.0887 8.8741C15.092 8.91087 15.0879 8.94791 15.0768 8.98312C15.0658 9.01834 15.0479 9.05102 15.0241 9.07931C15.0004 9.1076 14.9714 9.13094 14.9386 9.14801C14.9059 9.16507 14.8701 9.17552 14.8334 9.17875C14.7966 9.18199 14.7596 9.17796 14.7243 9.16687C14.7112 9.16312 13.4381 8.76562 12.0018 8.76562C10.5618 8.76562 9.29247 9.16312 9.27934 9.16687C9.24934 9.17437 9.22122 9.18 9.19309 9.18ZM7.85809 16.9669C7.36497 16.9669 6.86997 16.8075 6.49497 16.4925C6.37684 16.3931 6.36184 16.215 6.46122 16.0969C6.56059 15.9787 6.73872 15.9637 6.85684 16.0631C7.40809 16.5281 8.30809 16.5281 8.85934 16.0631C8.97747 15.9637 9.15559 15.9787 9.25497 16.0969C9.35434 16.215 9.33934 16.3931 9.22122 16.4925C8.84622 16.8094 8.35122 16.9669 7.85809 16.9669ZM16.1418 16.9669C15.6468 16.9669 15.1537 16.8075 14.7768 16.4925C14.6587 16.3931 14.6437 16.215 14.7431 16.0969C14.8425 15.9787 15.0206 15.9637 15.1387 16.0631C15.69 16.5281 16.59 16.5281 17.1412 16.0631C17.2593 15.9637 17.4375 15.9787 17.5368 16.0969C17.6362 16.215 17.6212 16.3931 17.5031 16.4925C17.13 16.8094 16.6368 16.9669 16.1418 16.9669ZM7.61809 19.7456C7.54684 19.7456 7.47372 19.7175 7.41934 19.6631C7.39304 19.6371 7.37215 19.6062 7.3579 19.5721C7.34365 19.538 7.33631 19.5013 7.33631 19.4644C7.33631 19.4274 7.34365 19.3908 7.3579 19.3567C7.37215 19.3226 7.39304 19.2916 7.41934 19.2656L9.20622 17.4788C9.31684 17.3681 9.49309 17.3681 9.60372 17.4788C9.71434 17.5894 9.71434 17.7675 9.60372 17.8762L7.81684 19.665C7.76247 19.7194 7.68934 19.7456 7.61809 19.7456ZM16.3818 19.7456C16.3106 19.7456 16.2375 19.7175 16.1831 19.6631L14.3962 17.8762C14.2856 17.7656 14.2856 17.5875 14.3962 17.4788C14.5068 17.37 14.685 17.3681 14.7937 17.4788L16.5825 19.2675C16.6931 19.3781 16.6931 19.5562 16.5825 19.665C16.5262 19.7194 16.4531 19.7456 16.3818 19.7456Z" fill="#EDA600"/>
<path d="M12.9409 16.7982C12.9157 16.7877 12.8892 16.7808 12.8622 16.7775H11.1372C11.1109 16.7813 11.0847 16.7869 11.0584 16.7982C10.9028 16.8619 10.8165 17.0232 10.8897 17.1957C10.9647 17.3682 11.3078 17.8519 11.9997 17.8519C12.6915 17.8519 13.0347 17.3682 13.1097 17.1957C13.1828 17.0232 13.0984 16.86 12.9409 16.7982Z" fill="#E59600"/>
<path d="M14.0528 18.7538C13.2765 19.215 10.7284 19.215 9.95214 18.7538C9.50589 18.4875 9.05026 18.8944 9.23589 19.2994C9.41776 19.6969 10.8071 20.6231 12.009 20.6231C13.2109 20.6231 14.5815 19.6988 14.7653 19.2994C14.949 18.8944 14.499 18.4875 14.0528 18.7538Z" fill="#795548"/>
<path d="M7.88785 15.7594C8.55888 15.7594 9.10285 15.1961 9.10285 14.5012C9.10285 13.8064 8.55888 13.2431 7.88785 13.2431C7.21683 13.2431 6.67285 13.8064 6.67285 14.5012C6.67285 15.1961 7.21683 15.7594 7.88785 15.7594Z" fill="#404040"/>
<path d="M16.1115 15.7594C16.7825 15.7594 17.3265 15.1961 17.3265 14.5012C17.3265 13.8064 16.7825 13.2431 16.1115 13.2431C15.4405 13.2431 14.8965 13.8064 14.8965 14.5012C14.8965 15.1961 15.4405 15.7594 16.1115 15.7594Z" fill="#404040"/>
<path d="M9.64906 12.2381C9.42406 11.94 8.90094 11.505 7.88844 11.505C6.87594 11.505 6.35281 11.94 6.12781 12.2381C6.02844 12.3713 6.05281 12.5231 6.12219 12.615C6.18594 12.7013 6.37531 12.78 6.58531 12.7088C6.79531 12.6375 7.20406 12.4256 7.88844 12.4219C8.57281 12.4275 8.98344 12.6375 9.19156 12.7088C9.39969 12.78 9.59094 12.7013 9.65469 12.615C9.72406 12.5231 9.74844 12.3713 9.64906 12.2381ZM17.8728 12.2381C17.6478 11.94 17.1247 11.505 16.1122 11.505C15.0997 11.505 14.5766 11.94 14.3516 12.2381C14.2522 12.3713 14.2766 12.5231 14.3459 12.615C14.4097 12.7013 14.5991 12.78 14.8091 12.7088C15.0191 12.6375 15.4278 12.4256 16.1122 12.4219C16.7966 12.4275 17.2072 12.6375 17.4153 12.7088C17.6253 12.78 17.8147 12.7013 17.8784 12.615C17.9478 12.5231 17.9741 12.3713 17.8728 12.2381Z" fill="#9E9E9E"/>
<path d="M21.7761 5.88935C21.1798 4.98747 19.8467 3.77997 18.6486 3.70122C18.4573 2.54997 17.2236 1.57497 16.0311 1.19622C12.8042 0.174346 10.7023 1.31997 9.57547 1.93497C9.3411 2.06247 7.8261 2.90247 6.76672 2.3006C6.10297 1.92372 6.1161 0.901846 6.1161 0.901846C6.1161 0.901846 4.03672 1.6931 4.74735 3.90185C4.03297 3.93185 3.09547 4.23185 2.60047 5.23497C2.00985 6.42935 2.21985 7.42872 2.39047 7.90685C1.77547 8.4281 1.00297 9.53997 1.5336 10.9818C1.93297 12.0675 3.52672 12.5662 3.52672 12.5662C3.41422 14.52 3.77797 15.7237 3.9711 16.2093C4.00485 16.2937 4.12672 16.2862 4.14735 16.1981C4.38735 15.2306 5.21235 11.8575 5.12985 11.2687C5.12985 11.2687 7.89735 10.7193 10.5373 8.77685C11.0755 8.38122 11.6567 8.04372 12.2755 7.7981C15.5905 6.4781 16.2842 8.72997 16.2842 8.72997C16.2842 8.72997 18.5811 8.28935 19.2748 11.4806C19.5355 12.6768 19.7117 14.5912 19.8598 15.93C19.8711 16.0237 19.9986 16.0443 20.0361 15.9562C20.2686 15.4256 20.7317 14.37 20.8423 13.2956C20.8817 12.9168 21.9017 12.4162 22.3386 10.7925C22.9273 8.6231 22.2055 6.53997 21.7761 5.88935Z" fill="#9E9E9E"/>
<path d="M20.8351 13.3031C20.8745 12.9244 21.8945 12.4238 22.3313 10.8C22.3782 10.6275 22.4176 10.4513 22.4532 10.275C22.8095 8.30063 22.1701 6.48938 21.7726 5.88938C21.2213 5.05688 20.0401 3.96376 18.9188 3.74063C18.8213 3.72751 18.7257 3.71626 18.6357 3.71063C18.6357 3.71063 18.7163 4.23376 18.5045 4.65188C18.2307 5.19376 17.6738 5.32126 17.6738 5.32126C20.597 8.24438 20.3888 10.6894 20.8351 13.3031Z" fill="url(#paint6_radial_153_527)"/>
<path d="M10.2802 1.56562C10.014 1.695 9.77772 1.82437 9.57334 1.935C9.33897 2.0625 7.82397 2.9025 6.76459 2.30062C6.11209 1.92937 6.11209 0.939373 6.11397 0.903748C5.81397 1.28625 4.90647 4.02187 7.55959 4.20375C8.70334 4.2825 9.41022 3.285 9.82647 2.43937C9.97834 2.13375 10.2165 1.68562 10.2802 1.56562Z" fill="url(#paint7_radial_153_527)"/>
<path d="M15.6978 1.09686C17.4828 1.58061 18.4503 2.56123 18.6453 3.70311C18.7315 4.05936 18.8328 7.38186 12.4896 3.60561C10.1309 2.20123 10.774 1.32186 11.0515 1.22248C12.1296 0.830608 13.6971 0.554983 15.6978 1.09686Z" fill="url(#paint8_radial_153_527)"/>
<path d="M6.10649 0.903774C6.10274 0.905649 6.09899 0.907524 6.09149 0.909399H6.08962C5.86274 1.00502 4.07774 1.83002 4.74524 3.89815L6.64462 4.20377C4.96462 2.50315 6.11399 0.900024 6.11399 0.900024L6.10649 0.903774Z" fill="url(#paint9_radial_153_527)"/>
<path d="M5.91907 4.0894L4.74532 3.90002C4.70032 3.90002 4.54282 3.91502 4.45844 3.92627C3.79844 4.01815 3.01844 4.3594 2.59844 5.23502C2.14469 6.17627 2.15782 6.9844 2.27969 7.5244C2.31532 7.70627 2.38844 7.90877 2.38844 7.90877C2.38844 7.90877 2.96969 7.35752 4.35157 7.3219L5.91907 4.0894Z" fill="url(#paint10_radial_153_527)"/>
<path d="M2.33241 7.95374C1.75491 8.46749 0.97491 9.61124 1.55054 11.0287C1.98366 12.0994 3.52491 12.5644 3.52491 12.5644C3.52491 12.57 3.83241 12.66 3.99179 12.66L4.35179 7.31812C3.61304 7.31812 2.90429 7.53937 2.44491 7.85812C2.44866 7.86937 2.33054 7.94624 2.33241 7.95374Z" fill="url(#paint11_radial_153_527)"/>
<defs>
<radialGradient id="paint0_radial_153_527" cx="0" cy="0" r="1" gradientUnits="userSpaceOnUse" gradientTransform="translate(15.5574 19.8029) scale(5.71294 2.8062)">
<stop offset="0.699" stop-color="#D1D1D1" stop-opacity="0"/>
<stop offset="1" stop-color="#D1D1D1"/>
</radialGradient>
<radialGradient id="paint1_radial_153_527" cx="0" cy="0" r="1" gradientUnits="userSpaceOnUse" gradientTransform="translate(21.1841 18.953) rotate(154.924) scale(1.68816 1.25238)">
<stop offset="0.584" stop-color="#D1D1D1"/>
<stop offset="1" stop-color="#D1D1D1" stop-opacity="0"/>
</radialGradient>
<radialGradient id="paint2_radial_153_527" cx="0" cy="0" r="1" gradientUnits="userSpaceOnUse" gradientTransform="translate(16.8086 14.1778) rotate(-94.2783) scale(7.41553 6.18036)">
<stop offset="0.699" stop-color="#D1D1D1" stop-opacity="0"/>
<stop offset="1" stop-color="#D1D1D1"/>
</radialGradient>
<radialGradient id="paint3_radial_153_527" cx="0" cy="0" r="1" gradientUnits="userSpaceOnUse" gradientTransform="translate(7.19615 14.1777) rotate(-85.7217) scale(7.41553 6.18036)">
<stop offset="0.699" stop-color="#D1D1D1" stop-opacity="0"/>
<stop offset="1" stop-color="#D1D1D1"/>
</radialGradient>
<radialGradient id="paint4_radial_153_527" cx="0" cy="0" r="1" gradientUnits="userSpaceOnUse" gradientTransform="translate(8.44784 19.8029) rotate(180) scale(5.71294 2.8062)">
<stop offset="0.699" stop-color="#D1D1D1" stop-opacity="0"/>
<stop offset="1" stop-color="#D1D1D1"/>
</radialGradient>
<radialGradient id="paint5_radial_153_527" cx="0" cy="0" r="1" gradientUnits="userSpaceOnUse" gradientTransform="translate(2.82147 18.9531) rotate(25.0761) scale(1.68816 1.25238)">
<stop offset="0.584" stop-color="#D1D1D1"/>
<stop offset="1" stop-color="#D1D1D1" stop-opacity="0"/>
</radialGradient>
<radialGradient id="paint6_radial_153_527" cx="0" cy="0" r="1" gradientUnits="userSpaceOnUse" gradientTransform="translate(16.3954 10.2652) rotate(72.0851) scale(8.69218 6.44939)">
<stop offset="0.699" stop-color="#D1D1D1" stop-opacity="0"/>
<stop offset="1" stop-color="#D1D1D1"/>
</radialGradient>
<radialGradient id="paint7_radial_153_527" cx="0" cy="0" r="1" gradientUnits="userSpaceOnUse" gradientTransform="translate(7.921 0.787901) rotate(28.2026) scale(2.27911 2.70236)">
<stop offset="0.584" stop-color="#D1D1D1"/>
<stop offset="1" stop-color="#D1D1D1" stop-opacity="0"/>
</radialGradient>
<radialGradient id="paint8_radial_153_527" cx="0" cy="0" r="1" gradientUnits="userSpaceOnUse" gradientTransform="translate(13.0152 4.92686) rotate(-157.19) scale(7.12737 4.00561)">
<stop offset="0.699" stop-color="#D1D1D1" stop-opacity="0"/>
<stop offset="1" stop-color="#D1D1D1"/>
</radialGradient>
<radialGradient id="paint9_radial_153_527" cx="0" cy="0" r="1" gradientUnits="userSpaceOnUse" gradientTransform="translate(7.00593 2.86711) scale(2.09194 2.55907)">
<stop offset="0.699" stop-color="#D1D1D1" stop-opacity="0"/>
<stop offset="1" stop-color="#D1D1D1"/>
</radialGradient>
<radialGradient id="paint10_radial_153_527" cx="0" cy="0" r="1" gradientUnits="userSpaceOnUse" gradientTransform="translate(6.71801 6.55946) rotate(-164.942) scale(3.92358 3.67176)">
<stop offset="0.699" stop-color="#D1D1D1" stop-opacity="0"/>
<stop offset="1" stop-color="#D1D1D1"/>
</radialGradient>
<radialGradient id="paint11_radial_153_527" cx="0" cy="0" r="1" gradientUnits="userSpaceOnUse" gradientTransform="translate(5.78791 10.3478) rotate(7.83355) scale(4.11932 5.78832)">
<stop offset="0.699" stop-color="#D1D1D1" stop-opacity="0"/>
<stop offset="1" stop-color="#D1D1D1"/>
</radialGradient>
</defs>
</svg>
