<svg width="24" height="24" viewBox="0 0 24 24" fill="none" xmlns="http://www.w3.org/2000/svg">
<path d="M19.0032 12.8681H4.99695C3.48758 12.8681 2.25195 14.0569 2.25195 15.5119C2.25195 16.965 3.48758 18.1556 4.99695 18.1556H19.0032C20.5126 18.1556 21.7482 16.9669 21.7482 15.5119C21.7501 14.0569 20.5145 12.8681 19.0032 12.8681Z" fill="#E59600"/>
<path d="M19.455 6.14628C17.6531 3.40503 15.33 2.46753 11.955 2.46753C8.57997 2.46753 6.25684 3.40315 4.45497 6.14628C3.13497 8.15628 2.81622 11.3157 3.22309 14.5707C3.61497 17.7 3.93934 19.4175 5.88184 21.1707C7.56934 22.6932 9.86059 23.0213 11.8256 23.0213H12.0843C14.0493 23.0213 16.3425 22.6932 18.0281 21.1707C19.9706 19.4175 20.295 17.7 20.6868 14.5707C21.0937 11.3157 20.775 8.1544 19.455 6.14628Z" fill="#FFCA28"/>
<path d="M14.7466 6.44624C14.7729 6.41812 14.7991 6.39187 14.8254 6.36374C14.8441 6.34312 14.8629 6.32062 14.8816 6.29999C14.9247 6.24937 14.966 6.19874 15.0054 6.14624L15.0222 6.12374C15.0597 6.07312 15.0935 6.02062 15.1272 5.96624C15.1366 5.95124 15.146 5.93437 15.1554 5.91937C15.1872 5.86499 15.2191 5.81062 15.2491 5.75249C15.2547 5.74312 15.2585 5.73562 15.2622 5.72624C15.3335 5.58562 15.3954 5.43374 15.446 5.27437L15.4516 5.25749C15.5547 4.92562 15.6147 4.55624 15.6147 4.13999C15.6147 3.30749 15.3147 2.64937 14.8572 2.15249C14.8516 2.14687 14.8479 2.14312 14.8441 2.13749C14.8085 2.09999 14.771 2.06249 14.7335 2.02499L14.711 2.00249C14.6674 1.96096 14.6223 1.92093 14.576 1.88249C14.5385 1.85062 14.501 1.82062 14.4635 1.79062C14.4541 1.78312 14.4447 1.77749 14.4372 1.76999L14.3135 1.67999C14.306 1.67624 14.3004 1.67062 14.2929 1.66687C14.1429 1.56562 13.9872 1.47562 13.826 1.39874C13.8204 1.39499 13.8129 1.39312 13.8072 1.38937C13.7604 1.36687 13.7135 1.34624 13.6666 1.32562L13.6235 1.30687C13.5822 1.28999 13.541 1.27312 13.4997 1.25812C13.4847 1.25249 13.4679 1.24687 13.4529 1.24124C13.4135 1.22624 13.3741 1.21312 13.3366 1.19999L13.286 1.18312C13.2466 1.16999 13.2091 1.15874 13.1697 1.14749C13.1529 1.14187 13.136 1.13812 13.1172 1.13249C13.0779 1.12124 13.0385 1.11187 12.9991 1.10249L12.9504 1.09124C12.9072 1.08187 12.8641 1.07249 12.8229 1.06312C12.8097 1.06124 12.7966 1.05749 12.7835 1.05562C12.6729 1.03124 12.5622 1.01437 12.4516 1.00124C12.4366 0.999368 12.4216 0.999368 12.4066 0.997493C12.3672 0.993743 12.3297 0.989993 12.2904 0.988118C12.2679 0.986243 12.2472 0.986243 12.2247 0.984368C12.1929 0.982493 12.1629 0.980618 12.1329 0.980618C12.1085 0.980618 12.0841 0.978743 12.0579 0.978743C12.041 0.978743 12.0241 0.976868 12.0091 0.976868H11.9904C11.9097 0.976868 11.8291 0.980618 11.7504 0.986243C11.7354 0.988118 11.7204 0.988118 11.7054 0.989993C11.6247 0.997493 11.546 1.00499 11.471 1.01812C10.5504 1.16812 9.80598 1.65187 9.34098 2.12437C9.0616 2.40749 8.88348 2.68687 8.8291 2.88749H8.83098C9.42723 2.73562 10.1979 2.60249 11.0566 2.55749C12.2191 2.47687 13.1904 3.13874 13.1435 4.15499C13.1379 4.27687 13.1229 4.39124 13.1022 4.49812L13.0966 4.52999C13.0872 4.57124 13.076 4.61249 13.0647 4.65187C13.0591 4.67062 13.0535 4.68937 13.0497 4.70624C13.0385 4.73999 13.0272 4.77374 13.0141 4.80749C13.0066 4.82812 12.9972 4.84874 12.9879 4.86937C12.9747 4.89937 12.9616 4.92749 12.9485 4.95374C12.9372 4.97624 12.926 4.99687 12.9129 5.01749C12.8997 5.04187 12.8847 5.06624 12.8697 5.08874C12.8547 5.11124 12.8379 5.13374 12.8229 5.15624C12.8097 5.17499 12.7966 5.19374 12.7816 5.21249C12.7572 5.24249 12.731 5.27062 12.7047 5.29687C12.6972 5.30437 12.6897 5.31374 12.6822 5.32124C12.6466 5.35687 12.6091 5.38874 12.5697 5.42062C12.5622 5.42624 12.5529 5.43187 12.5454 5.43749C12.5135 5.46239 12.4803 5.48555 12.446 5.50687C12.4347 5.51249 12.4254 5.51999 12.4141 5.52562C12.3804 5.54624 12.3466 5.56499 12.3129 5.58187C12.3016 5.58749 12.2922 5.59312 12.281 5.59687C12.2454 5.61374 12.2079 5.63062 12.1685 5.64562C12.161 5.64937 12.1516 5.65312 12.1422 5.65499C12.0991 5.67187 12.056 5.68687 12.011 5.69999C12.0072 5.70187 12.0035 5.70187 11.9997 5.70374C11.7972 5.76374 11.5797 5.78999 11.3585 5.78999C10.691 5.78999 9.9991 5.54249 9.6016 5.18812C9.56875 5.15822 9.52601 5.14153 9.4816 5.14124C9.47223 5.14124 9.46285 5.14499 9.45535 5.14687C9.44785 5.14874 9.43848 5.14874 9.43098 5.15249C9.41973 5.15624 9.40848 5.15999 9.39723 5.16562C9.37848 5.17499 9.36348 5.18624 9.34848 5.19937C9.34473 5.20312 9.34285 5.20687 9.3391 5.21062C9.32598 5.22562 9.31473 5.24437 9.30535 5.26312C9.30348 5.26687 9.30348 5.26874 9.3016 5.27249C9.29223 5.29687 9.2866 5.32499 9.29035 5.35499C9.3466 5.92124 9.70285 6.62999 10.5504 7.16249C11.3566 7.67062 13.0535 7.67624 14.261 6.84937L14.2947 6.82687C14.3304 6.80062 14.3679 6.77437 14.4035 6.74812C14.4185 6.73687 14.4354 6.72374 14.4504 6.71062C14.5029 6.66937 14.5535 6.62624 14.6022 6.58124L14.6754 6.51374C14.7016 6.49312 14.7241 6.46874 14.7466 6.44624Z" fill="#543930"/>
<path d="M14.7466 6.44624C14.7729 6.41812 14.7991 6.39187 14.8254 6.36374C14.8441 6.34312 14.8629 6.32062 14.8816 6.29999C14.9247 6.24937 14.966 6.19874 15.0054 6.14624L15.0222 6.12374C15.0597 6.07312 15.0935 6.02062 15.1272 5.96624C15.1366 5.95124 15.146 5.93437 15.1554 5.91937C15.1872 5.86499 15.2191 5.81062 15.2491 5.75249C15.2547 5.74312 15.2585 5.73562 15.2622 5.72624C15.3335 5.58562 15.3954 5.43374 15.446 5.27437L15.4516 5.25749C15.5547 4.92562 15.6147 4.55624 15.6147 4.13999C15.6147 3.30749 15.3147 2.64937 14.8572 2.15249C14.8516 2.14687 14.8479 2.14312 14.8441 2.13749C14.8085 2.09999 14.771 2.06249 14.7335 2.02499L14.711 2.00249C14.6674 1.96096 14.6223 1.92093 14.576 1.88249C14.5385 1.85062 14.501 1.82062 14.4635 1.79062C14.4541 1.78312 14.4447 1.77749 14.4372 1.76999L14.3135 1.67999C14.306 1.67624 14.3004 1.67062 14.2929 1.66687C14.1429 1.56562 13.9872 1.47562 13.826 1.39874C13.8204 1.39499 13.8129 1.39312 13.8072 1.38937C13.7604 1.36687 13.7135 1.34624 13.6666 1.32562L13.6235 1.30687C13.5822 1.28999 13.541 1.27312 13.4997 1.25812C13.4847 1.25249 13.4679 1.24687 13.4529 1.24124C13.4135 1.22624 13.3741 1.21312 13.3366 1.19999L13.286 1.18312C13.2466 1.16999 13.2091 1.15874 13.1697 1.14749C13.1529 1.14187 13.136 1.13812 13.1172 1.13249C13.0779 1.12124 13.0385 1.11187 12.9991 1.10249L12.9504 1.09124C12.9072 1.08187 12.8641 1.07249 12.8229 1.06312C12.8097 1.06124 12.7966 1.05749 12.7835 1.05562C12.6729 1.03124 12.5622 1.01437 12.4516 1.00124C12.4366 0.999368 12.4216 0.999368 12.4066 0.997493C12.3672 0.993743 12.3297 0.989993 12.2904 0.988118C12.2679 0.986243 12.2472 0.986243 12.2247 0.984368C12.1929 0.982493 12.1629 0.980618 12.1329 0.980618C12.1085 0.980618 12.0841 0.978743 12.0579 0.978743C12.041 0.978743 12.0241 0.976868 12.0091 0.976868H11.9904C11.9097 0.976868 11.8291 0.980618 11.7504 0.986243C11.7354 0.988118 11.7204 0.988118 11.7054 0.989993C11.6247 0.997493 11.546 1.00499 11.471 1.01812C10.5504 1.16812 9.80598 1.65187 9.34098 2.12437C9.0616 2.40749 8.88348 2.68687 8.8291 2.88749H8.83098C9.42723 2.73562 10.1979 2.60249 11.0566 2.55749C12.2191 2.47687 13.1904 3.13874 13.1435 4.15499C13.1379 4.27687 13.1229 4.39124 13.1022 4.49812L13.0966 4.52999C13.0872 4.57124 13.076 4.61249 13.0647 4.65187C13.0591 4.67062 13.0535 4.68937 13.0497 4.70624C13.0385 4.73999 13.0272 4.77374 13.0141 4.80749C13.0066 4.82812 12.9972 4.84874 12.9879 4.86937C12.9747 4.89937 12.9616 4.92749 12.9485 4.95374C12.9372 4.97624 12.926 4.99687 12.9129 5.01749C12.8997 5.04187 12.8847 5.06624 12.8697 5.08874C12.8547 5.11124 12.8379 5.13374 12.8229 5.15624C12.8097 5.17499 12.7966 5.19374 12.7816 5.21249C12.7572 5.24249 12.731 5.27062 12.7047 5.29687C12.6972 5.30437 12.6897 5.31374 12.6822 5.32124C12.6466 5.35687 12.6091 5.38874 12.5697 5.42062C12.5622 5.42624 12.5529 5.43187 12.5454 5.43749C12.5135 5.46239 12.4803 5.48555 12.446 5.50687C12.4347 5.51249 12.4254 5.51999 12.4141 5.52562C12.3804 5.54624 12.3466 5.56499 12.3129 5.58187C12.3016 5.58749 12.2922 5.59312 12.281 5.59687C12.2454 5.61374 12.2079 5.63062 12.1685 5.64562C12.161 5.64937 12.1516 5.65312 12.1422 5.65499C12.0991 5.67187 12.056 5.68687 12.011 5.69999C12.0072 5.70187 12.0035 5.70187 11.9997 5.70374C11.7972 5.76374 11.5797 5.78999 11.3585 5.78999C10.691 5.78999 9.9991 5.54249 9.6016 5.18812C9.56875 5.15822 9.52601 5.14153 9.4816 5.14124C9.47223 5.14124 9.46285 5.14499 9.45535 5.14687C9.44785 5.14874 9.43848 5.14874 9.43098 5.15249C9.41973 5.15624 9.40848 5.15999 9.39723 5.16562C9.37848 5.17499 9.36348 5.18624 9.34848 5.19937C9.34473 5.20312 9.34285 5.20687 9.3391 5.21062C9.32598 5.22562 9.31473 5.24437 9.30535 5.26312C9.30348 5.26687 9.30348 5.26874 9.3016 5.27249C9.29223 5.29687 9.2866 5.32499 9.29035 5.35499C9.3466 5.92124 9.70285 6.62999 10.5504 7.16249C11.3566 7.67062 13.0535 7.67624 14.261 6.84937L14.2947 6.82687C14.3304 6.80062 14.3679 6.77437 14.4035 6.74812C14.4185 6.73687 14.4354 6.72374 14.4504 6.71062C14.5029 6.66937 14.5535 6.62624 14.6022 6.58124L14.6754 6.51374C14.7016 6.49312 14.7241 6.46874 14.7466 6.44624Z" fill="url(#paint0_radial_153_439)"/>
<path d="M12.9769 15.5081C12.9517 15.4977 12.9253 15.4908 12.8982 15.4875H11.1544C11.1282 15.4912 11.1019 15.4969 11.0757 15.5081C10.9182 15.5719 10.8301 15.7369 10.9051 15.9094C10.9801 16.0837 11.3269 16.5731 12.0263 16.5731C12.7257 16.5731 13.0726 16.0837 13.1476 15.9094C13.2207 15.735 13.1344 15.5719 12.9769 15.5081Z" fill="#E59600"/>
<path d="M7.92594 15.6806C8.59696 15.6806 9.14094 15.1173 9.14094 14.4225C9.14094 13.7276 8.59696 13.1644 7.92594 13.1644C7.25491 13.1644 6.71094 13.7276 6.71094 14.4225C6.71094 15.1173 7.25491 15.6806 7.92594 15.6806Z" fill="#404040"/>
<path d="M16.1232 15.6806C16.7942 15.6806 17.3382 15.1173 17.3382 14.4225C17.3382 13.7276 16.7942 13.1644 16.1232 13.1644C15.4522 13.1644 14.9082 13.7276 14.9082 14.4225C14.9082 15.1173 15.4522 15.6806 16.1232 15.6806Z" fill="#404040"/>
<path d="M13.7738 18.12C13.0988 18.5213 10.8863 18.5213 10.2132 18.12C9.82504 17.8894 9.42941 18.2419 9.59066 18.5944C9.74816 18.9413 10.9557 19.7438 12 19.7438C13.0425 19.7438 14.235 18.9413 14.3925 18.5944C14.5519 18.2419 14.16 17.8894 13.7738 18.12Z" fill="#795548"/>
<defs>
<radialGradient id="paint0_radial_153_439" cx="0" cy="0" r="1" gradientUnits="userSpaceOnUse" gradientTransform="translate(11.8925 7.51818) scale(6.66281)">
<stop offset="0.699" stop-color="#6D4C41" stop-opacity="0"/>
<stop offset="1" stop-color="#6D4C41"/>
</radialGradient>
</defs>
</svg>
