<svg width="12" height="12" viewBox="0 0 12 12" fill="none" xmlns="http://www.w3.org/2000/svg">
<path d="M9.34318 4.78326C9.09381 3.34608 8.48631 2.9017 7.95006 2.50983C7.58162 2.24076 7.26287 2.00826 7.10256 1.49826C6.931 0.954514 7.36506 0.388264 7.36975 0.382639C7.38193 0.367639 7.38287 0.346076 7.37256 0.329201C7.36774 0.320933 7.36043 0.314398 7.35167 0.310527C7.34292 0.306655 7.33317 0.305644 7.32381 0.307639C7.28725 0.314201 7.24037 0.320764 7.18506 0.327326C6.61318 0.403264 5.09537 0.602951 4.696 2.63826C4.6435 2.90639 4.48131 3.12389 4.31162 3.15483C4.20287 3.17451 4.10068 3.11451 4.01818 2.98045C3.69006 2.44795 4.37912 1.55076 4.38662 1.54139C4.39881 1.52639 4.39975 1.50483 4.38943 1.48795C4.38446 1.47983 4.37713 1.47342 4.36842 1.46957C4.35971 1.46571 4.35004 1.46461 4.34068 1.46639C4.321 1.47014 2.40006 1.87045 1.62006 3.83451C1.38287 4.4317 0.718183 6.51951 2.11506 8.31201C3.51568 10.1092 4.366 10.232 4.38475 10.2423C4.39131 10.247 9.82693 8.28389 9.34318 4.78326Z" fill="url(#paint0_radial_355_189)"/>
<path opacity="0.8" d="M6.63284 3.45846C6.26065 2.73471 5.6569 1.21689 7.2469 0.387207C6.05159 0.601895 5.17315 1.45221 5.2444 2.88752C5.29034 3.82314 5.81627 4.65752 6.06096 5.56127C6.39002 6.78283 6.14159 7.54596 5.99815 8.12252C8.03815 6.78377 7.11002 4.38471 6.63284 3.45846Z" fill="url(#paint1_linear_355_189)"/>
<path d="M8.18526 3.85205C6.62433 3.85205 6.05151 5.44674 6.05151 5.44674C6.05151 5.44674 5.64089 3.85205 3.91401 3.85205C2.73276 3.85205 1.38651 4.78768 1.88433 6.9158C2.38214 9.04299 6.05526 11.6942 6.05526 11.6942C6.05526 11.6942 9.7162 9.04393 10.214 6.91674C10.7118 4.78768 9.4612 3.85205 8.18526 3.85205Z" fill="url(#paint2_radial_355_189)"/>
<path d="M2.70465 4.98192C2.97183 4.64817 3.44902 4.37348 3.85308 4.69036C4.07152 4.86192 3.9759 5.21442 3.7809 5.36254C3.4959 5.57911 3.24746 5.70942 3.07496 6.04879C2.9709 6.25317 2.90808 6.47536 2.87621 6.70317C2.86402 6.79317 2.7459 6.81473 2.70183 6.73598C2.39996 6.20161 2.31465 5.46848 2.70465 4.98192ZM6.98715 5.68223C6.86152 5.68223 6.7734 5.56129 6.81933 5.44411C6.90465 5.22942 7.0134 5.02036 7.14558 4.83567C7.34058 4.56192 7.71183 4.40254 7.94715 4.56848C8.18808 4.73817 8.15715 5.07754 7.98746 5.24067C7.62371 5.59223 7.16715 5.68223 6.98715 5.68223Z" fill="#FF7043"/>
<path d="M5.86505 11.552C4.73068 11.4011 4.1963 11.087 3.80349 10.2676C3.60287 9.84857 3.60193 9.13232 3.59443 8.68889C3.58599 8.19764 3.43787 7.77295 3.43787 7.77295C3.73412 7.82545 4.2713 8.34576 4.5188 9.30764C4.94912 10.9773 5.86505 11.552 5.86505 11.552Z" fill="url(#paint3_linear_355_189)"/>
<path d="M9.82687 7.7727C9.82687 7.7727 10.6791 7.28051 10.89 6.09551C11.0278 5.32207 10.8637 4.54957 10.1222 3.79113C9.85875 3.52113 8.99719 2.86395 9.32812 1.73145C9.32812 1.73145 8.51812 2.41863 8.79281 3.65801C9.10219 5.05395 10.4194 5.53301 9.82687 7.7727Z" fill="url(#paint4_linear_355_189)"/>
<path d="M9.1763 6.1875C9.40411 6.26812 10.3266 7.70531 9.4688 9.21469C8.70567 10.5572 7.21411 10.7653 7.21411 10.7653C7.21411 10.7653 8.39161 9.58594 8.85192 8.46656C9.26817 7.45687 9.1763 6.1875 9.1763 6.1875Z" fill="url(#paint5_linear_355_189)"/>
<defs>
<radialGradient id="paint0_radial_355_189" cx="0" cy="0" r="1" gradientUnits="userSpaceOnUse" gradientTransform="translate(5.26346 7.90433) scale(8.19984 8.3376)">
<stop offset="0.39" stop-color="#FFD600"/>
<stop offset="0.69" stop-color="#FF9800"/>
<stop offset="1" stop-color="#F44336"/>
</radialGradient>
<linearGradient id="paint1_linear_355_189" x1="6.22277" y1="5.17286" x2="6.36227" y2="0.742614" gradientUnits="userSpaceOnUse">
<stop offset="0.165" stop-color="#FFEB3B"/>
<stop offset="1" stop-color="#FFD600"/>
</linearGradient>
<radialGradient id="paint2_radial_355_189" cx="0" cy="0" r="1" gradientUnits="userSpaceOnUse" gradientTransform="translate(6.05189 11.1666) scale(9.41578)">
<stop offset="0.119" stop-color="#FF6D00"/>
<stop offset="0.485" stop-color="#F44336"/>
<stop offset="0.814" stop-color="#B71C1C"/>
</radialGradient>
<linearGradient id="paint3_linear_355_189" x1="4.20446" y1="9.01148" x2="5.59983" y2="13.2498" gradientUnits="userSpaceOnUse">
<stop offset="0.076" stop-color="#FFEB3B"/>
<stop offset="1" stop-color="#FFD600" stop-opacity="0"/>
</linearGradient>
<linearGradient id="paint4_linear_355_189" x1="8.88009" y1="4.35663" x2="11.307" y2="5.73195" gradientUnits="userSpaceOnUse">
<stop stop-color="#FFD600"/>
<stop offset="1" stop-color="#FFD600" stop-opacity="0"/>
</linearGradient>
<linearGradient id="paint5_linear_355_189" x1="8.21752" y1="6.12694" x2="8.89767" y2="13.156" gradientUnits="userSpaceOnUse">
<stop offset="0.187" stop-color="#FFEB3B"/>
<stop offset="0.934" stop-color="#FFD600" stop-opacity="0"/>
</linearGradient>
</defs>
</svg>
