<svg width="168" height="43" viewBox="0 0 168 43" fill="none" xmlns="http://www.w3.org/2000/svg">
<g filter="url(#filter0_d_153_598)">
<path d="M22.9748 5.92V11.4H11.5348V17.32H20.0948V22.64H11.5348V34H4.69484V5.92H22.9748ZM29.4178 11.824C28.3378 11.824 27.4498 11.512 26.7538 10.888C26.0818 10.24 25.7458 9.448 25.7458 8.512C25.7458 7.552 26.0818 6.76 26.7538 6.136C27.4498 5.488 28.3378 5.164 29.4178 5.164C30.4738 5.164 31.3378 5.488 32.0098 6.136C32.7058 6.76 33.0538 7.552 33.0538 8.512C33.0538 9.448 32.7058 10.24 32.0098 10.888C31.3378 11.512 30.4738 11.824 29.4178 11.824ZM32.4778 13.912V34H26.3218V13.912H32.4778ZM48.135 28.78V34H45.003C42.771 34 41.031 33.46 39.783 32.38C38.535 31.276 37.911 29.488 37.911 27.016V19.024H35.463V13.912H37.911V9.016H44.067V13.912H48.099V19.024H44.067V27.088C44.067 27.688 44.211 28.12 44.499 28.384C44.787 28.648 45.267 28.78 45.939 28.78H48.135ZM63.804 13.696C66.156 13.696 68.028 14.464 69.42 16C70.836 17.512 71.544 19.6 71.544 22.264V34H65.424V23.092C65.424 21.748 65.076 20.704 64.38 19.96C63.684 19.216 62.748 18.844 61.572 18.844C60.396 18.844 59.46 19.216 58.764 19.96C58.068 20.704 57.72 21.748 57.72 23.092V34H51.564V13.912H57.72V16.576C58.344 15.688 59.184 14.992 60.24 14.488C61.296 13.96 62.484 13.696 63.804 13.696ZM94.7578 23.632C94.7578 24.208 94.7218 24.808 94.6498 25.432H80.7178C80.8138 26.68 81.2098 27.64 81.9058 28.312C82.6258 28.96 83.5018 29.284 84.5338 29.284C86.0698 29.284 87.1378 28.636 87.7378 27.34H94.2898C93.9538 28.66 93.3418 29.848 92.4538 30.904C91.5898 31.96 90.4978 32.788 89.1778 33.388C87.8578 33.988 86.3818 34.288 84.7498 34.288C82.7818 34.288 81.0298 33.868 79.4938 33.028C77.9578 32.188 76.7578 30.988 75.8938 29.428C75.0298 27.868 74.5978 26.044 74.5978 23.956C74.5978 21.868 75.0178 20.044 75.8578 18.484C76.7218 16.924 77.9218 15.724 79.4578 14.884C80.9938 14.044 82.7578 13.624 84.7498 13.624C86.6938 13.624 88.4218 14.032 89.9338 14.848C91.4458 15.664 92.6218 16.828 93.4618 18.34C94.3258 19.852 94.7578 21.616 94.7578 23.632ZM88.4578 22.012C88.4578 20.956 88.0978 20.116 87.3778 19.492C86.6578 18.868 85.7578 18.556 84.6778 18.556C83.6458 18.556 82.7698 18.856 82.0498 19.456C81.3538 20.056 80.9218 20.908 80.7538 22.012H88.4578ZM106.177 34.288C104.425 34.288 102.865 33.988 101.497 33.388C100.129 32.788 99.0494 31.972 98.2574 30.94C97.4654 29.884 97.0214 28.708 96.9254 27.412H103.009C103.081 28.108 103.405 28.672 103.981 29.104C104.557 29.536 105.265 29.752 106.105 29.752C106.873 29.752 107.461 29.608 107.869 29.32C108.301 29.008 108.517 28.612 108.517 28.132C108.517 27.556 108.217 27.136 107.617 26.872C107.017 26.584 106.045 26.272 104.701 25.936C103.261 25.6 102.061 25.252 101.101 24.892C100.141 24.508 99.3134 23.92 98.6174 23.128C97.9214 22.312 97.5734 21.22 97.5734 19.852C97.5734 18.7 97.8854 17.656 98.5094 16.72C99.1574 15.76 100.093 15.004 101.317 14.452C102.565 13.9 104.041 13.624 105.745 13.624C108.265 13.624 110.245 14.248 111.685 15.496C113.149 16.744 113.989 18.4 114.205 20.464H108.517C108.421 19.768 108.109 19.216 107.581 18.808C107.077 18.4 106.405 18.196 105.565 18.196C104.845 18.196 104.293 18.34 103.909 18.628C103.525 18.892 103.333 19.264 103.333 19.744C103.333 20.32 103.633 20.752 104.233 21.04C104.857 21.328 105.817 21.616 107.113 21.904C108.601 22.288 109.813 22.672 110.749 23.056C111.685 23.416 112.501 24.016 113.197 24.856C113.917 25.672 114.289 26.776 114.313 28.168C114.313 29.344 113.977 30.4 113.305 31.336C112.657 32.248 111.709 32.968 110.461 33.496C109.237 34.024 107.809 34.288 106.177 34.288ZM129.276 28.78V34H126.144C123.912 34 122.172 33.46 120.924 32.38C119.676 31.276 119.052 29.488 119.052 27.016V19.024H116.604V13.912H119.052V9.016H125.208V13.912H129.24V19.024H125.208V27.088C125.208 27.688 125.352 28.12 125.64 28.384C125.928 28.648 126.408 28.78 127.08 28.78H129.276Z" fill="black"/>
<path d="M154.089 34L147.225 23.68L141.177 34H131.865L142.665 16.864L131.625 0.303999H141.177L147.945 10.48L153.897 0.303999H163.209L152.505 17.296L163.641 34H154.089Z" fill="url(#paint0_linear_153_598)"/>
</g>
<defs>
<filter id="filter0_d_153_598" x="0.695312" y="0.303955" width="166.945" height="41.984" filterUnits="userSpaceOnUse" color-interpolation-filters="sRGB">
<feFlood flood-opacity="0" result="BackgroundImageFix"/>
<feColorMatrix in="SourceAlpha" type="matrix" values="0 0 0 0 0 0 0 0 0 0 0 0 0 0 0 0 0 0 127 0" result="hardAlpha"/>
<feOffset dy="4"/>
<feGaussianBlur stdDeviation="2"/>
<feComposite in2="hardAlpha" operator="out"/>
<feColorMatrix type="matrix" values="0 0 0 0 0 0 0 0 0 0 0 0 0 0 0 0 0 0 0.25 0"/>
<feBlend mode="normal" in2="BackgroundImageFix" result="effect1_dropShadow_153_598"/>
<feBlend mode="normal" in="SourceGraphic" in2="effect1_dropShadow_153_598" result="shape"/>
</filter>
<linearGradient id="paint0_linear_153_598" x1="2" y1="-19" x2="134.5" y2="53" gradientUnits="userSpaceOnUse">
<stop/>
<stop offset="1" stop-color="#978A8A"/>
</linearGradient>
</defs>
</svg>
