<svg width="22" height="20" viewBox="0 0 22 20" fill="none" xmlns="http://www.w3.org/2000/svg">
<path d="M17 9.99988H16.199C15.369 9.99988 14.954 9.99988 14.61 10.1949C14.266 10.3889 14.053 10.7449 13.626 11.4559L13.596 11.5079C13.198 12.1709 12.999 12.5019 12.71 12.4969C12.421 12.4919 12.234 12.1529 11.861 11.4749L10.174 8.40788C9.827 7.77588 9.654 7.45988 9.376 7.44488C9.099 7.42988 8.892 7.72488 8.479 8.31488L8.196 8.71988C7.756 9.34688 7.537 9.65988 7.212 9.82988C6.886 9.99988 6.503 9.99988 5.738 9.99988H5" stroke="#D9D9D9" stroke-width="1.5" stroke-linecap="round"/>
<path d="M11 3.49992L10.45 4.00992C10.5202 4.08565 10.6053 4.14607 10.6999 4.18738C10.7946 4.2287 10.8967 4.25002 11 4.25002C11.1033 4.25002 11.2054 4.2287 11.3001 4.18738C11.3947 4.14607 11.4798 4.08565 11.55 4.00992L11 3.49992ZM8.436 16.7899C6.986 15.6069 5.293 14.0579 3.969 12.3609C2.63 10.6459 1.75 8.88292 1.75 7.26092H0.25C0.25 9.38692 1.38 11.4809 2.786 13.2839C4.207 15.1039 5.996 16.7359 7.488 17.9529L8.436 16.7899ZM1.75 7.26092C1.75 4.53092 3.008 2.70492 4.6 2.04192C6.173 1.38792 8.353 1.75492 10.45 4.00992L11.55 2.98792C9.147 0.406924 6.327 -0.301076 4.024 0.656924C1.742 1.60692 0.25 4.07992 0.25 7.26092H1.75ZM14.512 17.9529C16.005 16.7359 17.792 15.1039 19.214 13.2819C20.621 11.4789 21.75 9.38592 21.75 7.25992H20.25C20.25 8.88192 19.37 10.6449 18.031 12.3599C16.707 14.0569 15.014 15.6069 13.564 16.7899L14.512 17.9529ZM21.75 7.25992C21.75 4.07992 20.258 1.60592 17.976 0.656924C15.673 -0.301076 12.853 0.406924 10.451 2.98692L11.549 4.00992C13.647 1.75492 15.827 1.38792 17.399 2.04192C18.992 2.70392 20.25 4.52992 20.25 7.25992H21.75ZM7.488 17.9529C8.758 18.9889 9.64 19.7499 11 19.7499V18.2499C10.278 18.2499 9.829 17.9249 8.436 16.7899L7.488 17.9529ZM13.564 16.7889C12.171 17.9259 11.722 18.2499 11 18.2499V19.7499C12.359 19.7499 13.241 18.9889 14.512 17.9529L13.564 16.7889Z" fill="#D9D9D9"/>
</svg>
