<svg width="24" height="24" viewBox="0 0 24 24" fill="none" xmlns="http://www.w3.org/2000/svg">
<path d="M12 0.84375C6.7875 0.84375 1.5 5.26875 1.5 10.4625C1.5 15.6562 9.80625 23.1562 12.0375 23.1562C14.5125 23.1562 22.5 15.675 22.5 10.4625C22.5 5.25 17.2125 0.84375 12 0.84375Z" fill="#ADBCC3"/>
<path d="M11.9997 19.1906C10.2429 19.1906 8.98848 18.1556 8.61161 17.5819C8.46911 17.3981 8.43911 17.1487 8.53473 16.9369C8.60786 16.7981 8.75411 16.7156 8.90973 16.7212C8.96598 16.7212 9.02223 16.7306 9.07473 16.7494C9.95598 17.025 10.7304 17.4375 11.9997 17.4375C13.2691 17.4375 14.0472 17.0325 14.9304 16.7569C14.9829 16.7381 15.0391 16.7287 15.0954 16.7287C15.251 16.7231 15.3972 16.8056 15.4704 16.9444C15.566 17.1562 15.536 17.4056 15.3935 17.5894C15.011 18.1556 13.7566 19.1906 11.9997 19.1906ZM10.1341 15.2925C9.57161 16.02 6.81348 16.0219 4.72473 14.1C2.83286 12.36 2.95098 9.2925 3.57536 8.67375C4.19973 8.055 7.17348 8.04 8.98473 9.86625C10.796 11.6925 10.8222 14.61 10.1341 15.2925ZM15.0147 9.85875C16.826 8.04 19.7997 8.055 20.4241 8.67187C21.0485 9.28875 21.086 12.255 19.2747 14.0719C17.4635 15.8887 14.5572 15.9375 13.8635 15.2587C13.1697 14.58 13.2035 11.6775 15.0147 9.85875Z" fill="#422B0D"/>
<path d="M11.9998 0.84375C14.7223 0.84375 17.4616 2.0475 19.4623 3.9375C17.4373 1.77375 14.4691 0.375 11.5254 0.375C6.31289 0.375 1.02539 4.8 1.02539 9.99375C1.02539 12.9187 3.66164 16.5769 6.36351 19.215C3.83602 16.62 1.49977 13.2169 1.49977 10.4625C1.49977 5.26875 6.78727 0.84375 11.9998 0.84375Z" fill="#ADBCC3"/>
</svg>
