<svg width="20" height="19" viewBox="0 0 20 19" fill="none" xmlns="http://www.w3.org/2000/svg">
<path d="M11.039 0.581892C10.4395 0.269012 9.61604 0.264312 9.01237 0.576081C6.43374 1.90782 4.09706 3.43365 2.05109 5.12426C1.77826 5.3497 1.59772 5.66523 1.60081 6.02588C1.60389 6.3853 1.78854 6.69732 2.06046 6.91966C4.08996 8.5791 6.42928 10.1067 8.96104 11.4281C9.56052 11.741 10.384 11.7457 10.9876 11.4339C13.5663 10.1022 15.903 8.57634 17.9489 6.88574C18.2217 6.6603 18.4023 6.34477 18.3992 5.98411C18.3961 5.62469 18.2115 5.31268 17.9395 5.09033C15.91 3.43089 13.5707 1.90327 11.039 0.581892Z" fill="#D9D9D9"/>
<path d="M18.958 10.7314C19.3094 10.512 19.4164 10.0494 19.197 9.69803C18.9777 9.34667 18.515 9.23966 18.1637 9.45902L12.0564 13.2719C11.5124 13.6116 10.7733 13.8009 9.99983 13.801C9.22638 13.801 8.48719 13.6117 7.94304 13.2721L1.90271 9.50239C1.55132 9.28308 1.08867 9.39016 0.869368 9.74156C0.650063 10.093 0.757144 10.5556 1.10854 10.7749L7.14887 14.5446C7.97773 15.0619 9.00598 15.301 9.99992 15.301C10.9939 15.3009 12.0221 15.0617 12.8508 14.5443L18.958 10.7314Z" fill="#D9D9D9"/>
<path d="M18.9581 14.4861C19.3094 14.2667 19.4164 13.804 19.197 13.4527C18.9776 13.1013 18.5149 12.9944 18.1636 13.2138L12.8747 16.5167C12.1018 16.9993 11.068 17.2602 9.99979 17.2602C8.93159 17.2603 7.89767 16.9995 7.12465 16.517L1.90279 13.2572C1.55142 13.0378 1.08876 13.1448 0.869415 13.4962C0.650069 13.8476 0.757094 14.3102 1.10846 14.5296L6.33033 17.7894C7.38811 18.4497 8.71116 18.7603 9.99988 18.7602C11.2886 18.7602 12.6116 18.4494 13.6692 17.7889L18.9581 14.4861Z" fill="#D9D9D9"/>
</svg>
