<svg width="24" height="24" viewBox="0 0 24 24" fill="none" xmlns="http://www.w3.org/2000/svg">
<path d="M13.039 3.58189C12.4395 3.26901 11.616 3.26431 11.0124 3.57608C8.43374 4.90782 6.09706 6.43365 4.05109 8.12426C3.77826 8.3497 3.59772 8.66523 3.60081 9.02588C3.60389 9.3853 3.78854 9.69732 4.06046 9.91966C6.08996 11.5791 8.42928 13.1067 10.961 14.4281C11.5605 14.741 12.384 14.7457 12.9876 14.4339C15.5663 13.1022 17.903 11.5763 19.9489 9.88574C20.2217 9.6603 20.4023 9.34477 20.3992 8.98411C20.3961 8.62469 20.2115 8.31268 19.9395 8.09033C17.91 6.43089 15.5707 4.90327 13.039 3.58189Z" fill="#0866FF"/>
<path d="M20.958 13.7314C21.3094 13.512 21.4164 13.0494 21.197 12.698C20.9777 12.3467 20.515 12.2397 20.1637 12.459L14.0564 16.2719C13.5124 16.6116 12.7733 16.8009 11.9998 16.801C11.2264 16.801 10.4872 16.6117 9.94304 16.2721L3.90271 12.5024C3.55132 12.2831 3.08867 12.3902 2.86937 12.7416C2.65006 13.093 2.75714 13.5556 3.10854 13.7749L9.14887 17.5446C9.97773 18.0619 11.006 18.301 11.9999 18.301C12.9939 18.3009 14.0221 18.0617 14.8508 17.5443L20.958 13.7314Z" fill="#0866FF"/>
<path d="M20.9581 17.4861C21.3094 17.2667 21.4164 16.804 21.197 16.4527C20.9776 16.1013 20.5149 15.9944 20.1636 16.2138L14.8747 19.5167C14.1018 19.9993 13.068 20.2602 11.9998 20.2602C10.9316 20.2603 9.89767 19.9995 9.12465 19.517L3.90279 16.2572C3.55142 16.0378 3.08876 16.1448 2.86942 16.4962C2.65007 16.8476 2.75709 17.3102 3.10846 17.5296L8.33033 20.7894C9.38811 21.4497 10.7112 21.7603 11.9999 21.7602C13.2886 21.7602 14.6116 21.4494 15.6692 20.7889L20.9581 17.4861Z" fill="#0866FF"/>
</svg>
