<svg width="24" height="24" viewBox="0 0 24 24" fill="none" xmlns="http://www.w3.org/2000/svg">
<g clip-path="url(#clip0_153_464)">
<path d="M5.25 2.8125C3.14438 3.6075 2.25 3 2.25 3C2.25 5.0625 3.1875 5.0625 3.1875 5.0625C3.1875 5.0625 0.75 7.10437 0.75 10.5C0.75 14.4375 2.71687 15.7913 2.71687 15.7913C2.81813 15.8962 2.98125 16.1344 2.98125 16.1344C2.98125 16.1344 3.0375 16.4213 3.03562 16.5675C3.0225 17.595 3 18.75 4.125 19.875C5.25 21 6.59812 21.0413 7.125 21.1875C8.28375 21.51 14.6325 21.3862 15.9656 21.2981C17.625 21.1875 19.0181 20.6287 20.1169 19.53C21.5119 18.135 20.9213 16.2525 20.9963 16.0481C21.0713 15.8419 23.4563 13.1194 23.2519 9.75187C22.8769 3.56437 18.3769 3.75187 18.3769 3.75187C18.3769 3.75187 17.25 0.75 12.75 0.75C7.5 0.75 5.98688 2.535 5.25 2.8125Z" fill="#543930"/>
<path d="M12.0059 21.3956C14.0721 21.4069 16.0784 21.4425 16.7121 21.2681C17.2409 21.1219 18.784 20.8144 20.0571 19.59C21.0171 18.6656 21.2252 17.37 20.914 16.2225C20.8802 16.095 12.0059 21.3956 12.0059 21.3956Z" fill="url(#paint0_radial_153_464)"/>
<path d="M12.0059 21.3956C9.93965 21.4069 7.75902 21.3637 7.12527 21.1875C6.59652 21.0413 5.25027 21 4.12527 19.875C3.00027 18.75 3.02277 17.595 3.0359 16.5675C3.03777 16.4381 2.99465 16.2019 2.9834 16.1456L3.00027 16.125L12.0059 21.3956Z" fill="url(#paint1_radial_153_464)"/>
<path d="M2.16795 15.2494C2.16795 15.2494 3.9567 12.7537 4.49107 11.2875C4.59982 10.9912 4.94857 7.07061 4.7817 6.56999C4.47045 5.62874 4.08045 4.38936 3.18795 5.06249C1.49857 6.66561 0.842323 8.45624 0.763573 10.0781C0.624823 12.93 1.66732 14.6606 2.16795 15.2494Z" fill="url(#paint2_radial_153_464)"/>
<path d="M19.0823 12.7332H4.93914C3.41477 12.7332 2.16602 13.9332 2.16602 15.4013C2.16602 16.8694 3.41289 18.0694 4.93914 18.0694H19.0823C20.6066 18.0694 21.8554 16.8694 21.8554 15.4013C21.8554 13.9332 20.6066 12.7332 19.0823 12.7332Z" fill="#E59600"/>
<path d="M11.9573 1.72687C7.48359 1.72687 3.33984 6.42749 3.33984 13.1906C3.33984 19.9181 7.60922 23.2444 11.9573 23.2444C16.3055 23.2444 20.5748 19.9181 20.5748 13.1906C20.5748 6.42749 16.4311 1.72687 11.9573 1.72687Z" fill="#FFCA28"/>
<path d="M12.9164 16.3368C12.8912 16.3264 12.8647 16.3195 12.8376 16.3162H11.0939C11.0676 16.32 11.0414 16.3256 11.0151 16.3368C10.8576 16.4006 10.7695 16.5637 10.8445 16.7381C10.9195 16.9125 11.2664 17.4018 11.9658 17.4018C12.6651 17.4018 13.012 16.9125 13.087 16.7381C13.162 16.5637 13.0739 16.4006 12.9164 16.3368Z" fill="#E59600"/>
<path d="M6.09602 12.8288C6.09602 12.8288 6.1279 12.7819 6.18977 12.7032C6.20665 12.6844 6.21977 12.6638 6.24227 12.6394C6.26852 12.6132 6.3004 12.5869 6.33227 12.5569C6.36602 12.5288 6.40165 12.4969 6.43915 12.4632C6.47665 12.4313 6.51602 12.4069 6.55727 12.3769C6.59852 12.3488 6.64165 12.3188 6.68852 12.2907C6.73727 12.2644 6.78602 12.2382 6.83665 12.2119C6.88727 12.1838 6.94165 12.1594 6.99977 12.1388C7.05602 12.1163 7.11415 12.0938 7.17415 12.0732C7.29602 12.0394 7.42165 12.0019 7.5529 11.985C7.68415 11.9588 7.81915 11.9569 7.95415 11.9513C8.08915 11.9588 8.22415 11.9607 8.3554 11.985C8.48665 12.0019 8.61415 12.0394 8.73415 12.0732C8.79415 12.0938 8.85227 12.1163 8.90852 12.1388C8.96477 12.1613 9.01915 12.1838 9.07165 12.2119C9.12227 12.2382 9.1729 12.2663 9.21977 12.2907C9.26665 12.3188 9.30977 12.3488 9.35102 12.3769C9.39227 12.4069 9.43165 12.4313 9.46727 12.4613C9.50102 12.4913 9.53477 12.5213 9.56477 12.5475C9.59477 12.5757 9.6229 12.6 9.64727 12.6244C9.67165 12.6507 9.69227 12.675 9.71102 12.6975C9.78602 12.7857 9.8254 12.8382 9.8254 12.8382C9.95102 13.0125 9.91165 13.2544 9.73727 13.3782C9.63227 13.455 9.50102 13.47 9.38477 13.4307L9.31352 13.4063C9.31352 13.4063 9.26665 13.3894 9.19165 13.3575C9.1729 13.35 9.15415 13.3388 9.13165 13.3313C9.10727 13.3238 9.08477 13.3144 9.05852 13.305C9.0079 13.2844 8.94977 13.2638 8.88602 13.245C8.85415 13.2357 8.82227 13.2225 8.78852 13.2132C8.7529 13.2057 8.71915 13.1963 8.68165 13.1869C8.6629 13.1813 8.64602 13.1775 8.62727 13.1719C8.60852 13.1682 8.58977 13.1644 8.56915 13.1607C8.52977 13.155 8.49227 13.1438 8.4529 13.1363C8.37227 13.1269 8.29165 13.11 8.20727 13.1063C8.1229 13.095 8.03852 13.0988 7.95227 13.0932C7.86602 13.0988 7.78165 13.095 7.69727 13.1063C7.6129 13.11 7.53227 13.1269 7.45165 13.1363C7.41227 13.1438 7.37477 13.155 7.3354 13.1607L7.27727 13.1719C7.25852 13.1775 7.24165 13.1813 7.2229 13.1869C7.18727 13.1963 7.15165 13.2057 7.11602 13.2132C7.08227 13.2225 7.0504 13.2357 7.01852 13.245C6.98665 13.2544 6.95665 13.2638 6.92852 13.2732C6.90415 13.2825 6.87977 13.29 6.85727 13.2994C6.83477 13.3069 6.81227 13.3144 6.78977 13.32C6.7654 13.3294 6.73915 13.3444 6.71852 13.3557C6.6304 13.4007 6.5779 13.4232 6.5779 13.4232C6.3754 13.5075 6.14102 13.4119 6.05665 13.2075C6.03198 13.1459 6.02267 13.0793 6.02953 13.0133C6.0364 12.9473 6.05921 12.884 6.09602 12.8288ZM17.3535 13.4213C17.3535 13.4213 17.301 13.3988 17.2129 13.3538C17.1923 13.3425 17.166 13.3275 17.1416 13.3182C17.1191 13.3125 17.0985 13.305 17.0741 13.2975C17.0516 13.29 17.0273 13.2807 17.0029 13.2713C16.9748 13.2619 16.9429 13.2525 16.9129 13.2432C16.881 13.2338 16.8491 13.2207 16.8154 13.2113C16.7816 13.2019 16.746 13.1925 16.7085 13.185C16.6898 13.1794 16.6729 13.1757 16.6541 13.17C16.6354 13.1663 16.6166 13.1625 16.596 13.1588C16.5566 13.1532 16.5191 13.1419 16.4798 13.1344C16.3991 13.125 16.3185 13.1082 16.2341 13.1044C16.1498 13.0932 16.0654 13.0969 15.9791 13.0913C15.8929 13.0969 15.8085 13.0932 15.7241 13.1044C15.6398 13.1082 15.5591 13.125 15.4785 13.1344C15.4391 13.1419 15.4016 13.1532 15.3623 13.1588L15.3041 13.17C15.2854 13.1757 15.2685 13.1794 15.2498 13.185C15.2141 13.1944 15.1785 13.2038 15.1429 13.2113C15.1091 13.2207 15.0773 13.2338 15.0454 13.2432C14.9816 13.2619 14.9235 13.2825 14.8729 13.3032C14.8466 13.3125 14.8241 13.3238 14.7998 13.3294C14.7773 13.3388 14.7585 13.3482 14.7398 13.3557C14.6666 13.3894 14.6198 13.4044 14.6198 13.4044L14.5504 13.4288C14.5024 13.4457 14.4515 13.4529 14.4007 13.45C14.3499 13.4472 14.3002 13.4343 14.2543 13.4122C14.2085 13.3901 14.1675 13.3591 14.1337 13.3211C14.0999 13.2831 14.0739 13.2387 14.0573 13.1907C14.0141 13.0669 14.0385 12.9357 14.1079 12.8363C14.1079 12.8363 14.1454 12.7838 14.2223 12.6957C14.241 12.6732 14.2616 12.6488 14.286 12.6225C14.3104 12.5982 14.3404 12.5738 14.3685 12.5457C14.3985 12.5194 14.4323 12.4894 14.466 12.4594C14.5016 12.4294 14.541 12.405 14.5823 12.375C14.6235 12.3469 14.6666 12.3169 14.7135 12.2888C14.7623 12.2625 14.811 12.2363 14.8616 12.21C14.9123 12.1819 14.9666 12.1575 15.0229 12.1369C15.0791 12.1144 15.1373 12.0919 15.1973 12.0713C15.3191 12.0375 15.4448 12 15.576 11.9832C15.7073 11.9569 15.8423 11.955 15.9773 11.9494C16.1123 11.9569 16.2473 11.9569 16.3785 11.9832C16.5098 11.9982 16.6373 12.0375 16.7573 12.0713C16.8173 12.0919 16.8754 12.1144 16.9316 12.1369C16.9879 12.1594 17.0423 12.1819 17.0929 12.21C17.1435 12.2363 17.1941 12.2644 17.241 12.2888C17.2879 12.3169 17.331 12.3469 17.3723 12.375C17.4135 12.405 17.4529 12.4294 17.4904 12.4613C17.5279 12.4932 17.5635 12.525 17.5973 12.555C17.6291 12.585 17.661 12.6113 17.6873 12.6375C17.7098 12.6619 17.7248 12.6825 17.7398 12.7013C17.8016 12.7782 17.8335 12.8269 17.8335 12.8269C17.9573 13.0088 17.9104 13.2563 17.7285 13.38C17.616 13.4607 17.4716 13.47 17.3535 13.4213Z" fill="#6D4C41"/>
<path d="M7.86734 16.3219C8.53837 16.3219 9.08234 15.7586 9.08234 15.0637C9.08234 14.3689 8.53837 13.8056 7.86734 13.8056C7.19632 13.8056 6.65234 14.3689 6.65234 15.0637C6.65234 15.7586 7.19632 16.3219 7.86734 16.3219Z" fill="#404040"/>
<path d="M16.0646 16.3219C16.7356 16.3219 17.2796 15.7586 17.2796 15.0637C17.2796 14.3689 16.7356 13.8056 16.0646 13.8056C15.3936 13.8056 14.8496 14.3689 14.8496 15.0637C14.8496 15.7586 15.3936 16.3219 16.0646 16.3219Z" fill="#404040"/>
<path d="M14.0647 18.3694C13.2791 18.8363 10.7066 18.8363 9.92094 18.3694C9.47094 18.1013 9.00969 18.5119 9.19719 18.9206C9.38094 19.3238 10.7853 20.2575 12.0003 20.2575C13.2153 20.2575 14.6009 19.3238 14.7847 18.9206C14.9703 18.51 14.5166 18.1013 14.0647 18.3694Z" fill="#795548"/>
<path d="M11.9995 1.3125C8.28516 1.3125 5.42203 3.435 4.06828 6.84C3.52453 8.20687 3.08203 9.66187 3.08203 11.1319C3.08203 13.6875 3.56203 15.9375 3.56203 15.9375C4.87453 14.25 4.49953 12.5625 4.49953 12.5625C6.18703 10.3125 11.2158 8.505 11.2495 8.4375L10.237 10.4644C10.1095 10.7175 10.327 11.0212 10.6027 10.9613C15.3745 9.9375 17.4708 8.09812 17.4708 8.09812C17.4708 8.09812 17.6245 10.875 19.687 12.75C19.687 12.75 19.687 14.25 20.2495 15.9375C20.2495 15.9375 21.187 12.5625 20.5458 8.9475C20.1239 6.57375 18.7608 4.29188 16.7883 2.82188C15.4027 1.78875 13.7152 1.3125 11.9995 1.3125Z" fill="#543930"/>
<path d="M15.2228 1.11188C17.0884 1.72688 18.234 2.90813 18.5884 4.39126C18.6934 4.82626 18.6165 8.82751 10.8596 4.20938C7.97401 2.49188 8.76339 1.41563 9.10089 1.29376C10.4209 0.819381 12.8153 0.318756 15.2228 1.11188Z" fill="url(#paint3_radial_153_464)"/>
<path d="M21.7952 14.8519C21.7952 14.8519 24.5552 10.9444 22.5058 6.54003C21.1689 3.67128 18.4539 3.7369 18.3752 3.75003C18.3752 3.75003 18.6696 4.47003 18.5646 5.0194C18.3864 5.9569 17.6064 6.2269 17.6064 6.2269C20.6777 8.09815 19.6314 12.8888 21.7952 14.8519Z" fill="url(#paint4_radial_153_464)"/>
<path d="M5.1153 2.8631C3.13717 3.56997 2.25967 3.01497 2.25405 2.99997C2.19405 3.2306 2.32342 4.63122 3.5478 4.19435C4.07467 4.0031 5.10967 2.92872 5.1153 2.8631Z" fill="url(#paint5_radial_153_464)"/>
<path d="M2.24576 2.99812C2.24576 2.99999 2.24389 3.00374 2.24389 3.00937C2.23826 3.22874 2.24201 4.90874 3.18701 5.06249L4.61389 4.43437C2.83451 4.39874 2.24764 2.99249 2.24764 2.99249C2.24764 2.99249 2.24576 2.99624 2.24576 2.99812Z" fill="url(#paint6_radial_153_464)"/>
</g>
<defs>
<radialGradient id="paint0_radial_153_464" cx="0" cy="0" r="1" gradientUnits="userSpaceOnUse" gradientTransform="translate(15.2544 17.6197) rotate(151.359) scale(6.32259 4.1065)">
<stop offset="0.728" stop-color="#6D4C41" stop-opacity="0"/>
<stop offset="1" stop-color="#6D4C41"/>
</radialGradient>
<radialGradient id="paint1_radial_153_464" cx="0" cy="0" r="1" gradientUnits="userSpaceOnUse" gradientTransform="translate(8.76726 17.5551) rotate(28.6411) scale(6.37565 4.14096)">
<stop offset="0.728" stop-color="#6D4C41" stop-opacity="0"/>
<stop offset="1" stop-color="#6D4C41"/>
</radialGradient>
<radialGradient id="paint2_radial_153_464" cx="0" cy="0" r="1" gradientUnits="userSpaceOnUse" gradientTransform="translate(4.99137 8.97409) rotate(-85.7217) scale(6.43641 5.36434)">
<stop offset="0.699" stop-color="#6D4C41" stop-opacity="0"/>
<stop offset="1" stop-color="#6D4C41"/>
</radialGradient>
<radialGradient id="paint3_radial_153_464" cx="0" cy="0" r="1" gradientUnits="userSpaceOnUse" gradientTransform="translate(11.5525 5.88229) rotate(-157.19) scale(8.864 4.9816)">
<stop offset="0.699" stop-color="#6D4C41" stop-opacity="0"/>
<stop offset="1" stop-color="#6D4C41"/>
</radialGradient>
<radialGradient id="paint4_radial_153_464" cx="0" cy="0" r="1" gradientUnits="userSpaceOnUse" gradientTransform="translate(17.7165 12.0653) rotate(58.4319) scale(9.02399 6.69498)">
<stop offset="0.699" stop-color="#6D4C41" stop-opacity="0"/>
<stop offset="1" stop-color="#6D4C41"/>
</radialGradient>
<radialGradient id="paint5_radial_153_464" cx="0" cy="0" r="1" gradientUnits="userSpaceOnUse" gradientTransform="translate(3.19735 2.27431) rotate(4.5657) scale(1.63908 1.9436)">
<stop offset="0.58" stop-color="#6D4C41"/>
<stop offset="1" stop-color="#6D4C41" stop-opacity="0"/>
</radialGradient>
<radialGradient id="paint6_radial_153_464" cx="0" cy="0" r="1" gradientUnits="userSpaceOnUse" gradientTransform="translate(4.03321 4.25512) rotate(-51.6059) scale(1.35382 2.14797)">
<stop offset="0.702" stop-color="#6D4C41" stop-opacity="0"/>
<stop offset="1" stop-color="#6D4C41"/>
</radialGradient>
<clipPath id="clip0_153_464">
<rect width="24" height="24" fill="white"/>
</clipPath>
</defs>
</svg>
