<svg width="18" height="18" viewBox="0 0 18 18" fill="none" xmlns="http://www.w3.org/2000/svg">
<path fill-rule="evenodd" clip-rule="evenodd" d="M11.4555 2.49801C11.3985 2.38374 11.3177 2.28292 11.2187 2.20226C11.1197 2.12159 11.0047 2.06292 10.8812 2.03014C10.7578 1.99737 10.6288 1.99124 10.5028 2.01216C10.3768 2.03309 10.2567 2.08059 10.1505 2.15151C9.84 2.35851 9.59791 2.65371 9.41071 2.94351C9.21811 3.24051 9.04801 3.58521 8.89771 3.94791C8.59711 4.67151 8.34511 5.53911 8.14171 6.40851C7.89499 7.47081 7.71078 8.54665 7.59001 9.63051C7.22382 9.39444 6.9296 9.06223 6.73951 8.67021C6.44431 8.05821 6.3813 7.28961 6.3813 6.28161C6.38127 6.10364 6.32846 5.92967 6.22957 5.7817C6.13067 5.63373 5.99012 5.5184 5.82569 5.4503C5.66126 5.3822 5.48033 5.36438 5.30578 5.39909C5.13122 5.4338 4.97087 5.51948 4.84501 5.64531C4.25921 6.22977 3.79466 6.92421 3.47804 7.68874C3.16142 8.45327 2.99896 9.27281 3 10.1003C3.00008 11.1363 3.25565 12.1563 3.74407 13.07C4.23249 13.9836 4.9387 14.7627 5.80013 15.3383C6.66156 15.9138 7.65164 16.268 8.68266 16.3695C9.71368 16.4711 10.7538 16.3167 11.711 15.9203C12.6681 15.5238 13.5127 14.8974 14.17 14.0966C14.8272 13.2957 15.2768 12.3451 15.4789 11.3291C15.6811 10.313 15.6295 9.26269 15.3288 8.27128C15.0281 7.27987 14.4875 6.37792 13.755 5.64531C13.2222 5.11341 12.873 4.75881 12.5418 4.32501C12.2151 3.89661 11.8902 3.36831 11.4555 2.49801ZM11.208 13.8083C10.8304 14.1854 10.3495 14.4422 9.8261 14.5462C9.30266 14.6502 8.76015 14.5967 8.26708 14.3925C7.77401 14.1884 7.3525 13.8427 7.05579 13.3991C6.75908 12.9555 6.60047 12.434 6.60001 11.9003C6.60001 11.9003 7.39111 12.3503 8.85001 12.3503C8.85001 11.4503 9.3 8.75031 9.97501 8.30031C10.425 9.20031 10.6824 9.46401 11.2089 9.99141C11.7153 10.4976 11.9999 11.1843 12 11.9003C11.9999 12.6163 11.7153 13.303 11.2089 13.8092" fill="#D9D9D9"/>
</svg>
