<svg width="24" height="24" viewBox="0 0 24 24" fill="none" xmlns="http://www.w3.org/2000/svg">
<path d="M12.0074 23.3167L11.9727 23.3273C11.9847 23.282 12.0007 23.2007 12.0007 23.072C12.0007 22.87 11.8967 22.4927 11.8681 22.4387C11.8394 22.3847 11.8081 22.346 11.7387 22.3653C11.6861 22.38 11.2821 22.5827 11.0241 22.5927C10.5447 22.6107 10.3134 22.1807 10.3134 22.1807C10.3134 22.1807 10.0474 22.3327 9.83608 22.456C9.62408 22.5793 9.37808 22.764 9.19675 22.874C9.04208 22.968 8.86542 23.0127 8.68275 23.036C8.50008 23.0593 8.35142 23.0513 8.30742 23.0553C8.26342 23.0593 7.89341 23.0147 7.88008 23.3807L7.88208 23.4653L7.84608 23.448C7.84608 23.448 7.81408 23.5613 7.81142 23.5827C7.80875 23.6047 7.79541 23.6173 7.84208 23.6467C7.88875 23.676 8.09408 23.764 8.35542 23.8293C8.61675 23.8947 9.04075 23.9913 9.36808 23.9913C9.69542 23.9913 9.97408 23.926 10.1354 23.8873C10.2974 23.8487 10.6441 23.7747 10.6774 23.79C10.7107 23.8053 10.7547 23.9173 10.7927 23.952C10.8314 23.9867 11.8661 23.898 11.9401 23.8827C11.9659 23.8778 11.9894 23.8646 12.007 23.8451C12.0245 23.8256 12.0352 23.8009 12.0374 23.7747V23.342C12.0387 23.324 12.0234 23.312 12.0074 23.3167ZM19.3054 20.8153L18.9694 20.5293C18.9665 20.5268 18.963 20.525 18.9593 20.524C18.9555 20.523 18.9516 20.5229 18.9478 20.5237C18.944 20.5244 18.9404 20.5261 18.9373 20.5285C18.9343 20.5308 18.9318 20.5339 18.9301 20.5373L18.9154 20.5713C18.8642 20.5004 18.8039 20.4366 18.7361 20.3813C18.5794 20.248 18.2181 20.0787 18.1574 20.066C18.0967 20.0527 18.0461 20.0513 18.0154 20.1173C17.9921 20.168 17.8827 20.6147 17.7194 20.8213C17.4167 21.2047 16.9301 21.1 16.9301 21.1L16.8281 21.652C16.7834 21.8973 16.7641 22.2107 16.7294 22.424C16.6947 22.6058 16.6215 22.7781 16.5147 22.9293C16.4121 23.0867 16.3081 23.196 16.2814 23.2333C16.2547 23.2707 15.9767 23.5273 16.2514 23.78L16.3187 23.834L16.2821 23.8507C16.2821 23.8507 16.3487 23.95 16.3634 23.9667C16.3781 23.9833 16.3801 24.002 16.4327 23.9853C16.4854 23.9687 16.6901 23.8673 16.9134 23.708C17.1374 23.548 17.4921 23.2833 17.7081 23.0293C17.9247 22.7753 18.0574 22.516 18.1347 22.3653C18.2121 22.2147 18.3834 21.8967 18.4174 21.8807C18.4514 21.8647 18.5667 21.9047 18.6194 21.898C18.6721 21.8913 19.2867 21.03 19.3241 20.9627C19.3614 20.8953 19.3274 20.834 19.3054 20.8153Z" fill="#292F33"/>
<path d="M12.8662 8.16201C13.4842 8.80201 14.9075 10.0887 14.9389 10.2427C15.1062 11.058 15.3482 11.98 15.2855 12.5453C15.2402 12.9553 15.5362 13.4107 15.6529 13.6007C15.7982 13.8367 16.1735 14.1993 16.4135 14.174C16.5629 14.1587 16.7915 13.8873 16.6695 13.75C16.4315 13.4833 16.4709 13.0773 16.3215 12.7107C16.0222 11.974 16.2915 10.5813 15.8809 9.66868C15.7102 9.29068 15.3922 8.54001 13.9982 7.25134C13.6575 7.55934 12.8662 8.16201 12.8662 8.16201Z" fill="#F9CA55"/>
<path d="M12.6696 0.922691C11.6076 0.504691 9.95162 1.04402 9.75962 2.28469C9.56829 3.51669 9.91895 5.44936 11.0016 5.33269C12.1363 5.21002 13.3003 4.96336 13.7603 3.79469C14.2203 2.62602 13.7316 1.34069 12.6696 0.922691Z" fill="#FFDC5D"/>
<path d="M13.4589 4.09532C15.0042 2.27999 11.2816 2.45665 11.2816 2.45665C10.5769 2.48199 11.0622 3.65599 10.7302 4.29732C10.5029 4.74066 11.4602 4.97599 11.4602 4.97599C11.4602 4.97599 11.8996 4.96932 11.9229 5.50265V5.50732C11.9282 5.64332 11.9142 5.80399 11.8509 6.01999C11.5356 7.08732 12.9689 7.74132 13.2836 6.67199C13.4082 6.24866 13.3596 5.87666 13.2969 5.53332L13.2909 5.50265C13.1949 4.99199 13.0762 4.54466 13.4589 4.09532Z" fill="#FFDC5D"/>
<path d="M13.8832 1.35067C13.1759 0.522675 12.1632 0.0833413 10.5372 0.823341C9.87458 1.12467 9.57791 1.01334 9.48391 1.14601C9.03124 1.78134 9.64791 2.48601 9.88924 2.34534C10.6546 1.89934 11.3446 2.03201 11.5206 2.35467C11.6966 2.67734 11.5346 3.25734 11.6766 3.26067C12.0626 3.27067 11.9999 2.89267 12.1526 2.67534C12.4026 2.31934 12.7832 2.52067 12.8666 2.91667C12.9326 3.23067 12.8666 3.76401 12.3532 3.85801C12.7019 4.62534 13.3932 4.85934 13.3932 4.85934C13.3932 4.85934 13.6179 4.94734 14.0012 4.19201C14.3852 3.43601 14.5859 2.17267 13.8832 1.35067Z" fill="#FFAC33"/>
<path d="M10.7077 22.802C9.86367 22.8747 9.47234 22.6467 9.56034 22.5247C9.67034 22.3727 9.64567 22.26 9.64701 22.1673C9.66567 20.54 9.33301 18.1733 9.33301 18.1733C9.33301 17.9413 9.33501 17.6313 9.54101 17.132C10.0597 15.8767 12.175 12.0053 12.175 12.0053C12.2619 11.8533 12.3779 11.7199 12.5163 11.6127C12.6548 11.5055 12.813 11.4266 12.9819 11.3805C13.1509 11.3344 13.3272 11.3221 13.501 11.3442C13.6747 11.3663 13.8423 11.4224 13.9943 11.5093C14.6337 11.8747 14.7423 12.446 14.4903 13.3287C14.0137 15.0007 12.5137 17.0633 11.8883 18.3133C12.0377 19.7273 11.7723 20.882 11.9117 22.218C11.9317 22.41 11.5517 22.7293 10.7077 22.802Z" fill="#2A6797"/>
<path d="M17.865 21.2873C17.6224 21.656 17.2184 21.9153 16.7997 21.846C15.9537 20.5633 13.4964 18.2987 13.4964 18.2987C13.3357 18.132 13.1217 17.9073 12.923 17.4047C12.4244 16.1413 11.2577 11.8867 11.2577 11.8867C11.1708 11.544 11.2236 11.1809 11.4043 10.8771C11.5851 10.5733 11.8791 10.3537 12.2217 10.2667C12.935 10.0853 13.4104 10.4213 13.8417 11.2307C14.6597 12.7647 15.013 15.2907 15.431 16.624C16.6777 17.6693 17.0197 19.026 18.281 20.058C18.2377 20.6293 18.1077 20.9187 17.865 21.2873Z" fill="#4289C1"/>
<path d="M15.333 13.3333C15.333 13.3333 15.333 14 13.9997 14H10.7343C10.4577 12.6667 10.7163 10.664 10.7383 8.82334C10.767 6.40801 12.2703 5.08401 13.2117 5.38667C14.4423 5.78267 15.007 7.14734 15.1663 9.29201C15.3257 11.4367 15.333 13.3333 15.333 13.3333Z" fill="#77B255"/>
<path d="M11.8337 7.86133C11.7224 8.79399 11.619 10.8167 11.5144 10.9447C10.959 11.6253 10.3664 12.438 9.8617 12.764C9.4957 13 9.32103 13.5467 9.2437 13.7687C9.1477 14.0447 9.1017 14.594 9.2817 14.7733C9.39437 14.8853 9.76837 14.8913 9.79903 14.7C9.85903 14.3273 10.2164 14.0887 10.417 13.722C10.8197 12.986 12.139 12.2773 12.6117 11.3327C12.8077 10.9407 13.209 10.18 13.3337 8.18C12.8537 8.10666 11.8337 7.86133 11.8337 7.86133Z" fill="#FFDC5D"/>
</svg>
