<svg width="12" height="12" viewBox="0 0 12 12" fill="none" xmlns="http://www.w3.org/2000/svg">
<g clip-path="url(#clip0_355_197)">
<path d="M6 11.625C9.1066 11.625 11.625 9.1066 11.625 6C11.625 2.8934 9.1066 0.375 6 0.375C2.8934 0.375 0.375 2.8934 0.375 6C0.375 9.1066 2.8934 11.625 6 11.625Z" fill="#98C0D0"/>
<path d="M5.99994 10.5131C8.49247 10.5131 10.5131 8.49247 10.5131 5.99994C10.5131 3.50741 8.49247 1.48682 5.99994 1.48682C3.50741 1.48682 1.48682 3.50741 1.48682 5.99994C1.48682 8.49247 3.50741 10.5131 5.99994 10.5131Z" fill="#FCEBCD"/>
<path d="M4.71557 1.41172C4.1137 1.5861 3.27088 1.85328 2.36901 2.93047C1.47838 3.99641 1.29463 5.23485 1.23745 6.08891C1.23745 6.08891 0.72276 6.73297 0.698385 6.61297C0.504322 5.68016 0.896197 3.59516 1.92088 2.49266C3.11338 1.21016 4.66401 0.755471 5.22464 0.670158C5.3212 0.655158 4.89839 1.35922 4.71557 1.41172Z" fill="#C2E3F0"/>
<path d="M6.00001 10.2742C8.36051 10.2742 10.2741 8.36064 10.2741 6.00014C10.2741 3.63964 8.36051 1.72607 6.00001 1.72607C3.63952 1.72607 1.72595 3.63964 1.72595 6.00014C1.72595 8.36064 3.63952 10.2742 6.00001 10.2742Z" fill="white"/>
<path d="M6 3.28125V6" stroke="#563428" stroke-width="0.5" stroke-miterlimit="10" stroke-linecap="round"/>
<path d="M6.00001 6.47414C6.262 6.47414 6.47438 6.26176 6.47438 5.99977C6.47438 5.73778 6.262 5.52539 6.00001 5.52539C5.73802 5.52539 5.52563 5.73778 5.52563 5.99977C5.52563 6.26176 5.73802 6.47414 6.00001 6.47414Z" fill="#563428"/>
<path d="M7.97526 5.99365L5.98401 6.00678" stroke="#563428" stroke-width="0.75" stroke-miterlimit="10" stroke-linecap="round"/>
<path d="M6 9.375V9.84375M6 2.15625V2.625M2.625 6H2.15625M9.84375 6H9.375" stroke="#6596A3" stroke-width="0.625" stroke-miterlimit="10"/>
<path d="M4.31246 8.92309L4.07809 9.32902M7.92184 2.6709L7.68746 3.07684M7.68746 8.92309L7.92184 9.32902M4.07809 2.6709L4.31246 3.07684M8.92309 7.68746L9.32902 7.92184M2.6709 4.07809L3.07684 4.31246M3.07684 7.68746L2.6709 7.92184M9.32902 4.07809L8.92309 4.31246" stroke="#B0BEC5" stroke-width="0.375" stroke-miterlimit="10"/>
</g>
<defs>
<clipPath id="clip0_355_197">
<rect width="12" height="12" fill="white"/>
</clipPath>
</defs>
</svg>
