<svg width="24" height="24" viewBox="0 0 24 24" fill="none" xmlns="http://www.w3.org/2000/svg">
<path opacity="0.15" d="M4.75 22.25C4.75 22.3485 4.93753 22.446 5.30187 22.537C5.66622 22.628 6.20025 22.7107 6.87348 22.7803C7.5467 22.85 8.34593 22.9052 9.22554 22.9429C10.1052 22.9806 11.0479 23 12 23C12.9521 23 13.8948 22.9806 14.7745 22.9429C15.6541 22.9052 16.4533 22.85 17.1265 22.7803C17.7997 22.7107 18.3338 22.628 18.6981 22.537C19.0625 22.446 19.25 22.3485 19.25 22.25C19.25 22.1515 19.0625 22.054 18.6981 21.963C18.3338 21.872 17.7997 21.7893 17.1265 21.7197C16.4533 21.65 15.6541 21.5948 14.7745 21.5571C13.8948 21.5194 12.9521 21.5 12 21.5C11.0479 21.5 10.1052 21.5194 9.22554 21.5571C8.34593 21.5948 7.5467 21.65 6.87348 21.7197C6.20025 21.7893 5.66622 21.872 5.30187 21.963C4.93753 22.054 4.75 22.1515 4.75 22.25Z" fill="#45413C"/>
<path d="M8.895 22.445L1.235 14.79C1.18776 14.7525 1.15118 14.7033 1.1289 14.6472C1.10662 14.5912 1.09942 14.5303 1.10802 14.4706C1.11662 14.4109 1.14072 14.3545 1.17791 14.307C1.21511 14.2595 1.2641 14.2226 1.32 14.2L1.79 14C1.91863 13.96 2.05638 13.96 2.185 14L6 14.785L8.91 17.695L9.705 21.5C9.73123 21.6339 9.7191 21.7726 9.67 21.9L9.48 22.365C9.4576 22.4206 9.42089 22.4693 9.37359 22.5061C9.3263 22.5429 9.27011 22.5666 9.21072 22.5747C9.15133 22.5829 9.09084 22.5751 9.0354 22.5524C8.97995 22.5296 8.93152 22.4925 8.895 22.445Z" fill="#4ACFFF"/>
<path d="M7.32 17.37L7.895 16.695L6 14.785L2.185 14C2.05284 13.9713 1.91505 13.9835 1.79 14.035L1.32 14.22C1.2641 14.2427 1.21511 14.2796 1.17791 14.327C1.14072 14.3745 1.11662 14.4309 1.10802 14.4906C1.09942 14.5503 1.10662 14.6112 1.1289 14.6673C1.15118 14.7233 1.18776 14.7725 1.235 14.81L1.735 15.31H1.795C1.92005 15.2585 2.05784 15.2463 2.19 15.275L6 16.035L7.32 17.37Z" fill="#80DDFF"/>
<path d="M8.89527 17.695L8.64027 17.44L5.53027 19.09L7.13027 20.685C7.37578 20.6858 7.62007 20.6504 7.85527 20.58C8.40396 20.4047 8.91338 20.1245 9.35527 19.755L8.89527 17.695Z" fill="#00B8F0"/>
<path d="M8.895 22.445L1.235 14.79C1.18776 14.7525 1.15118 14.7033 1.1289 14.6472C1.10662 14.5912 1.09942 14.5303 1.10802 14.4706C1.11662 14.4109 1.14072 14.3545 1.17791 14.307C1.21511 14.2595 1.2641 14.2226 1.32 14.2L1.79 14C1.91863 13.96 2.05638 13.96 2.185 14L6 14.785L8.91 17.695L9.705 21.5C9.73123 21.6339 9.7191 21.7726 9.67 21.9L9.48 22.365C9.4576 22.4206 9.42089 22.4693 9.37359 22.5061C9.3263 22.5429 9.27011 22.5666 9.21072 22.5747C9.15133 22.5829 9.09084 22.5751 9.0354 22.5524C8.97995 22.5296 8.93152 22.4925 8.895 22.445Z" stroke="#45413C" stroke-width="0.5" stroke-linecap="round" stroke-linejoin="round"/>
<path d="M20.173 13.415L21.163 14.405C21.2281 14.47 21.2796 14.5472 21.3148 14.6321C21.35 14.7171 21.3681 14.8081 21.3681 14.9C21.3681 14.9919 21.35 15.083 21.3148 15.1679C21.2796 15.2528 21.2281 15.33 21.163 15.395L18.437 18.12L16.457 16.1405L19.183 13.4145C19.248 13.3495 19.3252 13.2979 19.4102 13.2628C19.4951 13.2276 19.5861 13.2095 19.678 13.2095C19.77 13.2095 19.861 13.2276 19.9459 13.2628C20.0309 13.2979 20.108 13.35 20.173 13.415ZM9.27305 2.52152L10.263 3.51152C10.3281 3.57652 10.3796 3.65369 10.4148 3.73862C10.45 3.82356 10.4681 3.91459 10.4681 4.00652C10.4681 4.09845 10.45 4.18948 10.4148 4.27441C10.3796 4.35935 10.3281 4.43652 10.263 4.50152L7.54055 7.22402L5.56055 5.24402L8.28305 2.52152C8.34805 2.45651 8.42522 2.40494 8.51015 2.36976C8.59508 2.33458 8.68612 2.31647 8.77805 2.31647C8.86998 2.31647 8.96101 2.33458 9.04594 2.36976C9.13087 2.40494 9.20805 2.45651 9.27305 2.52152Z" fill="#C0DCEB" stroke="#45413C" stroke-width="0.5" stroke-linecap="round" stroke-linejoin="round"/>
<path d="M18.9249 20.395L14.2249 14.395L9.27491 9.44L3.27491 4.74C3.17827 4.66423 3.10327 4.56437 3.05743 4.45045C3.01159 4.33653 2.99653 4.21255 3.01376 4.09097C3.03098 3.96938 3.07989 3.85447 3.15556 3.75776C3.23124 3.66105 3.33103 3.58595 3.44491 3.54L4.39991 3.16C4.65653 3.05494 4.93907 3.03052 5.20991 3.09L12.9999 4.755L18.9349 10.7L20.5799 18.455C20.6311 18.7271 20.6034 19.0082 20.4999 19.265L20.1149 20.22C20.0687 20.3321 19.9941 20.4303 19.8985 20.5049C19.8029 20.5795 19.6896 20.628 19.5696 20.6457C19.4497 20.6633 19.3272 20.6495 19.2141 20.6055C19.1011 20.5616 19.0015 20.489 18.9249 20.395Z" fill="#4ACFFF"/>
<path d="M18.4854 10.25L18.9354 10.695L19.5004 13.36L15.6404 16.205L14.2304 14.41L13.8604 14.045L18.4854 10.25Z" fill="#00B8F0"/>
<path d="M13.3054 5.06499L12.3854 6.16999L5.23542 4.66999C4.96294 4.6101 4.67869 4.63451 4.42042 4.73999L3.64542 5.04999L3.29542 4.77499C3.19878 4.69921 3.12378 4.59935 3.07794 4.48543C3.0321 4.37151 3.01704 4.24753 3.03426 4.12595C3.05149 4.00436 3.10039 3.88945 3.17607 3.79274C3.25175 3.69603 3.35154 3.62093 3.46542 3.57499L4.42042 3.18999C4.67973 3.08892 4.96266 3.06462 5.23542 3.11999L13.0004 4.74999L13.3054 5.06499Z" fill="#80DDFF"/>
<path d="M18.9249 20.395L14.2249 14.395L9.27491 9.44L3.27491 4.74C3.17827 4.66423 3.10327 4.56437 3.05743 4.45045C3.01159 4.33653 2.99653 4.21255 3.01376 4.09097C3.03098 3.96938 3.07989 3.85447 3.15556 3.75776C3.23124 3.66105 3.33103 3.58595 3.44491 3.54L4.39991 3.16C4.65653 3.05494 4.93907 3.03052 5.20991 3.09L12.9999 4.755L18.9349 10.7L20.5799 18.455C20.6311 18.7271 20.6034 19.0082 20.4999 19.265L20.1149 20.22C20.0687 20.3321 19.9941 20.4303 19.8985 20.5049C19.8029 20.5795 19.6896 20.628 19.5696 20.6457C19.4497 20.6633 19.3272 20.6495 19.2141 20.6055C19.1011 20.5616 19.0015 20.489 18.9249 20.395Z" stroke="#45413C" stroke-width="0.5" stroke-linecap="round" stroke-linejoin="round"/>
<path d="M4.49987 17.5L13.5699 6.58997C13.7931 6.32327 14.0464 6.08333 14.3249 5.87497C16.5449 3.95497 19.8949 2.59997 21.4099 4.11497C21.6703 4.38137 21.858 4.71022 21.9549 5.06997C22.1849 3.94997 22.0699 2.92997 21.4099 2.26997C19.9099 0.769974 16.5449 2.11497 14.3249 4.03497C14.0449 4.23956 13.7913 4.47804 13.5699 4.74497L4.49987 15.67C4.19246 16.0287 3.98673 16.4632 3.90408 16.9284C3.82142 17.3935 3.86486 17.8723 4.02987 18.315C4.14031 18.0191 4.29914 17.7437 4.49987 17.5Z" fill="white"/>
<path d="M19.6502 9.36C21.5702 7.14 22.9303 3.79 21.4102 2.27C19.8902 0.750003 16.5452 2.115 14.3252 4.035C14.0452 4.23959 13.7916 4.47807 13.5702 4.745L4.50025 15.67C4.07799 16.1476 3.84952 16.7658 3.8597 17.4032C3.86988 18.0406 4.11796 18.6511 4.55525 19.115C5.01902 19.5519 5.62907 19.8002 6.26615 19.8113C6.90323 19.8224 7.52154 19.5955 8.00025 19.175L18.9403 10.11C19.2059 9.88908 19.4442 9.63731 19.6502 9.36Z" fill="#E8F4FA"/>
<path d="M19.6502 9.36C21.5702 7.14 22.9302 3.79 21.4102 2.27C19.8902 0.750003 16.5452 2.115 14.3252 4.035C14.0452 4.23959 13.7916 4.47807 13.5702 4.745L4.50025 15.67C4.07799 16.1476 3.84952 16.7658 3.8597 17.4032C3.86988 18.0406 4.11796 18.6511 4.55525 19.115C5.01902 19.5519 5.62907 19.8002 6.26615 19.8113C6.90323 19.8224 7.52154 19.5955 8.00025 19.175L18.9403 10.11C19.2059 9.88908 19.4442 9.63731 19.6502 9.36Z" stroke="#45413C" stroke-width="0.5" stroke-linecap="round" stroke-linejoin="round"/>
<path d="M19.4151 4.26498C18.9966 3.85732 18.4877 3.55426 17.9299 3.38048C17.3721 3.20671 16.7811 3.16714 16.2051 3.26498L16.0351 4.76498C16.0281 4.81919 16.0339 4.87428 16.052 4.92584C16.0701 4.9774 16.1001 5.024 16.1395 5.06191C16.1788 5.09982 16.2265 5.12799 16.2787 5.14415C16.3309 5.16031 16.3862 5.16402 16.4401 5.15498C16.9401 5.06998 17.7551 5.07498 18.1751 5.49498C18.5951 5.91498 18.6051 6.74998 18.5151 7.23498C18.5061 7.28888 18.5098 7.34415 18.5259 7.39636C18.5421 7.44857 18.5703 7.49627 18.6082 7.53564C18.6461 7.57501 18.6927 7.60495 18.7443 7.62307C18.7958 7.64119 18.8509 7.64698 18.9051 7.63998L20.4051 7.46998C20.5014 6.89556 20.462 6.30658 20.2901 5.75009C20.1183 5.1936 19.8186 4.68502 19.4151 4.26498Z" fill="#00B8F0"/>
<path d="M16.2051 3.25503L16.0351 4.75503C16.0281 4.80923 16.0339 4.86432 16.052 4.91589C16.0701 4.96745 16.1001 5.01405 16.1395 5.05196C16.1788 5.08987 16.2265 5.11803 16.2787 5.1342C16.3309 5.15036 16.3862 5.15407 16.4401 5.14503C16.726 5.09818 17.017 5.08977 17.3051 5.12003L19.3651 4.19503C18.9458 3.80636 18.4427 3.51941 17.8948 3.3564C17.3468 3.1934 16.7686 3.15871 16.2051 3.25503Z" fill="#4ACFFF"/>
<path d="M19.4151 4.26498C18.9966 3.85732 18.4877 3.55426 17.9299 3.38048C17.3721 3.20671 16.7811 3.16714 16.2051 3.26498L16.0351 4.76498C16.0281 4.81919 16.0339 4.87428 16.052 4.92584C16.0701 4.9774 16.1001 5.024 16.1395 5.06191C16.1788 5.09982 16.2265 5.12799 16.2787 5.14415C16.3309 5.16031 16.3862 5.16402 16.4401 5.15498C16.9401 5.06998 17.7551 5.07498 18.1751 5.49498C18.5951 5.91498 18.6051 6.74998 18.5151 7.23498C18.5061 7.28888 18.5098 7.34415 18.5259 7.39636C18.5421 7.44857 18.5703 7.49627 18.6082 7.53564C18.6461 7.57501 18.6927 7.60495 18.7443 7.62307C18.7958 7.64119 18.8509 7.64698 18.9051 7.63998L20.4051 7.46998C20.5014 6.89556 20.462 6.30658 20.2901 5.75009C20.1183 5.1936 19.8186 4.68502 19.4151 4.26498Z" stroke="#45413C" stroke-width="0.5" stroke-linecap="round" stroke-linejoin="round"/>
<path d="M19.6502 9.35998C20.2234 8.62154 20.5146 7.70297 20.4715 6.76918C20.4284 5.83539 20.0539 4.94752 19.4152 4.26498C18.7338 3.6255 17.8462 3.25083 16.9127 3.20864C15.9792 3.16646 15.0615 3.45956 14.3252 4.03498" stroke="#45413C" stroke-width="0.5" stroke-linecap="round" stroke-linejoin="round"/>
<path d="M4.56541 19.115C4.49949 19.0495 4.44719 18.9716 4.41149 18.8858C4.3758 18.8 4.35742 18.708 4.35742 18.615C4.35742 18.5221 4.3758 18.4301 4.41149 18.3443C4.44719 18.2585 4.49949 18.1805 4.56541 18.115L7.29041 15.39C7.35607 15.3244 7.43402 15.2723 7.51981 15.2367C7.6056 15.2012 7.69755 15.1829 7.79041 15.1829C7.88326 15.1829 7.97521 15.2012 8.061 15.2367C8.14679 15.2723 8.22474 15.3244 8.29041 15.39C8.35607 15.4557 8.40815 15.5336 8.44369 15.6194C8.47922 15.7052 8.49751 15.7972 8.49751 15.89C8.49751 15.9829 8.47922 16.0748 8.44369 16.1606C8.40815 16.2464 8.35607 16.3244 8.29041 16.39L5.56541 19.115C5.49989 19.1809 5.42198 19.2333 5.33617 19.2689C5.25036 19.3046 5.15834 19.323 5.06541 19.323C4.97247 19.323 4.88045 19.3046 4.79464 19.2689C4.70883 19.2333 4.63093 19.1809 4.56541 19.115Z" fill="#4ACFFF" stroke="#45413C" stroke-width="0.5" stroke-linecap="round" stroke-linejoin="round"/>
</svg>
