<svg width="24" height="24" viewBox="0 0 24 24" fill="none" xmlns="http://www.w3.org/2000/svg">
<g clip-path="url(#clip0_146_513)">
<path d="M10.5403 23.25H9.59228C9.59228 23.25 8.71028 21.018 8.84628 19.426L10.7916 19.792C11.157 20.8394 10.5403 23.25 10.5403 23.25ZM13.4183 23.25H14.3663C14.3663 23.25 15.2483 21.018 15.1123 19.426L13.167 19.792C12.8016 20.8394 13.4183 23.25 13.4183 23.25Z" fill="#FFDC5D"/>
<path d="M9.07781 23.4327C9.14848 23.2707 9.29848 22.97 9.31448 22.796C9.33048 22.622 9.33848 22.56 9.48115 22.512C9.72248 22.4313 10.4785 22.454 10.6085 22.5013C10.7378 22.5487 10.7398 22.6767 10.7585 22.784C10.7771 22.8913 10.8371 23.0667 10.9165 23.2107C10.9958 23.3547 11.2005 23.6753 11.0978 23.9C11.0551 23.9933 10.8165 23.992 10.0518 23.992C9.28715 23.992 9.06781 23.9747 9.01581 23.9133C8.96248 23.852 9.00648 23.5953 9.07781 23.4327ZM14.8805 23.4327C14.8098 23.2707 14.6598 22.97 14.6438 22.796C14.6278 22.622 14.6198 22.56 14.4771 22.512C14.2358 22.4313 13.4798 22.454 13.3498 22.5013C13.2205 22.5487 13.2185 22.6767 13.1998 22.784C13.1811 22.8913 13.1211 23.0667 13.0418 23.2107C12.9631 23.3547 12.7578 23.6753 12.8605 23.9C12.9031 23.9933 13.1418 23.992 13.9065 23.992C14.6711 23.992 14.8905 23.9747 14.9425 23.9133C14.9945 23.852 14.9511 23.5953 14.8805 23.4327Z" fill="#4289C1"/>
<path d="M5.76432 2.76397C5.77165 2.84864 6.34499 3.78731 6.64632 4.52064C6.94765 5.25397 7.11965 5.98597 7.27832 6.15264C7.59565 6.48531 8.80165 7.40531 9.45899 8.38131C10.1163 9.35731 9.83899 10.05 9.39632 10.3293C8.80965 10.6993 8.19432 10.4653 7.77165 9.80397C7.14526 8.79219 6.5365 7.76959 5.94565 6.73664C5.74165 6.37597 5.26699 5.72864 4.97965 5.02064C4.70899 4.35397 4.67699 3.57531 4.63632 3.47931C4.51699 3.19597 4.05099 2.82797 4.02832 2.54131C4.02832 2.54131 5.73965 2.47797 5.76432 2.76397ZM18.2363 2.76397C18.229 2.84864 17.6557 3.78731 17.3543 4.52064C17.053 5.25397 16.881 5.98597 16.7223 6.15264C16.405 6.48531 15.199 7.40531 14.5417 8.38131C13.8843 9.35731 14.1617 10.05 14.6043 10.3293C15.191 10.6993 15.8063 10.4653 16.229 9.80397C16.5297 9.33331 17.5297 7.66464 18.055 6.73664C18.2577 6.37664 18.733 5.72931 19.0203 5.02131C19.291 4.35464 19.323 3.57597 19.3637 3.47997C19.4823 3.19664 19.949 2.82864 19.9717 2.54264C19.9723 2.54131 18.261 2.47797 18.2363 2.76397Z" fill="#FFDC5D"/>
<path d="M24 2.33333C24 2.42174 23.9649 2.50652 23.9024 2.56904C23.8399 2.63155 23.7551 2.66667 23.6667 2.66667H0.333333C0.244928 2.66667 0.160143 2.63155 0.0976311 2.56904C0.035119 2.50652 0 2.42174 0 2.33333C0 2.24493 0.035119 2.16014 0.0976311 2.09763C0.160143 2.03512 0.244928 2 0.333333 2H23.6667C23.7551 2 23.8399 2.03512 23.9024 2.09763C23.9649 2.16014 24 2.24493 24 2.33333Z" fill="#99AAB5"/>
<path d="M22.667 0C22.4902 0 22.3206 0.0702379 22.1956 0.195262C22.0706 0.320286 22.0003 0.489856 22.0003 0.666667C22.0003 0.489856 21.9301 0.320286 21.8051 0.195262C21.68 0.0702379 21.5105 0 21.3337 0C21.1568 0 20.9873 0.0702379 20.8623 0.195262C20.7372 0.320286 20.667 0.489856 20.667 0.666667V4C20.667 4.17681 20.7372 4.34638 20.8623 4.4714C20.9873 4.59643 21.1568 4.66667 21.3337 4.66667C21.5105 4.66667 21.68 4.59643 21.8051 4.4714C21.9301 4.34638 22.0003 4.17681 22.0003 4C22.0003 4.17681 22.0706 4.34638 22.1956 4.4714C22.3206 4.59643 22.4902 4.66667 22.667 4.66667C22.8438 4.66667 23.0134 4.59643 23.1384 4.4714C23.2634 4.34638 23.3337 4.17681 23.3337 4V0.666667C23.3337 0.489856 23.2634 0.320286 23.1384 0.195262C23.0134 0.0702379 22.8438 0 22.667 0ZM2.66699 0C2.49018 0 2.32061 0.0702379 2.19559 0.195262C2.07056 0.320286 2.00033 0.489856 2.00033 0.666667C2.00033 0.489856 1.93009 0.320286 1.80506 0.195262C1.68004 0.0702379 1.51047 0 1.33366 0C1.15685 0 0.987279 0.0702379 0.862254 0.195262C0.73723 0.320286 0.666992 0.489856 0.666992 0.666667V4C0.666992 4.17681 0.73723 4.34638 0.862254 4.4714C0.987279 4.59643 1.15685 4.66667 1.33366 4.66667C1.51047 4.66667 1.68004 4.59643 1.80506 4.4714C1.93009 4.34638 2.00033 4.17681 2.00033 4C2.00033 4.17681 2.07056 4.34638 2.19559 4.4714C2.32061 4.59643 2.49018 4.66667 2.66699 4.66667C2.8438 4.66667 3.01337 4.59643 3.1384 4.4714C3.26342 4.34638 3.33366 4.17681 3.33366 4V0.666667C3.33366 0.489856 3.26342 0.320286 3.1384 0.195262C3.01337 0.0702379 2.8438 0 2.66699 0Z" fill="#292F33"/>
<path d="M16.6124 9.20403C16.1957 8.81536 14.7817 8.05536 14.7817 8.05536C14.287 8.33469 13.9264 8.89336 13.787 9.13336C13.3437 9.21136 13.0197 9.33336 13.0197 9.33336H10.9804C10.9804 9.33336 10.6564 9.21136 10.213 9.13336C10.0737 8.89336 9.71303 8.33536 9.21836 8.05536C9.21836 8.05536 7.80436 8.81536 7.3877 9.20403C7.5277 9.56203 7.7157 9.90202 7.86503 10.1487C8.03503 11.0087 8.62903 11.9907 8.71903 12.1574C8.9977 12.6774 9.33369 15 9.33369 15L12.0004 16L14.667 15C14.667 15 15.003 12.6774 15.2817 12.1574C15.371 11.9907 15.965 11.008 16.1357 10.1487C16.3209 9.8478 16.4804 9.53179 16.6124 9.20403Z" fill="#4289C1"/>
<path d="M10.9805 7.60797V9.6473C10.9805 9.91765 11.0879 10.1769 11.279 10.3681C11.4702 10.5592 11.7295 10.6666 11.9998 10.6666C12.2701 10.6666 12.5294 10.5592 12.7206 10.3681C12.9117 10.1769 13.0191 9.91765 13.0191 9.6473V7.60797H10.9805Z" fill="#FFDC5D"/>
<path d="M12.2497 2.23535C11.6564 2.23535 11.1084 2.42469 10.659 2.74402C10.2119 2.76623 9.79034 2.95929 9.48144 3.28333C9.17253 3.60738 8.99984 4.03766 8.99902 4.48535C8.99902 5.25602 9.00236 6.22735 10.0184 6.58935C10.2932 6.97216 10.6619 7.2779 11.0889 7.47724C11.516 7.67658 11.9871 7.76282 12.457 7.72771C12.927 7.69259 13.3801 7.53728 13.7727 7.27669C14.1654 7.0161 14.4845 6.65897 14.6995 6.23956C14.9144 5.82015 15.0179 5.35255 15.0002 4.88161C14.9824 4.41067 14.8439 3.9522 14.5979 3.55019C14.352 3.14818 14.0068 2.81613 13.5956 2.58589C13.1844 2.35564 12.721 2.23494 12.2497 2.23535Z" fill="#FFAC33"/>
<path d="M14.5 3.73468H9.5V6.73468C9.5 7.39772 9.76339 8.03361 10.2322 8.50245C10.7011 8.97129 11.337 9.23468 12 9.23468C12.663 9.23468 13.2989 8.97129 13.7678 8.50245C14.2366 8.03361 14.5 7.39772 14.5 6.73468V3.73468Z" fill="#FFDC5D"/>
<path d="M11.9998 2.66669L9.38379 3.68869V5.78135C10.6045 5.78135 10.8745 4.51935 10.9351 3.95669C10.9558 4.51935 11.3611 5.78135 14.6151 5.78135V3.68869L11.9998 2.66669Z" fill="#FFAC33"/>
<path d="M13 8.23535H11C11 8.23535 11 8.73535 12 8.73535C13 8.73535 13 8.23535 13 8.23535Z" fill="#C1694F"/>
<path d="M10.75 6.73535C10.8881 6.73535 11 6.62342 11 6.48535C11 6.34728 10.8881 6.23535 10.75 6.23535C10.6119 6.23535 10.5 6.34728 10.5 6.48535C10.5 6.62342 10.6119 6.73535 10.75 6.73535Z" fill="#662113"/>
<path d="M13.5 6.48535C13.5 6.55166 13.4737 6.61524 13.4268 6.66213C13.3799 6.70901 13.3163 6.73535 13.25 6.73535C13.1837 6.73535 13.1201 6.70901 13.0732 6.66213C13.0263 6.61524 13 6.55166 13 6.48535C13 6.41905 13.0263 6.35546 13.0732 6.30858C13.1201 6.26169 13.1837 6.23535 13.25 6.23535C13.3163 6.23535 13.3799 6.26169 13.4268 6.30858C13.4737 6.35546 13.5 6.41905 13.5 6.48535Z" fill="#662113"/>
<path d="M11.5 7.23535H12.5C12.5 7.23535 12.5 7.73535 12 7.73535C11.5 7.73535 11.5 7.23535 11.5 7.23535Z" fill="#C1694F"/>
<path d="M18.0637 2.90867C17.8437 2.804 17.7463 2.62333 17.8123 2.42933L17.8143 2.42267C17.8803 2.22867 18.0083 2.192 18.3063 2.19667C18.3063 2.19667 19.3203 2.24733 19.931 2.67133C19.931 2.67133 19.7983 2.874 19.633 3.04467L19.631 3.05133C19.5637 3.24467 18.555 3.14267 18.0637 2.90867Z" fill="#FFDC5D"/>
<path d="M18.5616 2.31329C18.5176 2.30241 18.4798 2.27456 18.4563 2.23583C18.4328 2.1971 18.4256 2.15065 18.4363 2.10663L18.4943 1.86863C18.5163 1.77729 18.6096 1.72129 18.7009 1.74329C18.7923 1.76529 18.8483 1.85863 18.8263 1.94996L18.7683 2.18796C18.7569 2.23165 18.729 2.26919 18.6904 2.29259C18.6518 2.316 18.6056 2.32342 18.5616 2.31329ZM18.2649 1.73329C18.2124 1.71591 18.1552 1.71995 18.1056 1.74454C18.056 1.76913 18.0182 1.81229 18.0003 1.86463L17.8143 2.42263C17.7776 2.53196 17.9263 2.37729 18.0356 2.41396C18.088 2.43156 18.1453 2.4277 18.1949 2.40321C18.2445 2.37873 18.2824 2.33562 18.3003 2.28329L18.3963 1.99863C18.4137 1.94602 18.4097 1.88867 18.3851 1.839C18.3605 1.78934 18.3173 1.75136 18.2649 1.73329Z" fill="#FFDC5D"/>
<path d="M18.9221 2.26599C18.8782 2.2551 18.8403 2.22725 18.8168 2.18852C18.7933 2.1498 18.7861 2.10334 18.7968 2.05932L18.8515 1.83666C18.8735 1.74532 18.9668 1.68932 19.0581 1.71132C19.1495 1.73332 19.2055 1.82666 19.1835 1.91799L19.1288 2.14066C19.1175 2.18434 19.0895 2.22188 19.0509 2.24529C19.0123 2.26869 18.9661 2.27612 18.9221 2.26599Z" fill="#FFDC5D"/>
<path d="M19.2659 2.28268C19.2219 2.27179 19.1841 2.24394 19.1606 2.20521C19.1371 2.16648 19.1299 2.12003 19.1406 2.07601L19.1859 1.89134C19.2079 1.80001 19.3012 1.74401 19.3926 1.76601C19.4839 1.78801 19.5399 1.88134 19.5179 1.97268L19.4726 2.15734C19.4612 2.20103 19.4333 2.23857 19.3947 2.26198C19.3561 2.28538 19.3099 2.29281 19.2659 2.28268Z" fill="#FFDC5D"/>
<path d="M19.6126 2.29799C19.5686 2.28711 19.5307 2.25925 19.5073 2.22052C19.4838 2.1818 19.4766 2.13534 19.4872 2.09132L19.5139 1.98332C19.5359 1.89199 19.6292 1.83599 19.7206 1.85799C19.8119 1.87999 19.8679 1.97332 19.8459 2.06466L19.8192 2.17266C19.8084 2.21662 19.7805 2.25449 19.7418 2.27798C19.703 2.30146 19.6566 2.30866 19.6126 2.29799Z" fill="#FFDC5D"/>
<path d="M5.93569 2.90866C6.15569 2.80399 6.25303 2.62333 6.18703 2.42933L6.18503 2.42266C6.11903 2.22933 5.99103 2.19199 5.69303 2.19666C5.69303 2.19666 4.67903 2.24733 4.06836 2.67133C4.06836 2.67133 4.20103 2.87399 4.36636 3.04466L4.36836 3.05133C4.43569 3.24466 5.44436 3.14266 5.93569 2.90866Z" fill="#FFDC5D"/>
<path d="M5.43803 2.31329C5.482 2.30241 5.51987 2.27456 5.54335 2.23583C5.56684 2.1971 5.57404 2.15065 5.56337 2.10663L5.50537 1.86863C5.49448 1.82466 5.46663 1.7868 5.4279 1.76331C5.38917 1.73982 5.34272 1.73263 5.2987 1.74329C5.25501 1.75464 5.21748 1.78258 5.19407 1.82118C5.17066 1.85977 5.16324 1.90598 5.17337 1.94996L5.23137 2.18796C5.24272 2.23165 5.27066 2.26919 5.30925 2.29259C5.34785 2.316 5.39405 2.32342 5.43803 2.31329ZM5.7347 1.73329C5.78722 1.71591 5.84448 1.71995 5.89404 1.74454C5.94359 1.76913 5.98145 1.81229 5.99937 1.86463L6.18537 2.42263C6.22203 2.53196 6.07337 2.37729 5.96403 2.41396C5.9116 2.43156 5.85434 2.4277 5.80475 2.40321C5.75516 2.37873 5.71728 2.33562 5.69937 2.28329L5.60337 1.99863C5.58596 1.94602 5.58998 1.88867 5.61457 1.839C5.63915 1.78934 5.68231 1.75136 5.7347 1.73329Z" fill="#FFDC5D"/>
<path d="M5.07705 2.26597C5.12102 2.25508 5.15888 2.22723 5.18237 2.1885C5.20585 2.14977 5.21305 2.10332 5.20238 2.0593L5.14772 1.83664C5.13683 1.79267 5.10898 1.7548 5.07025 1.73132C5.03152 1.70783 4.98507 1.70063 4.94105 1.7113C4.89721 1.72233 4.8595 1.75025 4.83615 1.78896C4.8128 1.82767 4.80569 1.87404 4.81638 1.91797L4.87105 2.14064C4.88178 2.18455 4.90951 2.22241 4.94813 2.24591C4.98675 2.26941 5.03311 2.27662 5.07705 2.26597Z" fill="#FFDC5D"/>
<path d="M4.73318 2.28263C4.77714 2.27174 4.81501 2.24389 4.8385 2.20516C4.86198 2.16643 4.86918 2.11998 4.85851 2.07596L4.81318 1.89129C4.80842 1.86894 4.79922 1.84777 4.78612 1.82903C4.77302 1.8103 4.7563 1.79439 4.73693 1.78225C4.71757 1.7701 4.69596 1.76197 4.6734 1.75834C4.65083 1.7547 4.62776 1.75564 4.60557 1.76109C4.58337 1.76653 4.56249 1.77639 4.54417 1.79006C4.52586 1.80373 4.51047 1.82094 4.49893 1.84067C4.48739 1.8604 4.47993 1.88225 4.477 1.90491C4.47406 1.92758 4.47571 1.95061 4.48184 1.97263L4.52718 2.15729C4.53791 2.20121 4.56563 2.23907 4.60426 2.26257C4.64288 2.28606 4.68924 2.29328 4.73318 2.28263Z" fill="#FFDC5D"/>
<path d="M4.38748 2.298C4.43145 2.28711 4.46931 2.25926 4.4928 2.22053C4.51629 2.1818 4.52348 2.13535 4.51281 2.09133L4.48681 1.98333C4.47546 1.93964 4.44752 1.90211 4.40893 1.8787C4.37033 1.8553 4.32413 1.84787 4.28015 1.858C4.23646 1.86935 4.19892 1.89729 4.17552 1.93588C4.15211 1.97448 4.14468 2.02068 4.15481 2.06467L4.18148 2.17267C4.19221 2.21658 4.21994 2.25444 4.25856 2.27794C4.29718 2.30144 4.34354 2.30865 4.38748 2.298Z" fill="#FFDC5D"/>
<path d="M14.667 16.3333L12.0003 15.3333L9.33366 16.3333C9.33366 16.3333 8.76433 17.6113 8.66699 19.792H10.7917C11.403 19.1393 11.625 17.3893 11.625 17.3893H12.375C12.375 17.3893 12.597 19.1393 13.2083 19.792H15.3337C15.2363 17.6113 14.667 16.3333 14.667 16.3333Z" fill="#3A6693"/>
<path d="M9.33301 15H14.6663V16.3333H9.33301V15Z" fill="#C1694F"/>
<path d="M12.667 14.9327H13.1003V16.4053H12.667V14.9327Z" fill="#14171A"/>
<path d="M12.333 15.75C12.3945 15.75 12.4443 15.7002 12.4443 15.6387C12.4443 15.5772 12.3945 15.5273 12.333 15.5273C12.2715 15.5273 12.2217 15.5772 12.2217 15.6387C12.2217 15.7002 12.2715 15.75 12.333 15.75Z" fill="#14171A"/>
<path d="M12.0137 15.6387C12.0137 15.6682 12.002 15.6965 11.9811 15.7174C11.9602 15.7383 11.9319 15.75 11.9023 15.75C11.8728 15.75 11.8445 15.7383 11.8236 15.7174C11.8027 15.6965 11.791 15.6682 11.791 15.6387C11.791 15.6091 11.8027 15.5808 11.8236 15.56C11.8445 15.5391 11.8728 15.5273 11.9023 15.5273C11.9319 15.5273 11.9602 15.5391 11.9811 15.56C12.002 15.5808 12.0137 15.6091 12.0137 15.6387Z" fill="#14171A"/>
<path d="M11.4717 15.75C11.5332 15.75 11.583 15.7002 11.583 15.6387C11.583 15.5772 11.5332 15.5273 11.4717 15.5273C11.4102 15.5273 11.3604 15.5772 11.3604 15.6387C11.3604 15.7002 11.4102 15.75 11.4717 15.75Z" fill="#14171A"/>
<path d="M11.041 15.75C11.1025 15.75 11.1524 15.7002 11.1524 15.6387C11.1524 15.5772 11.1025 15.5273 11.041 15.5273C10.9795 15.5273 10.9297 15.5772 10.9297 15.6387C10.9297 15.7002 10.9795 15.75 11.041 15.75Z" fill="#14171A"/>
<path d="M10.6113 15.75C10.6728 15.75 10.7227 15.7002 10.7227 15.6387C10.7227 15.5772 10.6728 15.5273 10.6113 15.5273C10.5498 15.5273 10.5 15.5772 10.5 15.6387C10.5 15.7002 10.5498 15.75 10.6113 15.75Z" fill="#14171A"/>
<path d="M10.1807 15.75C10.2422 15.75 10.292 15.7002 10.292 15.6387C10.292 15.5772 10.2422 15.5273 10.1807 15.5273C10.1192 15.5273 10.0693 15.5772 10.0693 15.6387C10.0693 15.7002 10.1192 15.75 10.1807 15.75Z" fill="#14171A"/>
<path d="M9.75001 15.75C9.81149 15.75 9.86134 15.7002 9.86134 15.6387C9.86134 15.5772 9.81149 15.5273 9.75001 15.5273C9.68852 15.5273 9.63867 15.5772 9.63867 15.6387C9.63867 15.7002 9.68852 15.75 9.75001 15.75Z" fill="#14171A"/>
<path d="M11.4717 15.75C11.5332 15.75 11.583 15.7002 11.583 15.6387C11.583 15.5772 11.5332 15.5273 11.4717 15.5273C11.4102 15.5273 11.3604 15.5772 11.3604 15.6387C11.3604 15.7002 11.4102 15.75 11.4717 15.75Z" fill="#14171A"/>
<path d="M11.0352 15.7373C11.0897 15.7373 11.1339 15.6931 11.1339 15.6386C11.1339 15.5842 11.0897 15.54 11.0352 15.54C10.9807 15.54 10.9365 15.5842 10.9365 15.6386C10.9365 15.6931 10.9807 15.7373 11.0352 15.7373Z" fill="#657786"/>
<path d="M10.8789 15.54H11.0356V15.738H10.8789V15.54Z" fill="#657786"/>
<path d="M11.1528 16.564H10.6475V14.766H11.1528V14.9993H10.8801V16.3307H11.1528V16.564Z" fill="#657786"/>
</g>
<defs>
<clipPath id="clip0_146_513">
<rect width="24" height="24" fill="white"/>
</clipPath>
</defs>
</svg>
