<svg width="24" height="24" viewBox="0 0 24 24" fill="none" xmlns="http://www.w3.org/2000/svg">
<path d="M11.8195 1.41938C6.88454 1.30688 1.44142 5.4 1.54642 12.03C1.63829 17.8594 6.01829 22.2712 11.6939 22.3631C17.3695 22.455 22.3983 18.7031 22.4283 12C22.4602 5.24438 17.2477 1.54313 11.8195 1.41938Z" fill="#FF2A23"/>
<path d="M11.8349 3.7856C7.91986 3.91872 3.96924 6.83997 3.87736 11.9906C3.78549 17.1412 8.28736 20.01 11.8349 20.01C16.3386 20.01 20.1017 16.4625 20.008 11.7431C19.9161 7.0256 16.3686 3.63185 11.8349 3.7856Z" fill="#FFFDFE"/>
<path d="M11.9266 5.79187C8.37906 5.71124 5.75781 8.84624 5.72593 11.8369C5.69593 14.8912 7.60656 18.0056 11.8647 18.1594C16.1228 18.3131 18.1253 14.9212 18.1872 12.0525C18.2509 9.18374 15.9672 5.88374 11.9266 5.79187Z" fill="#FF2A23"/>
<path d="M7.87144 11.9493C7.84144 14.6325 9.75207 16.1756 12.0658 16.1756C14.1677 16.1756 16.2302 14.85 16.2302 12.0431C16.2302 9.51372 14.3177 8.00247 12.1896 7.9106C10.0614 7.81685 7.90144 9.35997 7.87144 11.9493Z" fill="white"/>
<path d="M9.76875 11.9287C9.65438 13.5281 10.9556 14.2931 12.1275 14.2931C13.2375 14.2931 14.3325 13.5637 14.3644 12.0825C14.3925 10.6912 13.3013 9.84185 12.1275 9.8006C10.9163 9.75935 9.86063 10.6294 9.76875 11.9287Z" fill="#FB2B22"/>
<path d="M12.5139 12.0544L11.8857 12.4031L13.0839 14.1075C13.0839 14.1075 14.0101 14.1788 14.2239 13.9369C14.4376 13.695 14.1957 12.9825 14.1957 12.9825L12.5139 12.0544Z" fill="#CC1935"/>
<path d="M16.3915 10.2019C16.2228 9.85314 16.0503 9.57376 15.5928 9.66001C15.1371 9.74626 14.2953 10.23 14.1378 10.4588C13.9934 10.6688 13.8528 10.9294 13.8528 10.9294C13.8528 10.9294 12.2403 11.8106 11.9853 11.955C11.5859 12.1838 11.8615 12.6488 12.1428 12.5963C12.5271 12.525 14.2446 11.8256 14.2446 11.8256C14.2446 11.8256 14.6084 11.9119 14.8221 11.9119C15.0359 11.9119 16.2546 11.31 16.4196 11.1994C16.6915 11.0138 16.5621 10.5581 16.3915 10.2019Z" fill="#ACB1B5"/>
<path d="M14.1901 12.9788C14.1901 12.9788 14.1001 13.2975 13.772 13.6275C13.4307 13.9688 13.0801 14.1038 13.0801 14.1038L14.162 15.69C14.162 15.69 14.9663 15.7481 15.5513 15.1781C16.1363 14.6081 15.8813 13.8619 15.8813 13.8619L14.1901 12.9788Z" fill="#C8C8C8"/>
<path d="M15.2627 17.3569L14.1602 15.6881C14.1602 15.6881 14.3439 15.5906 14.5858 15.4256C15.0302 15.1219 15.2777 14.88 15.5945 14.385C15.767 14.1187 15.8777 13.86 15.8777 13.86L17.582 14.7019C17.582 14.7019 17.5445 16.0181 16.9877 16.6594C16.4308 17.3006 15.2627 17.3569 15.2627 17.3569Z" fill="#CC1935"/>
<path d="M15.2627 17.3569L16.2096 18.7763C16.2096 18.7763 17.4452 18.8981 18.4577 17.685C19.4702 16.4719 19.2002 15.4744 19.2002 15.4744L17.5821 14.7C17.5821 14.7 17.2671 15.4575 16.6408 16.185C16.0146 16.9125 15.2627 17.3569 15.2627 17.3569Z" fill="#C8C8C8"/>
<path d="M17.6116 20.8744L16.2109 18.7781C16.2109 18.7781 17.2666 18.1613 18.0166 17.2744C18.7947 16.3538 19.2016 15.4781 19.2016 15.4781L21.4684 16.605C21.4684 16.605 20.9584 17.9231 19.8278 19.1138C18.7216 20.2744 17.6116 20.8744 17.6116 20.8744Z" fill="#CC1935"/>
<path d="M15.3022 10.7569C15.514 11.1525 15.8647 11.1562 16.2359 10.9987C16.6072 10.8412 18.3603 9.60187 18.3603 9.60187C18.3603 9.60187 20.7415 10.8 22.2809 10.2C23.8203 9.60187 23.7772 7.97624 23.7772 7.97624L22.8659 7.39874C22.8659 7.39874 23.5297 7.05374 23.7434 6.92624C23.8484 6.86249 24.004 6.62624 23.9178 6.41437C23.8503 6.24937 23.5915 6.19312 23.3778 6.27937C23.164 6.36562 22.5472 6.55874 22.5472 6.55874C22.5472 6.55874 22.7928 5.53687 22.7497 5.48062C22.7065 5.42437 22.264 5.19562 22.264 5.19562C22.264 5.19562 20.824 5.19562 20.6384 5.26687C20.4528 5.33812 19.0278 6.74999 19.0278 6.74999L18.3434 8.14687L18.0509 8.76937C18.0509 8.76937 16.054 9.66374 15.754 9.79124C15.4559 9.92062 15.0415 10.275 15.3022 10.7569Z" fill="#006CA9"/>
<path d="M18.4766 8.59688C18.4766 8.59688 19.3166 7.98938 19.9147 7.68938C20.5129 7.38938 21.6229 7.02375 21.951 6.98438C22.2791 6.945 22.4141 7.03313 22.4722 7.18688C22.5304 7.34063 22.3372 7.53375 22.1722 7.62188C22.0091 7.70813 21.1391 8.10375 20.1754 8.61563C19.2116 9.1275 18.7541 9.5025 18.3641 9.59063C18.1672 9.63563 17.9141 9.45938 17.8991 9.165C17.8879 8.93625 17.9329 8.745 18.0829 8.30625C18.2666 7.76625 18.6697 6.95438 19.0091 6.42563C19.5116 5.64375 20.2354 5.11313 21.036 4.96875C21.8366 4.82438 22.4929 5.02688 22.6579 5.16188C22.821 5.29688 22.8116 5.43563 22.7535 5.4825C22.6954 5.52938 22.6091 5.56688 22.1741 5.41313C21.8722 5.30625 20.9104 5.30625 20.2354 5.80875C19.5529 6.315 19.386 6.62813 19.0879 7.17938C18.7897 7.73063 18.4766 8.59688 18.4766 8.59688Z" fill="#1F87FD"/>
</svg>
