<svg width="12" height="12" viewBox="0 0 12 12" fill="none" xmlns="http://www.w3.org/2000/svg">
<g clip-path="url(#clip0_359_247)">
<path d="M5.91002 0.709627C3.44252 0.653377 0.720953 2.69994 0.773453 6.01494C0.81939 8.92963 3.00939 11.1356 5.8472 11.1815C8.68501 11.2274 11.1994 9.3515 11.2144 5.99994C11.2303 2.62213 8.62408 0.771502 5.91002 0.709627Z" fill="#FF2A23"/>
<path d="M5.91755 1.89265C3.96005 1.95921 1.98474 3.41983 1.9388 5.99515C1.89286 8.57046 4.1438 10.0048 5.91755 10.0048C8.16943 10.0048 10.051 8.23109 10.0041 5.8714C9.95818 3.51265 8.18443 1.81577 5.91755 1.89265Z" fill="#FFFDFE"/>
<path d="M5.9634 2.89578C4.18965 2.85547 2.87903 4.42297 2.86309 5.91828C2.84809 7.44547 3.8034 9.00266 5.93246 9.07953C8.06153 9.15641 9.06278 7.46047 9.09371 6.02609C9.12559 4.59172 7.98371 2.94172 5.9634 2.89578Z" fill="#FF2A23"/>
<path d="M3.9356 5.97452C3.9206 7.31608 4.87591 8.08765 6.03279 8.08765C7.08372 8.08765 8.11497 7.42483 8.11497 6.0214C8.11497 4.75671 7.15872 4.00108 6.09466 3.95515C5.0306 3.90827 3.9506 4.67983 3.9356 5.97452Z" fill="white"/>
<path d="M4.88438 5.96418C4.82719 6.76387 5.47781 7.14637 6.06375 7.14637C6.61875 7.14637 7.16625 6.78168 7.18219 6.04105C7.19625 5.34543 6.65063 4.92074 6.06375 4.90012C5.45813 4.87949 4.93031 5.31449 4.88438 5.96418Z" fill="#FB2B22"/>
<path d="M6.25693 6.02734L5.94287 6.20172L6.54193 7.05391C6.54193 7.05391 7.00506 7.08953 7.11193 6.96859C7.21881 6.84766 7.09787 6.49141 7.09787 6.49141L6.25693 6.02734Z" fill="#CC1935"/>
<path d="M8.19564 5.1011C8.11126 4.92672 8.02501 4.78703 7.79626 4.83016C7.56845 4.87328 7.14751 5.11516 7.06876 5.22953C6.99658 5.33453 6.92626 5.46485 6.92626 5.46485C6.92626 5.46485 6.12001 5.90547 5.99251 5.97766C5.79283 6.09203 5.93064 6.32453 6.07126 6.29828C6.26345 6.26266 7.1222 5.91297 7.1222 5.91297C7.1222 5.91297 7.30408 5.9561 7.41095 5.9561C7.51783 5.9561 8.1272 5.65516 8.2097 5.59985C8.34564 5.50703 8.28095 5.27922 8.19564 5.1011Z" fill="#ACB1B5"/>
<path d="M7.09504 6.48926C7.09504 6.48926 7.05004 6.64863 6.88598 6.81363C6.71535 6.98426 6.54004 7.05176 6.54004 7.05176L7.08098 7.84488C7.08098 7.84488 7.48316 7.87394 7.77566 7.58894C8.06816 7.30394 7.94066 6.93082 7.94066 6.93082L7.09504 6.48926Z" fill="#C8C8C8"/>
<path d="M7.63121 8.67861L7.07996 7.84424C7.07996 7.84424 7.17183 7.79549 7.29277 7.71299C7.51496 7.56111 7.63871 7.44018 7.79714 7.19268C7.88339 7.05955 7.93871 6.93018 7.93871 6.93018L8.79089 7.35111C8.79089 7.35111 8.77214 8.00924 8.49371 8.32986C8.21527 8.65049 7.63121 8.67861 7.63121 8.67861Z" fill="#CC1935"/>
<path d="M7.63123 8.67853L8.10466 9.38822C8.10466 9.38822 8.72248 9.44916 9.22873 8.8426C9.73498 8.23603 9.59998 7.73728 9.59998 7.73728L8.79091 7.3501C8.79091 7.3501 8.63341 7.72885 8.32029 8.0926C8.00716 8.45635 7.63123 8.67853 7.63123 8.67853Z" fill="#C8C8C8"/>
<path d="M8.8059 10.4374L8.10559 9.38926C8.10559 9.38926 8.6334 9.08082 9.0084 8.63738C9.39747 8.17707 9.6009 7.73926 9.6009 7.73926L10.7343 8.30269C10.7343 8.30269 10.4793 8.96176 9.91403 9.55707C9.3609 10.1374 8.8059 10.4374 8.8059 10.4374Z" fill="#CC1935"/>
<path d="M7.65096 5.37828C7.7569 5.57609 7.93221 5.57797 8.11783 5.49922C8.30346 5.42047 9.18002 4.80078 9.18002 4.80078C9.18002 4.80078 10.3706 5.39984 11.1403 5.09984C11.91 4.80078 11.8885 3.98797 11.8885 3.98797L11.4328 3.69922C11.4328 3.69922 11.7647 3.52672 11.8716 3.46297C11.9241 3.43109 12.0019 3.31297 11.9588 3.20703C11.925 3.12453 11.7956 3.09641 11.6888 3.13953C11.5819 3.18266 11.2735 3.27922 11.2735 3.27922C11.2735 3.27922 11.3963 2.76828 11.3747 2.74016C11.3531 2.71203 11.1319 2.59766 11.1319 2.59766C11.1319 2.59766 10.4119 2.59766 10.3191 2.63328C10.2263 2.66891 9.51377 3.37484 9.51377 3.37484L9.17158 4.07328L9.02533 4.38453C9.02533 4.38453 8.0269 4.83172 7.8769 4.89547C7.72783 4.96016 7.52065 5.13734 7.65096 5.37828Z" fill="#006CA9"/>
<path d="M9.23818 4.29841C9.23818 4.29841 9.65818 3.99466 9.95724 3.84466C10.2563 3.69466 10.8113 3.51185 10.9754 3.49216C11.1394 3.47247 11.2069 3.51653 11.236 3.59341C11.2651 3.67028 11.1685 3.76685 11.086 3.81091C11.0044 3.85403 10.5694 4.05185 10.0876 4.30778C9.60568 4.56372 9.37693 4.75122 9.18193 4.79528C9.08349 4.81778 8.95693 4.72966 8.94943 4.58247C8.9438 4.4681 8.9663 4.37247 9.0413 4.1531C9.13318 3.8831 9.33474 3.47716 9.50443 3.21278C9.75568 2.82185 10.1176 2.55653 10.5179 2.48435C10.9182 2.41216 11.2463 2.51341 11.3288 2.58091C11.4104 2.64841 11.4057 2.71778 11.3766 2.74122C11.3476 2.76466 11.3044 2.78341 11.0869 2.70653C10.936 2.6531 10.4551 2.6531 10.1176 2.90435C9.7763 3.15747 9.69287 3.31403 9.5438 3.58966C9.39474 3.86528 9.23818 4.29841 9.23818 4.29841Z" fill="#1F87FD"/>
</g>
<defs>
<clipPath id="clip0_359_247">
<rect width="12" height="12" fill="white"/>
</clipPath>
</defs>
</svg>
