<svg width="19" height="19" viewBox="0 0 19 19" fill="none" xmlns="http://www.w3.org/2000/svg">
<path d="M18.9384 7.00183C18.4878 3.38151 15.6183 0.512016 11.998 0.0614878C11.45 -0.00671492 11 0.447557 11 0.999841V7.49984C11 7.77598 11.2239 7.99984 11.5 7.99984H18C18.5523 7.99984 19.0066 7.54988 18.9384 7.00183Z" fill="#0866FF"/>
<path d="M9 1.49985C4.30558 1.49985 0.5 5.30543 0.5 9.99985C0.5 14.6943 4.30558 18.4998 9 18.4998C13.6944 18.4998 17.5 14.6943 17.5 9.99985C17.5 9.72371 17.2761 9.49985 17 9.49985H10C9.72386 9.49985 9.5 9.27599 9.5 8.99985V1.99985C9.5 1.72371 9.27614 1.49985 9 1.49985Z" fill="#0866FF"/>
</svg>
