<svg width="24" height="21" viewBox="0 0 24 21" fill="none" xmlns="http://www.w3.org/2000/svg">
<g clip-path="url(#clip0_146_594)">
<path d="M19.7354 5.48588C20.3478 2.96488 18.8736 0.554673 16.4426 0.102544C14.0117 -0.349586 11.5445 1.32757 10.9321 3.84858C10.3197 6.36959 11.7939 8.77979 14.2249 9.23192C16.6559 9.68405 19.123 8.00689 19.7354 5.48588Z" fill="#55ACEE"/>
<path d="M6.48288 8.56744V9.48853C4.87355 9.79478 2.89555 10.5683 2.59689 11.6708C1.66222 15.1194 1.91355 20.4639 1.91355 20.5404V20.6185C1.91355 21 2.35555 21 2.79089 21H13.5222C13.9576 21 14.3989 21 14.3989 20.6185V11.6708C14.3989 10.668 13.4569 9.66528 11.3109 9.43428V8.56744H6.48288Z" fill="#226699"/>
<path d="M17.5176 7.76007V9.48849C19.1269 9.79474 21.1049 10.5682 21.4036 11.6707C22.3376 15.12 22.0869 20.4645 22.0869 20.5403V20.6185C22.0869 21 21.6449 21 21.2096 21H10.4782C10.0429 21 9.60156 21 9.60156 20.6185V11.6707C9.60156 10.668 10.5436 9.66524 12.6896 9.43424V8.5674L17.5176 7.76007Z" fill="#55ACEE"/>
<path d="M9.76978 9.23138C12.2008 8.77925 13.675 6.36905 13.0626 3.84804C12.4502 1.32703 9.98303 -0.350127 7.55205 0.102002C5.12108 0.554131 3.64685 2.96433 4.25925 5.48534C4.87166 8.00635 7.33881 9.68351 9.76978 9.23138Z" fill="#226699"/>
<path d="M12.7275 9.38465C11.8542 9.6069 10.4335 9.70315 8.79555 9.16182C7.06688 8.59015 5.47688 8.02782 4.85688 7.83882C4.29288 7.66673 2.85355 7.81957 2.53288 8.33348C2.21221 8.8474 2.03088 9.78307 2.82421 10.4679C3.61755 11.1527 7.79621 12.5043 8.97755 13.1121C9.59621 13.4306 9.56021 15.3422 9.59621 16.9032C9.65155 19.2616 14.5182 8.92907 12.7275 9.38465Z" fill="#55ACEE"/>
<path d="M8.15552 14.7484C9.04286 14.9223 10.5582 15.2215 12.1549 14.5915C13.8395 13.9265 15.2962 12.9979 15.9009 12.7756C16.4515 12.5732 17.6149 12.3772 18.2555 13.1425C18.6515 13.615 18.8602 14.5624 18.1175 15.2886C17.3742 16.0154 14.4529 17.5747 12.2915 18.0314C10.4589 18.4188 7.64686 18.3814 6.74952 17.5689C5.34886 16.3001 6.93686 14.5093 8.15552 14.7484ZM16.6609 10.0538C16.6609 8.91511 17.8102 8.29445 19.1535 7.83886C19.7102 7.64986 21.1569 7.81961 21.4775 8.33353C21.7982 8.84745 21.9795 9.78311 21.1862 10.4679C20.3929 11.1528 16.6609 11.8061 16.6609 10.0538Z" fill="#226699"/>
</g>
<defs>
<clipPath id="clip0_146_594">
<rect width="24" height="21" fill="white"/>
</clipPath>
</defs>
</svg>
