<svg width="24" height="24" viewBox="0 0 24 24" fill="none" xmlns="http://www.w3.org/2000/svg">
<path d="M9.954 2.21C11.3029 1.92713 12.6958 1.92645 14.045 2.208C14.1349 2.80129 14.3573 3.36669 14.6958 3.86218C15.0342 4.35767 15.48 4.7705 16 5.07C16.5196 5.37053 17.1002 5.55006 17.6987 5.59525C18.2972 5.64044 18.8982 5.55012 19.457 5.331C20.3753 6.35906 21.0709 7.56604 21.5 8.876C21.0313 9.25058 20.6531 9.72595 20.3934 10.2668C20.1337 10.8076 19.9993 11.4 20 12C20 13.264 20.586 14.391 21.502 15.124C21.0703 16.4329 20.3739 17.6389 19.456 18.667C18.8973 18.448 18.2965 18.3578 17.6982 18.403C17.0999 18.4482 16.5194 18.6276 16 18.928C15.4805 19.2274 15.035 19.64 14.6967 20.1351C14.3585 20.6302 14.1361 21.1952 14.046 21.788C12.6972 22.0715 11.3043 22.0729 9.955 21.792C9.86555 21.1982 9.64331 20.6322 9.30482 20.1361C8.96634 19.6401 8.52033 19.2268 8 18.927C7.48036 18.6266 6.8997 18.4473 6.30119 18.4023C5.70268 18.3572 5.10172 18.4477 4.543 18.667C3.6246 17.6386 2.929 16.4313 2.5 15.121C2.96839 14.7466 3.34646 14.2716 3.60613 13.7311C3.86581 13.1906 4.00043 12.5986 4 11.999C4.00049 11.3989 3.86571 10.8064 3.60567 10.2655C3.34563 9.72466 2.96702 9.24938 2.498 8.875C2.92967 7.56612 3.62612 6.3601 4.544 5.332C5.10265 5.55096 5.70347 5.6412 6.30179 5.59601C6.90012 5.55083 7.48057 5.37138 8 5.071C8.51955 4.7716 8.96499 4.35902 9.30326 3.86391C9.64153 3.36879 9.86395 2.80284 9.954 2.21ZM12 15C12.7956 15 13.5587 14.6839 14.1213 14.1213C14.6839 13.5587 15 12.7956 15 12C15 11.2044 14.6839 10.4413 14.1213 9.87868C13.5587 9.31607 12.7956 9 12 9C11.2044 9 10.4413 9.31607 9.87868 9.87868C9.31607 10.4413 9 11.2044 9 12C9 12.7956 9.31607 13.5587 9.87868 14.1213C10.4413 14.6839 11.2044 15 12 15Z" fill="#0866FF"/>
</svg>
