<svg width="188" height="18" viewBox="0 0 188 18" fill="none" xmlns="http://www.w3.org/2000/svg">
<path d="M1.45363 15.816H5.35763V17H-0.00237489V5.848H1.45363V15.816ZM14.9039 12.28C14.9039 12.5573 14.8879 12.8507 14.8559 13.16H7.84788C7.90121 14.024 8.19454 14.7013 8.72788 15.192C9.27188 15.672 9.92788 15.912 10.6959 15.912C11.3252 15.912 11.8479 15.768 12.2639 15.48C12.6905 15.1813 12.9892 14.7867 13.1599 14.296H14.7279C14.4932 15.1387 14.0239 15.8267 13.3199 16.36C12.6159 16.8827 11.7412 17.144 10.6959 17.144C9.86388 17.144 9.11721 16.9573 8.45588 16.584C7.80521 16.2107 7.29321 15.6827 6.91988 15C6.54654 14.3067 6.35988 13.5067 6.35988 12.6C6.35988 11.6933 6.54121 10.8987 6.90388 10.216C7.26654 9.53333 7.77321 9.01067 8.42388 8.648C9.08521 8.27467 9.84254 8.088 10.6959 8.088C11.5279 8.088 12.2639 8.26933 12.9039 8.632C13.5439 8.99467 14.0345 9.496 14.3759 10.136C14.7279 10.7653 14.9039 11.48 14.9039 12.28ZM13.3999 11.976C13.3999 11.4213 13.2772 10.9467 13.0319 10.552C12.7865 10.1467 12.4505 9.84267 12.0239 9.64C11.6079 9.42667 11.1439 9.32 10.6319 9.32C9.89588 9.32 9.26654 9.55467 8.74388 10.024C8.23188 10.4933 7.93854 11.144 7.86388 11.976H13.3999ZM18.6018 9.432V14.6C18.6018 15.0267 18.6924 15.3307 18.8738 15.512C19.0551 15.6827 19.3698 15.768 19.8177 15.768H20.8898V17H19.5778C18.7671 17 18.1591 16.8133 17.7538 16.44C17.3484 16.0667 17.1458 15.4533 17.1458 14.6V9.432H16.0098V8.232H17.1458V6.024H18.6018V8.232H20.8898V9.432H18.6018ZM23.3899 4.264L23.1979 7.448H22.1899L21.9819 4.264H23.3899ZM28.3048 17.144C27.6328 17.144 27.0301 17.032 26.4968 16.808C25.9634 16.5733 25.5421 16.2533 25.2328 15.848C24.9234 15.432 24.7528 14.9573 24.7208 14.424H26.2248C26.2674 14.8613 26.4701 15.2187 26.8328 15.496C27.2061 15.7733 27.6914 15.912 28.2888 15.912C28.8434 15.912 29.2808 15.7893 29.6008 15.544C29.9208 15.2987 30.0808 14.9893 30.0808 14.616C30.0808 14.232 29.9101 13.9493 29.5688 13.768C29.2274 13.576 28.6994 13.3893 27.9848 13.208C27.3341 13.0373 26.8008 12.8667 26.3848 12.696C25.9794 12.5147 25.6274 12.2533 25.3288 11.912C25.0408 11.56 24.8968 11.1013 24.8968 10.536C24.8968 10.088 25.0301 9.67733 25.2968 9.304C25.5634 8.93067 25.9421 8.63733 26.4328 8.424C26.9234 8.2 27.4834 8.088 28.1128 8.088C29.0834 8.088 29.8674 8.33333 30.4648 8.824C31.0621 9.31467 31.3821 9.98667 31.4248 10.84H29.9688C29.9368 10.3813 29.7501 10.0133 29.4088 9.736C29.0781 9.45867 28.6301 9.32 28.0648 9.32C27.5421 9.32 27.1261 9.432 26.8168 9.656C26.5074 9.88 26.3528 10.1733 26.3528 10.536C26.3528 10.824 26.4434 11.064 26.6248 11.256C26.8168 11.4373 27.0514 11.5867 27.3288 11.704C27.6168 11.8107 28.0114 11.9333 28.5128 12.072C29.1421 12.2427 29.6541 12.4133 30.0488 12.584C30.4434 12.744 30.7794 12.9893 31.0568 13.32C31.3448 13.6507 31.4941 14.0827 31.5048 14.616C31.5048 15.096 31.3714 15.528 31.1048 15.912C30.8381 16.296 30.4594 16.6 29.9688 16.824C29.4888 17.0373 28.9341 17.144 28.3048 17.144ZM40.9298 17.144C40.2578 17.144 39.6551 17.032 39.1218 16.808C38.5884 16.5733 38.1671 16.2533 37.8578 15.848C37.5484 15.432 37.3778 14.9573 37.3458 14.424H38.8498C38.8924 14.8613 39.0951 15.2187 39.4578 15.496C39.8311 15.7733 40.3164 15.912 40.9138 15.912C41.4684 15.912 41.9058 15.7893 42.2258 15.544C42.5458 15.2987 42.7058 14.9893 42.7058 14.616C42.7058 14.232 42.5351 13.9493 42.1938 13.768C41.8524 13.576 41.3244 13.3893 40.6098 13.208C39.9591 13.0373 39.4258 12.8667 39.0098 12.696C38.6044 12.5147 38.2524 12.2533 37.9538 11.912C37.6658 11.56 37.5218 11.1013 37.5218 10.536C37.5218 10.088 37.6551 9.67733 37.9218 9.304C38.1884 8.93067 38.5671 8.63733 39.0578 8.424C39.5484 8.2 40.1084 8.088 40.7378 8.088C41.7084 8.088 42.4924 8.33333 43.0898 8.824C43.6871 9.31467 44.0071 9.98667 44.0498 10.84H42.5938C42.5618 10.3813 42.3751 10.0133 42.0338 9.736C41.7031 9.45867 41.2551 9.32 40.6898 9.32C40.1671 9.32 39.7511 9.432 39.4418 9.656C39.1324 9.88 38.9778 10.1733 38.9778 10.536C38.9778 10.824 39.0684 11.064 39.2498 11.256C39.4418 11.4373 39.6764 11.5867 39.9538 11.704C40.2418 11.8107 40.6364 11.9333 41.1378 12.072C41.7671 12.2427 42.2791 12.4133 42.6738 12.584C43.0684 12.744 43.4044 12.9893 43.6818 13.32C43.9698 13.6507 44.1191 14.0827 44.1298 14.616C44.1298 15.096 43.9964 15.528 43.7298 15.912C43.4631 16.296 43.0844 16.6 42.5938 16.824C42.1138 17.0373 41.5591 17.144 40.9298 17.144ZM47.9611 9.432V14.6C47.9611 15.0267 48.0518 15.3307 48.2331 15.512C48.4145 15.6827 48.7291 15.768 49.1771 15.768H50.2491V17H48.9371C48.1265 17 47.5185 16.8133 47.1131 16.44C46.7078 16.0667 46.5051 15.4533 46.5051 14.6V9.432H45.3691V8.232H46.5051V6.024H47.9611V8.232H50.2491V9.432H47.9611ZM51.4693 12.584C51.4693 11.688 51.6506 10.904 52.0133 10.232C52.3759 9.54933 52.8719 9.02133 53.5013 8.648C54.1413 8.27467 54.8506 8.088 55.6293 8.088C56.3973 8.088 57.0639 8.25333 57.6293 8.584C58.1946 8.91467 58.6159 9.33067 58.8933 9.832V8.232H60.3653V17H58.8933V15.368C58.6053 15.88 58.1733 16.3067 57.5973 16.648C57.0319 16.9787 56.3706 17.144 55.6133 17.144C54.8346 17.144 54.1306 16.952 53.5013 16.568C52.8719 16.184 52.3759 15.6453 52.0133 14.952C51.6506 14.2587 51.4693 13.4693 51.4693 12.584ZM58.8933 12.6C58.8933 11.9387 58.7599 11.3627 58.4933 10.872C58.2266 10.3813 57.8639 10.008 57.4053 9.752C56.9573 9.48533 56.4613 9.352 55.9173 9.352C55.3733 9.352 54.8773 9.48 54.4293 9.736C53.9813 9.992 53.6239 10.3653 53.3573 10.856C53.0906 11.3467 52.9573 11.9227 52.9573 12.584C52.9573 13.256 53.0906 13.8427 53.3573 14.344C53.6239 14.8347 53.9813 15.2133 54.4293 15.48C54.8773 15.736 55.3733 15.864 55.9173 15.864C56.4613 15.864 56.9573 15.736 57.4053 15.48C57.8639 15.2133 58.2266 14.8347 58.4933 14.344C58.7599 13.8427 58.8933 13.2613 58.8933 12.6ZM64.2818 9.656C64.5378 9.15467 64.9004 8.76533 65.3698 8.488C65.8498 8.21067 66.4311 8.072 67.1138 8.072V9.576H66.7298C65.0978 9.576 64.2818 10.4613 64.2818 12.232V17H62.8258V8.232H64.2818V9.656ZM70.5705 9.432V14.6C70.5705 15.0267 70.6612 15.3307 70.8425 15.512C71.0238 15.6827 71.3385 15.768 71.7865 15.768H72.8585V17H71.5465C70.7358 17 70.1278 16.8133 69.7225 16.44C69.3172 16.0667 69.1145 15.4533 69.1145 14.6V9.432H67.9785V8.232H69.1145V6.024H70.5705V8.232H72.8585V9.432H70.5705ZM90.5683 8.232L87.8323 17H86.3283L84.2163 10.04L82.1043 17H80.6003L77.8483 8.232H79.3363L81.3523 15.592L83.5283 8.232H85.0163L87.1443 15.608L89.1283 8.232H90.5683ZM92.7653 6.808C92.4879 6.808 92.2533 6.712 92.0613 6.52C91.8693 6.328 91.7733 6.09333 91.7733 5.816C91.7733 5.53867 91.8693 5.304 92.0613 5.112C92.2533 4.92 92.4879 4.824 92.7653 4.824C93.0319 4.824 93.2559 4.92 93.4373 5.112C93.6293 5.304 93.7253 5.53867 93.7253 5.816C93.7253 6.09333 93.6293 6.328 93.4373 6.52C93.2559 6.712 93.0319 6.808 92.7653 6.808ZM93.4693 8.232V17H92.0133V8.232H93.4693ZM97.7268 9.432V14.6C97.7268 15.0267 97.8174 15.3307 97.9988 15.512C98.1801 15.6827 98.4948 15.768 98.9427 15.768H100.015V17H98.7028C97.8921 17 97.2841 16.8133 96.8788 16.44C96.4734 16.0667 96.2708 15.4533 96.2708 14.6V9.432H95.1348V8.232H96.2708V6.024H97.7268V8.232H100.015V9.432H97.7268ZM106.131 8.072C106.792 8.072 107.39 8.216 107.923 8.504C108.456 8.78133 108.872 9.20267 109.171 9.768C109.48 10.3333 109.635 11.0213 109.635 11.832V17H108.195V12.04C108.195 11.1653 107.976 10.4987 107.539 10.04C107.102 9.57067 106.504 9.336 105.747 9.336C104.979 9.336 104.366 9.576 103.907 10.056C103.459 10.536 103.235 11.2347 103.235 12.152V17H101.779V5.16H103.235V9.48C103.523 9.032 103.918 8.68533 104.419 8.44C104.931 8.19467 105.502 8.072 106.131 8.072ZM123.351 5.768V7.96H118.775V10.328H122.199V12.456H118.775V17H116.039V5.768H123.351ZM126.165 7.144C125.685 7.144 125.29 7.00533 124.981 6.728C124.682 6.44 124.533 6.088 124.533 5.672C124.533 5.24533 124.682 4.89333 124.981 4.616C125.29 4.328 125.685 4.184 126.165 4.184C126.634 4.184 127.018 4.328 127.317 4.616C127.626 4.89333 127.781 5.24533 127.781 5.672C127.781 6.088 127.626 6.44 127.317 6.728C127.018 7.00533 126.634 7.144 126.165 7.144ZM127.525 8.072V17H124.789V8.072H127.525ZM134.484 14.68V17H133.092C132.1 17 131.326 16.76 130.772 16.28C130.217 15.7893 129.94 14.9947 129.94 13.896V10.344H128.852V8.072H129.94V5.896H132.676V8.072H134.468V10.344H132.676V13.928C132.676 14.1947 132.74 14.3867 132.868 14.504C132.996 14.6213 133.209 14.68 133.508 14.68H134.484ZM141.448 7.976C142.493 7.976 143.325 8.31733 143.944 9C144.573 9.672 144.888 10.6 144.888 11.784V17H142.168V12.152C142.168 11.5547 142.013 11.0907 141.704 10.76C141.394 10.4293 140.978 10.264 140.456 10.264C139.933 10.264 139.517 10.4293 139.208 10.76C138.898 11.0907 138.744 11.5547 138.744 12.152V17H136.008V8.072H138.744V9.256C139.021 8.86133 139.394 8.552 139.864 8.328C140.333 8.09333 140.861 7.976 141.448 7.976ZM155.205 12.392C155.205 12.648 155.189 12.9147 155.157 13.192H148.965C149.008 13.7467 149.184 14.1733 149.493 14.472C149.813 14.76 150.202 14.904 150.661 14.904C151.344 14.904 151.818 14.616 152.085 14.04H154.997C154.848 14.6267 154.576 15.1547 154.181 15.624C153.797 16.0933 153.312 16.4613 152.725 16.728C152.138 16.9947 151.482 17.128 150.757 17.128C149.882 17.128 149.104 16.9413 148.421 16.568C147.738 16.1947 147.205 15.6613 146.821 14.968C146.437 14.2747 146.245 13.464 146.245 12.536C146.245 11.608 146.432 10.7973 146.805 10.104C147.189 9.41067 147.722 8.87733 148.405 8.504C149.088 8.13067 149.872 7.944 150.757 7.944C151.621 7.944 152.389 8.12533 153.061 8.488C153.733 8.85067 154.256 9.368 154.629 10.04C155.013 10.712 155.205 11.496 155.205 12.392ZM152.405 11.672C152.405 11.2027 152.245 10.8293 151.925 10.552C151.605 10.2747 151.205 10.136 150.725 10.136C150.266 10.136 149.877 10.2693 149.557 10.536C149.248 10.8027 149.056 11.1813 148.981 11.672H152.405ZM160.28 17.128C159.502 17.128 158.808 16.9947 158.2 16.728C157.592 16.4613 157.112 16.0987 156.76 15.64C156.408 15.1707 156.211 14.648 156.168 14.072H158.872C158.904 14.3813 159.048 14.632 159.304 14.824C159.56 15.016 159.875 15.112 160.248 15.112C160.59 15.112 160.851 15.048 161.032 14.92C161.224 14.7813 161.32 14.6053 161.32 14.392C161.32 14.136 161.187 13.9493 160.92 13.832C160.654 13.704 160.222 13.5653 159.624 13.416C158.984 13.2667 158.451 13.112 158.024 12.952C157.598 12.7813 157.23 12.52 156.92 12.168C156.611 11.8053 156.456 11.32 156.456 10.712C156.456 10.2 156.595 9.736 156.872 9.32C157.16 8.89333 157.576 8.55733 158.12 8.312C158.675 8.06667 159.331 7.944 160.088 7.944C161.208 7.944 162.088 8.22133 162.728 8.776C163.379 9.33067 163.752 10.0667 163.848 10.984H161.32C161.278 10.6747 161.139 10.4293 160.904 10.248C160.68 10.0667 160.382 9.976 160.008 9.976C159.688 9.976 159.443 10.04 159.272 10.168C159.102 10.2853 159.016 10.4507 159.016 10.664C159.016 10.92 159.15 11.112 159.416 11.24C159.694 11.368 160.12 11.496 160.696 11.624C161.358 11.7947 161.896 11.9653 162.312 12.136C162.728 12.296 163.091 12.5627 163.4 12.936C163.72 13.2987 163.886 13.7893 163.896 14.408C163.896 14.9307 163.747 15.4 163.448 15.816C163.16 16.2213 162.739 16.5413 162.184 16.776C161.64 17.0107 161.006 17.128 160.28 17.128ZM170.546 14.68V17H169.154C168.162 17 167.389 16.76 166.834 16.28C166.279 15.7893 166.002 14.9947 166.002 13.896V10.344H164.914V8.072H166.002V5.896H168.738V8.072H170.53V10.344H168.738V13.928C168.738 14.1947 168.802 14.3867 168.93 14.504C169.058 14.6213 169.271 14.68 169.57 14.68H170.546Z" fill="black"/>
<path d="M182.886 17L179.454 11.84L176.43 17H171.774L177.174 8.432L171.654 0.151999H176.43L179.814 5.24L182.79 0.151999H187.446L182.094 8.648L187.662 17H182.886Z" fill="url(#paint0_linear_244_121)"/>
<defs>
<linearGradient id="paint0_linear_244_121" x1="164.5" y1="-1.50001" x2="191" y2="17" gradientUnits="userSpaceOnUse">
<stop/>
<stop offset="1" stop-color="#B7ACAC"/>
</linearGradient>
</defs>
</svg>
