<svg width="24" height="24" viewBox="0 0 24 24" fill="none" xmlns="http://www.w3.org/2000/svg">
<path d="M11.3705 20.795C11.5522 20.9313 11.7733 21.005 12.0005 21.005C12.2276 21.005 12.4487 20.9313 12.6305 20.795C14.6305 19.295 20.8705 14.39 21.9005 10.125C23.1305 5.00001 20.0005 1.88501 16.9505 1.88501C14.7305 1.88501 13.1155 3.45001 12.4055 4.30001C12.3591 4.36404 12.2982 4.41616 12.2278 4.45211C12.1574 4.48805 12.0795 4.50679 12.0005 4.50679C11.9214 4.50679 11.8435 4.48805 11.7731 4.45211C11.7027 4.41616 11.6418 4.36404 11.5955 4.30001C10.8855 3.45001 9.27045 1.88501 7.05045 1.88501C4.00045 1.88501 0.870454 5.00001 2.10045 10.125C3.13045 14.39 9.35545 19.3 11.3705 20.795Z" fill="#FFCCDD" stroke="#FFB0CA" stroke-width="0.5" stroke-linecap="round" stroke-linejoin="round"/>
<path d="M11.5446 18.24C11.6753 18.3397 11.8352 18.3938 11.9996 18.3938C12.164 18.3938 12.3239 18.3397 12.4546 18.24C13.9196 17.155 18.4546 13.585 19.1946 10.485C20.0846 6.77498 17.8096 4.48499 15.5946 4.48499C13.9846 4.48499 12.8096 5.61998 12.2946 6.23998C12.2585 6.28308 12.2133 6.31773 12.1624 6.3415C12.1114 6.36528 12.0558 6.3776 11.9996 6.3776C11.9434 6.3776 11.8878 6.36528 11.8368 6.3415C11.7859 6.31773 11.7407 6.28308 11.7046 6.23998C11.1896 5.63498 9.9996 4.49999 8.4046 4.49999C6.1896 4.49999 3.9046 6.77499 4.8046 10.5C5.5546 13.585 10.0796 17.155 11.5446 18.24Z" fill="#FFB0CA" stroke="#FF87AF" stroke-width="0.5" stroke-linecap="round" stroke-linejoin="round"/>
<path opacity="0.7" d="M6.25 22.75C6.25 22.9489 6.8558 23.1397 7.93414 23.2803C9.01247 23.421 10.475 23.5 12 23.5C13.525 23.5 14.9875 23.421 16.0659 23.2803C17.1442 23.1397 17.75 22.9489 17.75 22.75C17.75 22.5511 17.1442 22.3603 16.0659 22.2197C14.9875 22.079 13.525 22 12 22C10.475 22 9.01247 22.079 7.93414 22.2197C6.8558 22.3603 6.25 22.5511 6.25 22.75Z" fill="#FFE5EE"/>
<path d="M11.7053 15.835C11.791 15.8975 11.8943 15.9313 12.0003 15.9313C12.1064 15.9313 12.2097 15.8975 12.2953 15.835C13.2403 15.13 16.1603 12.835 16.6453 10.835C17.2203 8.43997 15.7503 6.96997 14.3203 6.96997C13.9049 6.9964 13.4999 7.11135 13.1326 7.30711C12.7652 7.50286 12.4439 7.77489 12.1903 8.10497C12.1673 8.13319 12.1384 8.15594 12.1055 8.17156C12.0726 8.18719 12.0367 8.19529 12.0003 8.19529C11.9639 8.19529 11.928 8.18719 11.8951 8.17156C11.8623 8.15594 11.8333 8.13319 11.8103 8.10497C11.5567 7.77489 11.2354 7.50286 10.8681 7.30711C10.5007 7.11135 10.0957 6.9964 9.68032 6.96997C8.25032 6.96997 6.78032 8.43997 7.35532 10.835C7.84032 12.825 10.7603 15.13 11.7053 15.835Z" fill="#FF6196"/>
<path d="M14.3203 6.96002C13.9049 6.98645 13.4999 7.1014 13.1326 7.29716C12.7652 7.49291 12.4439 7.76495 12.1903 8.09502C12.1673 8.12324 12.1384 8.14599 12.1055 8.16162C12.0726 8.17724 12.0367 8.18534 12.0003 8.18534C11.9639 8.18534 11.928 8.17724 11.8951 8.16162C11.8623 8.14599 11.8333 8.12324 11.8103 8.09502C11.5567 7.76495 11.2354 7.49291 10.8681 7.29716C10.5007 7.1014 10.0957 6.98645 9.68032 6.96002C8.25032 6.96002 6.78032 8.43002 7.35532 10.825C7.48038 11.2803 7.67791 11.7125 7.94032 12.105C7.9076 12.0232 7.87923 11.9398 7.85532 11.855C7.35532 9.93502 8.65032 8.75502 9.92532 8.75502C10.7065 8.77016 11.4509 9.08947 12.0003 9.64502C12.5497 9.08947 13.2941 8.77016 14.0753 8.75502C15.3503 8.75502 16.6653 9.93502 16.1453 11.855C16.1223 11.9384 16.0939 12.0203 16.0603 12.1C16.323 11.7095 16.5206 11.2789 16.6453 10.825C17.2203 8.43002 15.7503 6.96002 14.3203 6.96002Z" fill="#FF87AF"/>
<path d="M11.7053 15.835C11.791 15.8975 11.8943 15.9313 12.0003 15.9313C12.1064 15.9313 12.2097 15.8975 12.2953 15.835C13.2403 15.13 16.1603 12.835 16.6453 10.835C17.2203 8.43997 15.7503 6.96997 14.3203 6.96997C13.9049 6.9964 13.4999 7.11135 13.1326 7.30711C12.7652 7.50286 12.4439 7.77489 12.1903 8.10497C12.1673 8.13319 12.1384 8.15594 12.1055 8.17156C12.0726 8.18719 12.0367 8.19529 12.0003 8.19529C11.9639 8.19529 11.928 8.18719 11.8951 8.17156C11.8623 8.15594 11.8333 8.13319 11.8103 8.10497C11.5567 7.77489 11.2354 7.50286 10.8681 7.30711C10.5007 7.11135 10.0957 6.9964 9.68032 6.96997C8.25032 6.96997 6.78032 8.43997 7.35532 10.835C7.84032 12.825 10.7603 15.13 11.7053 15.835Z" stroke="#45413C" stroke-width="0.5" stroke-linecap="round" stroke-linejoin="round"/>
</svg>
