<svg width="24" height="24" viewBox="0 0 24 24" fill="none" xmlns="http://www.w3.org/2000/svg">
<path d="M14.9067 5.41877C15.2629 5.79377 15.3379 6.26252 15.1879 6.52502C15.0192 6.82502 14.8129 6.97502 14.4942 6.97502C14.3629 6.97502 13.7442 6.95627 13.4067 7.16252C13.0317 7.38752 12.2254 7.78127 11.2879 7.68752C10.6692 7.63127 9.8629 7.01252 9.4879 7.46252C9.3004 7.68752 9.0004 8.53127 8.98165 9.71252C8.9629 10.5375 9.09415 13.4438 8.71915 15.3C8.7004 15.4313 8.8129 15.5625 8.94415 15.5625C9.3004 15.5438 9.7129 15.3938 10.0692 14.5313C11.9629 9.90002 19.7254 10.2 20.8692 15.4125C21.3004 17.325 21.8817 21.2625 18.1129 22.3875C15.3192 23.2125 11.3817 22.5375 9.28165 22.3688C7.96915 22.2563 3.20665 22.05 2.79415 19.3875C2.6629 18.6188 2.8504 17.2875 3.09415 15.525C3.16915 14.925 3.35665 13.2375 3.9754 11.3813C4.5004 9.88127 5.2504 8.49377 6.1879 6.93752C6.5254 6.37502 6.9379 5.45627 8.0254 4.33127C9.54415 2.75627 11.4004 1.66877 12.4692 1.18127C13.2567 0.825022 13.7067 1.44377 13.9129 1.93127C14.0817 2.34377 15.0567 3.65627 15.5067 4.27502C15.6379 4.46252 15.7317 4.87502 15.4504 5.06252C15.1879 5.26877 14.9067 5.41877 14.9067 5.41877Z" fill="#FFCA28"/>
<mask id="mask0_146_603" style="mask-type:luminance" maskUnits="userSpaceOnUse" x="2" y="1" width="20" height="22">
<path d="M14.9067 5.41877C15.2629 5.79377 15.3379 6.26252 15.1879 6.52502C15.0192 6.82502 14.8129 6.97502 14.4942 6.97502C14.3629 6.97502 13.7442 6.95627 13.4067 7.16252C13.0317 7.38752 12.2254 7.78127 11.2879 7.68752C10.6692 7.63127 9.8629 7.01252 9.4879 7.46252C9.3004 7.68752 9.0004 8.53127 8.98165 9.71252C8.9629 10.5375 9.09415 13.4438 8.71915 15.3C8.7004 15.4313 8.8129 15.5625 8.94415 15.5625C9.3004 15.5438 9.7129 15.3938 10.0692 14.5313C11.9629 9.90002 19.7254 10.2 20.8692 15.4125C21.3004 17.325 21.8817 21.2625 18.1129 22.3875C15.3192 23.2125 11.3817 22.5375 9.28165 22.3688C7.96915 22.2563 3.20665 22.05 2.79415 19.3875C2.6629 18.6188 2.8504 17.2875 3.09415 15.525C3.16915 14.925 3.35665 13.2375 3.9754 11.3813C4.5004 9.88127 5.2504 8.49377 6.1879 6.93752C6.5254 6.37502 6.9379 5.45627 8.0254 4.33127C9.54415 2.75627 11.4004 1.66877 12.4692 1.18127C13.2567 0.825022 13.7067 1.44377 13.9129 1.93127C14.0817 2.34377 15.0567 3.65627 15.5067 4.27502C15.6379 4.46252 15.7317 4.87502 15.4504 5.06252C15.1879 5.26877 14.9067 5.41877 14.9067 5.41877Z" fill="white"/>
</mask>
<g mask="url(#mask0_146_603)">
<path d="M20.5506 13.7625C20.0631 13.7063 18.6193 13.4812 18.4881 14.9437C18.4131 15.75 18.6193 17.6625 17.2693 18.7313C15.9193 19.8 14.2881 20.4188 12.0006 19.2938C11.7943 19.1812 11.7193 19.2563 11.9068 19.4813C12.0943 19.6875 12.8631 20.3625 13.4443 20.6813C13.8943 20.925 13.7443 21.4688 13.1818 21.5438C11.3818 21.7688 10.1631 21.0375 8.60684 21C5.19434 20.9062 4.83809 20.9625 4.14434 20.4938C4.14434 20.4938 3.20684 19.875 3.24434 18.9375C3.39434 13.7812 4.83809 10.2937 6.41309 7.6875C7.18184 6.4125 8.34434 3.8625 12.5443 1.425C12.7506 1.3125 13.1068 1.21875 13.4068 1.6875C13.8193 2.34375 14.0443 2.64375 14.3631 3.13125C14.7006 3.61875 15.2068 3.375 15.2068 3.375L13.2943 0.28125L8.30684 3.16875L3.09434 10.5938L2.00684 20.325L4.51934 22.6312L18.0381 23.3438L21.8631 20.8125V16.2L20.5506 13.7625Z" fill="#FAA700"/>
<path d="M10.9127 7.44373C11.3814 7.46248 12.3564 7.23748 12.8252 6.88123C13.2939 6.52498 13.8189 6.61873 14.0064 6.63748C14.1939 6.65623 14.6252 6.58123 14.5877 6.09373C14.5502 5.60623 14.5314 5.38123 14.5314 5.38123L15.6189 5.53123L15.8814 7.59373L11.6252 9.14998L10.9127 7.44373ZM9.39394 7.33123C9.15019 7.51873 8.30645 8.13748 8.34395 9.80623C8.45644 15.0187 7.29395 14.5687 7.29395 15.7312C7.29395 16.2562 8.92519 15.7312 8.92519 15.7312L9.48769 12.825L9.39394 7.33123ZM18.1689 11.55C18.0752 11.7 18.0002 12.0562 17.4189 11.9437C16.8377 11.8312 15.7877 11.325 13.7064 11.8875C12.9189 12.0937 12.9189 11.55 12.9189 11.55L15.8814 9.91873L18.1689 11.55Z" fill="#FAA700"/>
</g>
<mask id="mask1_146_603" style="mask-type:luminance" maskUnits="userSpaceOnUse" x="2" y="1" width="20" height="22">
<path d="M14.9067 5.41877C15.2629 5.79377 15.3379 6.26252 15.1879 6.52502C15.0192 6.82502 14.8129 6.97502 14.4942 6.97502C14.3629 6.97502 13.7442 6.95627 13.4067 7.16252C13.0317 7.38752 12.2254 7.78127 11.2879 7.68752C10.6692 7.63127 9.8629 7.01252 9.4879 7.46252C9.3004 7.68752 9.0004 8.53127 8.98165 9.71252C8.9629 10.5375 9.09415 13.4438 8.71915 15.3C8.7004 15.4313 8.8129 15.5625 8.94415 15.5625C9.3004 15.5438 9.7129 15.3938 10.0692 14.5313C11.9629 9.90002 19.7254 10.2 20.8692 15.4125C21.3004 17.325 21.8817 21.2625 18.1129 22.3875C15.3192 23.2125 11.3817 22.5375 9.28165 22.3688C7.96915 22.2563 3.20665 22.05 2.79415 19.3875C2.6629 18.6188 2.8504 17.2875 3.09415 15.525C3.16915 14.925 3.35665 13.2375 3.9754 11.3813C4.5004 9.88127 5.2504 8.49377 6.1879 6.93752C6.5254 6.37502 6.9379 5.45627 8.0254 4.33127C9.54415 2.75627 11.4004 1.66877 12.4692 1.18127C13.2567 0.825022 13.7067 1.44377 13.9129 1.93127C14.0817 2.34377 15.0567 3.65627 15.5067 4.27502C15.6379 4.46252 15.7317 4.87502 15.4504 5.06252C15.1879 5.26877 14.9067 5.41877 14.9067 5.41877Z" fill="white"/>
</mask>
<g mask="url(#mask1_146_603)">
<path d="M18.4509 15.75C18.2821 19.0313 14.5884 20.5875 11.9259 18.9375C11.6446 18.7688 11.4196 19.0313 11.6634 19.2188C14.0821 21.1875 16.8384 20.2688 18.0946 18.7125C18.7696 17.8688 19.0696 16.6875 18.9196 15.75C18.8634 15.4313 18.4696 15.4688 18.4509 15.75ZM14.4009 11.1C14.3821 11.25 14.3259 11.7938 13.7259 11.9063C13.5009 11.9438 11.4759 12.6375 10.5571 15.0938C10.2384 15.9563 9.37585 16.125 9.03835 16.1625C8.70085 16.1813 7.23835 15.825 6.6946 17.25C6.60085 17.475 6.37585 17.3625 6.41335 17.2125C6.5071 16.6313 6.71335 15.7313 8.0071 15.5625C8.1571 15.5438 8.28835 15.45 8.32585 15.3C8.6071 14.5688 8.7946 13.8563 9.0946 13.7625C9.41335 13.6688 13.4071 10.875 13.4071 10.875L14.4009 11.1ZM9.1696 9.15003C9.03835 8.96253 8.8321 8.70003 8.92585 8.28753C9.0196 7.87503 9.1321 7.48128 9.1696 7.38753C9.2071 7.29378 9.26335 7.08753 9.07585 6.86253C8.9071 6.67503 9.03835 6.39378 9.30085 6.56253C11.4196 7.95003 12.6946 7.21878 13.1446 6.95628C13.3884 6.80628 14.1196 6.80628 14.4571 6.78753C15.2634 6.76878 15.1696 5.64378 14.5509 5.51253C13.9321 5.38128 13.5571 5.75628 13.0509 5.55003C12.7509 5.43753 12.4509 5.17503 11.9821 5.11878C11.7759 5.10003 11.8509 4.93128 11.9446 4.93128C12.1321 4.93128 12.3009 4.95003 12.4509 4.96878C12.3571 3.93753 13.0696 3.52503 13.0696 2.40003C13.0696 2.21253 13.2009 2.28753 13.2196 2.34378C13.2759 2.51253 13.4259 3.05628 13.2009 3.63753C13.8759 4.18128 14.3446 3.99378 14.7384 4.31253C14.8321 4.40628 14.7759 4.48128 14.7009 4.46253C14.3259 4.33128 14.1196 4.33128 13.9884 4.33128C13.8946 4.33128 13.7446 4.36878 13.7821 4.48128C13.8196 4.59378 13.9134 4.72503 13.9509 4.78128C14.0446 4.89378 13.8946 5.06253 13.7821 4.91253C13.7259 4.83753 13.5196 4.33128 13.2571 4.29378C13.1259 4.27503 12.9759 4.27503 12.9009 4.48128C12.6946 5.08128 12.9384 5.15628 13.2946 5.19378C13.5759 5.21253 13.8571 5.10003 14.0259 5.10003C14.2884 5.10003 14.5696 5.17503 14.6821 5.26878C14.8321 5.15628 15.0946 4.96878 15.2259 4.87503C15.3196 4.80003 15.3759 4.63128 15.2821 4.50003C15.1884 4.35003 14.1571 2.68128 14.1009 2.55003C14.0259 2.43753 13.9884 2.11878 14.1384 2.02503C14.1759 1.91253 16.3134 4.76253 16.3134 4.76253L15.1509 7.36878L9.1696 9.15003Z" fill="#B55E19"/>
</g>
</svg>
