<svg width="24" height="24" viewBox="0 0 24 24" fill="none" xmlns="http://www.w3.org/2000/svg">
<path fill-rule="evenodd" clip-rule="evenodd" d="M11.879 5.49989C10.924 5.61689 10.019 5.95589 9.637 6.26989C7.409 8.11189 6.151 10.5469 5.498 12.6699C5.21682 13.5693 5.02851 14.4951 4.936 15.4329C4.902 15.8159 4.871 16.2169 4.929 16.5999C5.312 17.0339 5.854 17.3489 6.357 17.6189C7.408 18.1839 8.987 18.7699 11.11 19.0059C12.312 19.1399 13.83 19.2159 15.23 19.1039C16.683 18.9869 17.797 18.6819 18.375 18.2189C19.349 17.4399 19.595 16.5309 19.506 15.7349C19.411 14.8789 18.93 14.1549 18.446 13.8319C17.611 13.2759 16.671 13.2199 15.785 13.4519C14.873 13.6919 14.124 14.2119 13.77 14.6379C13.6812 14.745 13.571 14.8325 13.4464 14.8946C13.3219 14.9567 13.1858 14.9922 13.0467 14.9987C12.9077 15.0052 12.7689 14.9826 12.6391 14.9323C12.5093 14.8821 12.3914 14.8053 12.293 14.7069C11.743 14.1569 10.808 13.9969 9.555 14.8319C9.4183 14.9232 9.2612 14.9794 9.09761 14.9954C8.93402 15.0115 8.76899 14.9871 8.61711 14.9242C8.46524 14.8613 8.33121 14.7619 8.22688 14.6349C8.12256 14.5079 8.05116 14.3571 8.019 14.1959C7.733 12.7619 7.882 11.2379 8.146 9.98089C8.412 8.72189 8.812 7.63889 9.106 7.05289C9.18914 6.88701 9.31679 6.74753 9.47467 6.65006C9.63256 6.55258 9.81445 6.50096 10 6.50096C10.1855 6.50096 10.3674 6.55258 10.5253 6.65006C10.6832 6.74753 10.8109 6.88701 10.894 7.05289C11.097 7.45689 11.468 7.81889 11.9 7.97089C12.235 7.75989 12.526 7.46489 12.762 7.14989C13.196 6.57189 13.341 6.02489 13.148 5.54189C12.756 5.40189 12.282 5.45089 11.879 5.49989ZM13.362 3.53589C13.846 3.62889 14.553 3.87089 14.894 4.55289C15.641 6.04689 15.024 7.46689 14.362 8.34989C13.93 8.92589 13.374 9.46789 12.727 9.79989C12.592 9.86989 12.317 9.99989 12 9.99989C11.409 9.99989 10.83 9.73089 10.355 9.39489C10.265 9.70089 10.178 10.0369 10.103 10.3929C9.95468 11.0759 9.87429 11.772 9.863 12.4709C10.916 12.1309 11.993 12.1669 12.921 12.6909C13.6184 12.1432 14.4205 11.744 15.278 11.5179C16.578 11.1769 18.138 11.2239 19.555 12.1679C20.57 12.8449 21.339 14.1199 21.494 15.5149C21.656 16.9689 21.151 18.5589 19.624 19.7809C18.546 20.6429 16.903 20.9759 15.391 21.0969C13.826 21.2229 12.173 21.1369 10.89 20.9939C8.512 20.7299 6.686 20.0659 5.41 19.3809C4.573 18.9309 3.428 18.3089 3.065 17.3559C2.82 16.7099 2.884 15.9259 2.944 15.2539C3.024 14.3729 3.22 13.2729 3.587 12.0809C4.319 9.70189 5.752 6.88689 8.363 4.72889C9.166 4.06489 10.51 3.65289 11.635 3.51489C12.215 3.44389 12.825 3.43389 13.362 3.53589Z" fill="#D9D9D9"/>
</svg>
